ISO-10303-21;
HEADER;
FILE_DESCRIPTION (( 'STEP AP214' ),
    '1' );
FILE_NAME ('spacer 3mm.STEP',
    '2026-06-18T21:42:04',
    ( '' ),
    ( '' ),
    'SwSTEP 2.0',
    'SolidWorks 2024',
    '' );
FILE_SCHEMA (( 'AUTOMOTIVE_DESIGN' ));
ENDSEC;

DATA;
#1 = ORIENTED_EDGE ( 'NONE', *, *, #32, .F. ) ;
#2 = SURFACE_STYLE_FILL_AREA ( #82 ) ;
#3 = FACE_OUTER_BOUND ( 'NONE', #69, .T. ) ;
#4 = CARTESIAN_POINT ( 'NONE',  ( 0.000000000000000000, 0.000000000000000000, -5.000000000000000000 ) ) ;
#5 = LINE ( 'NONE', #25, #187 ) ;
#6 = CYLINDRICAL_SURFACE ( 'NONE', #137, 2.100000000000000089 ) ;
#7 = AXIS2_PLACEMENT_3D ( 'NONE', #180, #92, #198 ) ;
#8 = ORIENTED_EDGE ( 'NONE', *, *, #116, .F. ) ;
#9 = ADVANCED_FACE ( 'NONE', ( #106, #150 ), #93, .T. ) ;
#10 = ADVANCED_BREP_SHAPE_REPRESENTATION ( 'spacer 3mm', ( #95, #145 ), #186 ) ;
#11 = CARTESIAN_POINT ( 'NONE',  ( 0.000000000000000000, 3.000000000000000000, -5.000000000000000000 ) ) ;
#12 = CIRCLE ( 'NONE', #28, 2.100000000000000089 ) ;
#13 = CARTESIAN_POINT ( 'NONE',  ( 0.000000000000000000, 0.000000000000000000, -2.100000000000000089 ) ) ;
#14 = VERTEX_POINT ( 'NONE', #122 ) ;
#15 = PRODUCT_CONTEXT ( 'NONE', #110, 'mechanical' ) ;
#16 = ORIENTED_EDGE ( 'NONE', *, *, #162, .F. ) ;
#17 = AXIS2_PLACEMENT_3D ( 'NONE', #199, #33, #183 ) ;
#18 = VERTEX_POINT ( 'NONE', #64 ) ;
#19 = DIRECTION ( 'NONE',  ( 0.000000000000000000, 0.000000000000000000, 1.000000000000000000 ) ) ;
#20 = VERTEX_POINT ( 'NONE', #164 ) ;
#21 = PRESENTATION_STYLE_ASSIGNMENT (( #80 ) ) ;
#22 = ORIENTED_EDGE ( 'NONE', *, *, #162, .T. ) ;
#23 =( NAMED_UNIT ( * ) SI_UNIT ( $, .STERADIAN. ) SOLID_ANGLE_UNIT ( ) );
#24 = DIRECTION ( 'NONE',  ( 0.000000000000000000, 1.000000000000000000, 0.000000000000000000 ) ) ;
#25 = CARTESIAN_POINT ( 'NONE',  ( 2.571758278209441957E-16, 3.000000000000000000, 2.100000000000000089 ) ) ;
#26 = CARTESIAN_POINT ( 'NONE',  ( 0.000000000000000000, 0.000000000000000000, 0.000000000000000000 ) ) ;
#27 =( NAMED_UNIT ( * ) SI_UNIT ( $, .STERADIAN. ) SOLID_ANGLE_UNIT ( ) );
#28 = AXIS2_PLACEMENT_3D ( 'NONE', #57, #42, #191 ) ;
#29 = PRODUCT_RELATED_PRODUCT_CATEGORY ( 'part', '', ( #100 ) ) ;
#30 = VERTEX_POINT ( 'NONE', #63 ) ;
#31 = DIRECTION ( 'NONE',  ( 0.000000000000000000, 1.000000000000000000, 0.000000000000000000 ) ) ;
#32 = EDGE_CURVE ( 'NONE', #18, #161, #121, .T. ) ;
#33 = DIRECTION ( 'NONE',  ( -0.000000000000000000, -1.000000000000000000, -0.000000000000000000 ) ) ;
#34 = CARTESIAN_POINT ( 'NONE',  ( 6.123233995736766282E-16, 3.000000000000000000, 5.000000000000000000 ) ) ;
#35 = ORIENTED_EDGE ( 'NONE', *, *, #86, .T. ) ;
#36 = CARTESIAN_POINT ( 'NONE',  ( 0.000000000000000000, 0.000000000000000000, 0.000000000000000000 ) ) ;
#37 = DIRECTION ( 'NONE',  ( 0.000000000000000000, -0.000000000000000000, 1.000000000000000000 ) ) ;
#38 = AXIS2_PLACEMENT_3D ( 'NONE', #36, #127, #128 ) ;
#39 = FILL_AREA_STYLE_COLOUR ( '', #62 ) ;
#40 = PRODUCT_DEFINITION_SHAPE ( 'NONE', 'NONE',  #123 ) ;
#41 = ORIENTED_EDGE ( 'NONE', *, *, #116, .T. ) ;
#42 = DIRECTION ( 'NONE',  ( 0.000000000000000000, 1.000000000000000000, 0.000000000000000000 ) ) ;
#43 = CIRCLE ( 'NONE', #174, 5.000000000000000000 ) ;
#44 = EDGE_CURVE ( 'NONE', #18, #14, #60, .T. ) ;
#45 = CARTESIAN_POINT ( 'NONE',  ( 0.000000000000000000, 0.000000000000000000, 0.000000000000000000 ) ) ;
#46 = CIRCLE ( 'NONE', #38, 2.100000000000000089 ) ;
#47 = CARTESIAN_POINT ( 'NONE',  ( 0.000000000000000000, 3.000000000000000000, 0.000000000000000000 ) ) ;
#48 = EDGE_CURVE ( 'NONE', #30, #61, #43, .T. ) ;
#49 = ORIENTED_EDGE ( 'NONE', *, *, #86, .F. ) ;
#50 = CARTESIAN_POINT ( 'NONE',  ( 0.000000000000000000, 3.000000000000000000, 0.000000000000000000 ) ) ;
#51 = EDGE_LOOP ( 'NONE', ( #35, #79 ) ) ;
#52 = DIRECTION ( 'NONE',  ( -0.000000000000000000, -1.000000000000000000, -0.000000000000000000 ) ) ;
#53 = DIRECTION ( 'NONE',  ( 0.000000000000000000, 0.000000000000000000, -1.000000000000000000 ) ) ;
#54 = CARTESIAN_POINT ( 'NONE',  ( 0.000000000000000000, 3.000000000000000000, 0.000000000000000000 ) ) ;
#55 = PRESENTATION_LAYER_ASSIGNMENT (  '', '', ( #119 ) ) ;
#56 = ORIENTED_EDGE ( 'NONE', *, *, #89, .F. ) ;
#57 = CARTESIAN_POINT ( 'NONE',  ( 0.000000000000000000, 0.000000000000000000, 0.000000000000000000 ) ) ;
#58 = ADVANCED_FACE ( 'NONE', ( #76 ), #140, .T. ) ;
#59 = LINE ( 'NONE', #11, #72 ) ;
#60 = CIRCLE ( 'NONE', #7, 2.100000000000000089 ) ;
#61 = VERTEX_POINT ( 'NONE', #67 ) ;
#62 = COLOUR_RGB ( '',0.7921568627450980005, 0.8196078431372548767, 0.9333333333333333481 ) ;
#63 = CARTESIAN_POINT ( 'NONE',  ( 6.123233995736766282E-16, 3.000000000000000000, 5.000000000000000000 ) ) ;
#64 = CARTESIAN_POINT ( 'NONE',  ( 0.000000000000000000, 3.000000000000000000, -2.100000000000000089 ) ) ;
#65 = ORIENTED_EDGE ( 'NONE', *, *, #190, .F. ) ;
#66 = FACE_OUTER_BOUND ( 'NONE', #117, .T. ) ;
#67 = CARTESIAN_POINT ( 'NONE',  ( 0.000000000000000000, 3.000000000000000000, -5.000000000000000000 ) ) ;
#68 = DIRECTION ( 'NONE',  ( -0.000000000000000000, -1.000000000000000000, -0.000000000000000000 ) ) ;
#69 = EDGE_LOOP ( 'NONE', ( #175, #65 ) ) ;
#70 = ADVANCED_FACE ( 'NONE', ( #185 ), #6, .F. ) ;
#71 = UNCERTAINTY_MEASURE_WITH_UNIT (LENGTH_MEASURE( 1.000000000000000082E-05 ), #78, 'distance_accuracy_value', 'NONE');
#72 = VECTOR ( 'NONE', #173, 1000.000000000000000 ) ;
#73 = DIRECTION ( 'NONE',  ( 0.000000000000000000, 0.000000000000000000, 1.000000000000000000 ) ) ;
#74 = DIRECTION ( 'NONE',  ( 0.000000000000000000, 1.000000000000000000, 0.000000000000000000 ) ) ;
#75 = DIRECTION ( 'NONE',  ( 0.000000000000000000, -0.000000000000000000, 1.000000000000000000 ) ) ;
#76 = FACE_OUTER_BOUND ( 'NONE', #124, .T. ) ;
#77 = EDGE_LOOP ( 'NONE', ( #105, #113, #94, #1 ) ) ;
#78 =( LENGTH_UNIT ( ) NAMED_UNIT ( * ) SI_UNIT ( .MILLI., .METRE. ) );
#79 = ORIENTED_EDGE ( 'NONE', *, *, #48, .T. ) ;
#80 = SURFACE_STYLE_USAGE ( .BOTH. , #107 ) ;
#81 = DIRECTION ( 'NONE',  ( 0.000000000000000000, 1.000000000000000000, 0.000000000000000000 ) ) ;
#82 = FILL_AREA_STYLE ('',( #39 ) ) ;
#83 = ADVANCED_FACE ( 'NONE', ( #168 ), #169, .F. ) ;
#84 = ADVANCED_FACE ( 'NONE', ( #3, #126 ), #155, .F. ) ;
#85 = PRODUCT_DEFINITION_CONTEXT ( 'detailed design', #118, 'design' ) ;
#86 = EDGE_CURVE ( 'NONE', #61, #30, #139, .T. ) ;
#87 =( LENGTH_UNIT ( ) NAMED_UNIT ( * ) SI_UNIT ( .MILLI., .METRE. ) );
#88 = AXIS2_PLACEMENT_3D ( 'NONE', #26, #74, #73 ) ;
#89 = EDGE_CURVE ( 'NONE', #14, #20, #5, .T. ) ;
#90 = CARTESIAN_POINT ( 'NONE',  ( 0.000000000000000000, 3.000000000000000000, 0.000000000000000000 ) ) ;
#91 = AXIS2_PLACEMENT_3D ( 'NONE', #90, #31, #75 ) ;
#92 = DIRECTION ( 'NONE',  ( 0.000000000000000000, 1.000000000000000000, 0.000000000000000000 ) ) ;
#93 = PLANE ( 'NONE',  #91 ) ;
#94 = ORIENTED_EDGE ( 'NONE', *, *, #135, .F. ) ;
#95 = MANIFOLD_SOLID_BREP ( 'Boss-Extrude1', #115 ) ;
#96 = ORIENTED_EDGE ( 'NONE', *, *, #44, .F. ) ;
#97 =( NAMED_UNIT ( * ) PLANE_ANGLE_UNIT ( ) SI_UNIT ( $, .RADIAN. ) );
#98 = CARTESIAN_POINT ( 'NONE',  ( 0.000000000000000000, 3.000000000000000000, 0.000000000000000000 ) ) ;
#99 = CARTESIAN_POINT ( 'NONE',  ( 0.000000000000000000, 0.000000000000000000, 0.000000000000000000 ) ) ;
#100 = PRODUCT ( 'spacer 3mm', 'spacer 3mm', '', ( #15 ) ) ;
#101 = ORIENTED_EDGE ( 'NONE', *, *, #48, .F. ) ;
#102 = DIRECTION ( 'NONE',  ( 0.000000000000000000, 0.000000000000000000, 1.000000000000000000 ) ) ;
#103 = MECHANICAL_DESIGN_GEOMETRIC_PRESENTATION_REPRESENTATION (  '', ( #119 ), #159 ) ;
#104 = ADVANCED_FACE ( 'NONE', ( #66 ), #125, .T. ) ;
#105 = ORIENTED_EDGE ( 'NONE', *, *, #44, .T. ) ;
#106 = FACE_OUTER_BOUND ( 'NONE', #51, .T. ) ;
#107 = SURFACE_SIDE_STYLE ('',( #2 ) ) ;
#108 = ORIENTED_EDGE ( 'NONE', *, *, #32, .T. ) ;
#109 = DIRECTION ( 'NONE',  ( -0.000000000000000000, -1.000000000000000000, -0.000000000000000000 ) ) ;
#110 = APPLICATION_CONTEXT ( 'automotive_design' ) ;
#111 = DIRECTION ( 'NONE',  ( -0.000000000000000000, -1.000000000000000000, -0.000000000000000000 ) ) ;
#112 = AXIS2_PLACEMENT_3D ( 'NONE', #114, #172, #102 ) ;
#113 = ORIENTED_EDGE ( 'NONE', *, *, #89, .T. ) ;
#114 = CARTESIAN_POINT ( 'NONE',  ( 0.000000000000000000, 0.000000000000000000, 0.000000000000000000 ) ) ;
#115 = CLOSED_SHELL ( 'NONE', ( #83, #58, #9, #84, #104, #70 ) ) ;
#116 = EDGE_CURVE ( 'NONE', #30, #188, #184, .T. ) ;
#117 = EDGE_LOOP ( 'NONE', ( #8, #49, #179, #148 ) ) ;
#118 = APPLICATION_CONTEXT ( 'automotive_design' ) ;
#119 = STYLED_ITEM ( 'NONE', ( #21 ), #95 ) ;
#120 = APPLICATION_PROTOCOL_DEFINITION ( 'draft international standard', 'automotive_design', 1998, #110 ) ;
#121 = LINE ( 'NONE', #163, #129 ) ;
#122 = CARTESIAN_POINT ( 'NONE',  ( 2.571758278209441957E-16, 3.000000000000000000, 2.100000000000000089 ) ) ;
#123 = PRODUCT_DEFINITION ( 'UNKNOWN', '', #152, #85 ) ;
#124 = EDGE_LOOP ( 'NONE', ( #101, #41, #181, #171 ) ) ;
#125 = CYLINDRICAL_SURFACE ( 'NONE', #130, 5.000000000000000000 ) ;
#126 = FACE_BOUND ( 'NONE', #144, .T. ) ;
#127 = DIRECTION ( 'NONE',  ( 0.000000000000000000, 1.000000000000000000, 0.000000000000000000 ) ) ;
#128 = DIRECTION ( 'NONE',  ( 0.000000000000000000, 0.000000000000000000, 1.000000000000000000 ) ) ;
#129 = VECTOR ( 'NONE', #138, 1000.000000000000000 ) ;
#130 = AXIS2_PLACEMENT_3D ( 'NONE', #50, #165, #182 ) ;
#131 = VERTEX_POINT ( 'NONE', #4 ) ;
#132 = VECTOR ( 'NONE', #52, 1000.000000000000000 ) ;
#133 = CARTESIAN_POINT ( 'NONE',  ( 6.123233995736766282E-16, 0.000000000000000000, 5.000000000000000000 ) ) ;
#134 = CARTESIAN_POINT ( 'NONE',  ( 0.000000000000000000, 3.000000000000000000, 0.000000000000000000 ) ) ;
#135 = EDGE_CURVE ( 'NONE', #161, #20, #46, .T. ) ;
#136 = EDGE_CURVE ( 'NONE', #14, #18, #156, .T. ) ;
#137 = AXIS2_PLACEMENT_3D ( 'NONE', #54, #111, #53 ) ;
#138 = DIRECTION ( 'NONE',  ( -0.000000000000000000, -1.000000000000000000, -0.000000000000000000 ) ) ;
#139 = CIRCLE ( 'NONE', #146, 5.000000000000000000 ) ;
#140 = CYLINDRICAL_SURFACE ( 'NONE', #17, 5.000000000000000000 ) ;
#141 = ORIENTED_EDGE ( 'NONE', *, *, #135, .T. ) ;
#142 = DIRECTION ( 'NONE',  ( 0.000000000000000000, 0.000000000000000000, 1.000000000000000000 ) ) ;
#143 = DIRECTION ( 'NONE',  ( 0.000000000000000000, 0.000000000000000000, -1.000000000000000000 ) ) ;
#144 = EDGE_LOOP ( 'NONE', ( #141, #22 ) ) ;
#145 = AXIS2_PLACEMENT_3D ( 'NONE', #45, #176, #178 ) ;
#146 = AXIS2_PLACEMENT_3D ( 'NONE', #98, #81, #142 ) ;
#147 = DIRECTION ( 'NONE',  ( 0.000000000000000000, 0.000000000000000000, 1.000000000000000000 ) ) ;
#148 = ORIENTED_EDGE ( 'NONE', *, *, #194, .T. ) ;
#149 = SHAPE_DEFINITION_REPRESENTATION ( #40, #10 ) ;
#150 = FACE_BOUND ( 'NONE', #160, .T. ) ;
#151 = DIRECTION ( 'NONE',  ( 0.000000000000000000, 1.000000000000000000, 0.000000000000000000 ) ) ;
#152 = PRODUCT_DEFINITION_FORMATION_WITH_SPECIFIED_SOURCE ( 'ANY', '', #100, .NOT_KNOWN. ) ;
#153 = ORIENTED_EDGE ( 'NONE', *, *, #136, .T. ) ;
#154 = EDGE_LOOP ( 'NONE', ( #56, #153, #108, #16 ) ) ;
#155 = PLANE ( 'NONE',  #196 ) ;
#156 = CIRCLE ( 'NONE', #177, 2.100000000000000089 ) ;
#157 = CARTESIAN_POINT ( 'NONE',  ( 0.000000000000000000, 3.000000000000000000, 0.000000000000000000 ) ) ;
#158 = AXIS2_PLACEMENT_3D ( 'NONE', #157, #109, #143 ) ;
#159 =( GEOMETRIC_REPRESENTATION_CONTEXT ( 3 ) GLOBAL_UNCERTAINTY_ASSIGNED_CONTEXT ( ( #71 ) ) GLOBAL_UNIT_ASSIGNED_CONTEXT ( ( #78, #97, #23 ) ) REPRESENTATION_CONTEXT ( 'NONE', 'WORKASPACE' ) );
#160 = EDGE_LOOP ( 'NONE', ( #96, #167 ) ) ;
#161 = VERTEX_POINT ( 'NONE', #13 ) ;
#162 = EDGE_CURVE ( 'NONE', #20, #161, #12, .T. ) ;
#163 = CARTESIAN_POINT ( 'NONE',  ( 0.000000000000000000, 3.000000000000000000, -2.100000000000000089 ) ) ;
#164 = CARTESIAN_POINT ( 'NONE',  ( 2.571758278209441957E-16, 0.000000000000000000, 2.100000000000000089 ) ) ;
#165 = DIRECTION ( 'NONE',  ( -0.000000000000000000, -1.000000000000000000, -0.000000000000000000 ) ) ;
#166 = EDGE_CURVE ( 'NONE', #61, #131, #59, .T. ) ;
#167 = ORIENTED_EDGE ( 'NONE', *, *, #136, .F. ) ;
#168 = FACE_OUTER_BOUND ( 'NONE', #77, .T. ) ;
#169 = CYLINDRICAL_SURFACE ( 'NONE', #158, 2.100000000000000089 ) ;
#170 = CIRCLE ( 'NONE', #88, 5.000000000000000000 ) ;
#171 = ORIENTED_EDGE ( 'NONE', *, *, #166, .F. ) ;
#172 = DIRECTION ( 'NONE',  ( 0.000000000000000000, 1.000000000000000000, 0.000000000000000000 ) ) ;
#173 = DIRECTION ( 'NONE',  ( -0.000000000000000000, -1.000000000000000000, -0.000000000000000000 ) ) ;
#174 = AXIS2_PLACEMENT_3D ( 'NONE', #47, #151, #19 ) ;
#175 = ORIENTED_EDGE ( 'NONE', *, *, #194, .F. ) ;
#176 = DIRECTION ( 'NONE',  ( 0.000000000000000000, 0.000000000000000000, 1.000000000000000000 ) ) ;
#177 = AXIS2_PLACEMENT_3D ( 'NONE', #134, #193, #147 ) ;
#178 = DIRECTION ( 'NONE',  ( 1.000000000000000000, 0.000000000000000000, 0.000000000000000000 ) ) ;
#179 = ORIENTED_EDGE ( 'NONE', *, *, #166, .T. ) ;
#180 = CARTESIAN_POINT ( 'NONE',  ( 0.000000000000000000, 3.000000000000000000, 0.000000000000000000 ) ) ;
#181 = ORIENTED_EDGE ( 'NONE', *, *, #190, .T. ) ;
#182 = DIRECTION ( 'NONE',  ( 0.000000000000000000, 0.000000000000000000, -1.000000000000000000 ) ) ;
#183 = DIRECTION ( 'NONE',  ( 0.000000000000000000, 0.000000000000000000, -1.000000000000000000 ) ) ;
#184 = LINE ( 'NONE', #34, #132 ) ;
#185 = FACE_OUTER_BOUND ( 'NONE', #154, .T. ) ;
#186 =( GEOMETRIC_REPRESENTATION_CONTEXT ( 3 ) GLOBAL_UNCERTAINTY_ASSIGNED_CONTEXT ( ( #189 ) ) GLOBAL_UNIT_ASSIGNED_CONTEXT ( ( #87, #192, #27 ) ) REPRESENTATION_CONTEXT ( 'NONE', 'WORKASPACE' ) );
#187 = VECTOR ( 'NONE', #68, 1000.000000000000000 ) ;
#188 = VERTEX_POINT ( 'NONE', #133 ) ;
#189 = UNCERTAINTY_MEASURE_WITH_UNIT (LENGTH_MEASURE( 1.000000000000000082E-05 ), #87, 'distance_accuracy_value', 'NONE');
#190 = EDGE_CURVE ( 'NONE', #188, #131, #170, .T. ) ;
#191 = DIRECTION ( 'NONE',  ( 0.000000000000000000, 0.000000000000000000, 1.000000000000000000 ) ) ;
#192 =( NAMED_UNIT ( * ) PLANE_ANGLE_UNIT ( ) SI_UNIT ( $, .RADIAN. ) );
#193 = DIRECTION ( 'NONE',  ( 0.000000000000000000, 1.000000000000000000, 0.000000000000000000 ) ) ;
#194 = EDGE_CURVE ( 'NONE', #131, #188, #197, .T. ) ;
#195 = APPLICATION_PROTOCOL_DEFINITION ( 'draft international standard', 'automotive_design', 1998, #118 ) ;
#196 = AXIS2_PLACEMENT_3D ( 'NONE', #99, #24, #37 ) ;
#197 = CIRCLE ( 'NONE', #112, 5.000000000000000000 ) ;
#198 = DIRECTION ( 'NONE',  ( 0.000000000000000000, 0.000000000000000000, 1.000000000000000000 ) ) ;
#199 = CARTESIAN_POINT ( 'NONE',  ( 0.000000000000000000, 3.000000000000000000, 0.000000000000000000 ) ) ;
ENDSEC;
END-ISO-10303-21;
