ISO-10303-21;
HEADER;
FILE_DESCRIPTION (( 'STEP AP214' ),
    '1' );
FILE_NAME ('spacer 5mm.STEP',
    '2026-06-18T21:42:42',
    ( '' ),
    ( '' ),
    'SwSTEP 2.0',
    'SolidWorks 2024',
    '' );
FILE_SCHEMA (( 'AUTOMOTIVE_DESIGN' ));
ENDSEC;

DATA;
#1 =( NAMED_UNIT ( * ) PLANE_ANGLE_UNIT ( ) SI_UNIT ( $, .RADIAN. ) );
#2 = ADVANCED_FACE ( 'NONE', ( #6 ), #74, .T. ) ;
#3 = EDGE_LOOP ( 'NONE', ( #101, #142, #183, #103 ) ) ;
#4 = VERTEX_POINT ( 'NONE', #115 ) ;
#5 = PRODUCT_CONTEXT ( 'NONE', #181, 'mechanical' ) ;
#6 = FACE_OUTER_BOUND ( 'NONE', #167, .T. ) ;
#7 = STYLED_ITEM ( 'NONE', ( #77 ), #105 ) ;
#8 = APPLICATION_PROTOCOL_DEFINITION ( 'draft international standard', 'automotive_design', 1998, #138 ) ;
#9 = CARTESIAN_POINT ( 'NONE',  ( 2.571758278209441957E-16, 0.000000000000000000, 2.100000000000000089 ) ) ;
#10 = EDGE_CURVE ( 'NONE', #55, #159, #190, .T. ) ;
#11 = CIRCLE ( 'NONE', #128, 2.100000000000000089 ) ;
#12 = SURFACE_STYLE_FILL_AREA ( #61 ) ;
#13 = EDGE_CURVE ( 'NONE', #4, #55, #171, .T. ) ;
#14 = PLANE ( 'NONE',  #110 ) ;
#15 = DIRECTION ( 'NONE',  ( 0.000000000000000000, 0.000000000000000000, 1.000000000000000000 ) ) ;
#16 = CIRCLE ( 'NONE', #106, 5.000000000000000000 ) ;
#17 = ORIENTED_EDGE ( 'NONE', *, *, #152, .T. ) ;
#18 = ORIENTED_EDGE ( 'NONE', *, *, #71, .F. ) ;
#19 = DIRECTION ( 'NONE',  ( 1.000000000000000000, 0.000000000000000000, 0.000000000000000000 ) ) ;
#20 = CARTESIAN_POINT ( 'NONE',  ( 2.571758278209441957E-16, 5.000000000000000000, 2.100000000000000089 ) ) ;
#21 = VERTEX_POINT ( 'NONE', #34 ) ;
#22 = DIRECTION ( 'NONE',  ( -0.000000000000000000, -1.000000000000000000, -0.000000000000000000 ) ) ;
#23 = ORIENTED_EDGE ( 'NONE', *, *, #68, .T. ) ;
#24 = CARTESIAN_POINT ( 'NONE',  ( 0.000000000000000000, 5.000000000000000000, 0.000000000000000000 ) ) ;
#25 = CARTESIAN_POINT ( 'NONE',  ( 0.000000000000000000, 5.000000000000000000, 0.000000000000000000 ) ) ;
#26 = DIRECTION ( 'NONE',  ( 0.000000000000000000, 1.000000000000000000, 0.000000000000000000 ) ) ;
#27 = EDGE_CURVE ( 'NONE', #21, #39, #16, .T. ) ;
#28 = FACE_OUTER_BOUND ( 'NONE', #33, .T. ) ;
#29 = CARTESIAN_POINT ( 'NONE',  ( 0.000000000000000000, 5.000000000000000000, 0.000000000000000000 ) ) ;
#30 = AXIS2_PLACEMENT_3D ( 'NONE', #88, #146, #19 ) ;
#31 = VECTOR ( 'NONE', #161, 1000.000000000000000 ) ;
#32 = EDGE_CURVE ( 'NONE', #39, #21, #40, .T. ) ;
#33 = EDGE_LOOP ( 'NONE', ( #180, #130 ) ) ;
#34 = CARTESIAN_POINT ( 'NONE',  ( 0.000000000000000000, 0.000000000000000000, -5.000000000000000000 ) ) ;
#35 = ORIENTED_EDGE ( 'NONE', *, *, #49, .F. ) ;
#36 = DIRECTION ( 'NONE',  ( 0.000000000000000000, 0.000000000000000000, 1.000000000000000000 ) ) ;
#37 = DIRECTION ( 'NONE',  ( 0.000000000000000000, 0.000000000000000000, 1.000000000000000000 ) ) ;
#38 = VERTEX_POINT ( 'NONE', #78 ) ;
#39 = VERTEX_POINT ( 'NONE', #135 ) ;
#40 = CIRCLE ( 'NONE', #195, 5.000000000000000000 ) ;
#41 = DIRECTION ( 'NONE',  ( 0.000000000000000000, 1.000000000000000000, 0.000000000000000000 ) ) ;
#42 = SURFACE_STYLE_USAGE ( .BOTH. , #174 ) ;
#43 = AXIS2_PLACEMENT_3D ( 'NONE', #189, #184, #116 ) ;
#44 = CARTESIAN_POINT ( 'NONE',  ( 0.000000000000000000, 5.000000000000000000, -5.000000000000000000 ) ) ;
#45 = FACE_BOUND ( 'NONE', #87, .T. ) ;
#46 = ADVANCED_FACE ( 'NONE', ( #148 ), #175, .T. ) ;
#47 = DIRECTION ( 'NONE',  ( -0.000000000000000000, -1.000000000000000000, -0.000000000000000000 ) ) ;
#48 = PRODUCT_DEFINITION_SHAPE ( 'NONE', 'NONE',  #196 ) ;
#49 = EDGE_CURVE ( 'NONE', #154, #21, #126, .T. ) ;
#50 = AXIS2_PLACEMENT_3D ( 'NONE', #113, #97, #69 ) ;
#51 = EDGE_CURVE ( 'NONE', #154, #81, #73, .T. ) ;
#52 = CARTESIAN_POINT ( 'NONE',  ( 0.000000000000000000, 0.000000000000000000, 0.000000000000000000 ) ) ;
#53 = ORIENTED_EDGE ( 'NONE', *, *, #109, .F. ) ;
#54 = CARTESIAN_POINT ( 'NONE',  ( 0.000000000000000000, 0.000000000000000000, -2.100000000000000089 ) ) ;
#55 = VERTEX_POINT ( 'NONE', #9 ) ;
#56 = CYLINDRICAL_SURFACE ( 'NONE', #93, 2.100000000000000089 ) ;
#57 = ORIENTED_EDGE ( 'NONE', *, *, #152, .F. ) ;
#58 = CYLINDRICAL_SURFACE ( 'NONE', #67, 2.100000000000000089 ) ;
#59 = CIRCLE ( 'NONE', #197, 5.000000000000000000 ) ;
#60 = AXIS2_PLACEMENT_3D ( 'NONE', #29, #163, #92 ) ;
#61 = FILL_AREA_STYLE ('',( #90 ) ) ;
#62 = CARTESIAN_POINT ( 'NONE',  ( 0.000000000000000000, 5.000000000000000000, 0.000000000000000000 ) ) ;
#63 = CIRCLE ( 'NONE', #43, 2.100000000000000089 ) ;
#64 = DIRECTION ( 'NONE',  ( 0.000000000000000000, -0.000000000000000000, 1.000000000000000000 ) ) ;
#65 = AXIS2_PLACEMENT_3D ( 'NONE', #117, #198, #37 ) ;
#66 = DIRECTION ( 'NONE',  ( 0.000000000000000000, 0.000000000000000000, 1.000000000000000000 ) ) ;
#67 = AXIS2_PLACEMENT_3D ( 'NONE', #25, #168, #140 ) ;
#68 = EDGE_CURVE ( 'NONE', #38, #159, #111, .T. ) ;
#69 = DIRECTION ( 'NONE',  ( 0.000000000000000000, 0.000000000000000000, -1.000000000000000000 ) ) ;
#70 = ORIENTED_EDGE ( 'NONE', *, *, #10, .T. ) ;
#71 = EDGE_CURVE ( 'NONE', #81, #39, #108, .T. ) ;
#72 = ORIENTED_EDGE ( 'NONE', *, *, #71, .T. ) ;
#73 = CIRCLE ( 'NONE', #129, 5.000000000000000000 ) ;
#74 = CYLINDRICAL_SURFACE ( 'NONE', #50, 5.000000000000000000 ) ;
#75 = CARTESIAN_POINT ( 'NONE',  ( 0.000000000000000000, 5.000000000000000000, 0.000000000000000000 ) ) ;
#76 = CARTESIAN_POINT ( 'NONE',  ( 0.000000000000000000, 5.000000000000000000, 0.000000000000000000 ) ) ;
#77 = PRESENTATION_STYLE_ASSIGNMENT (( #42 ) ) ;
#78 = CARTESIAN_POINT ( 'NONE',  ( 0.000000000000000000, 5.000000000000000000, -2.100000000000000089 ) ) ;
#79 =( GEOMETRIC_REPRESENTATION_CONTEXT ( 3 ) GLOBAL_UNCERTAINTY_ASSIGNED_CONTEXT ( ( #186 ) ) GLOBAL_UNIT_ASSIGNED_CONTEXT ( ( #102, #133, #157 ) ) REPRESENTATION_CONTEXT ( 'NONE', 'WORKASPACE' ) );
#80 = DIRECTION ( 'NONE',  ( 0.000000000000000000, 1.000000000000000000, 0.000000000000000000 ) ) ;
#81 = VERTEX_POINT ( 'NONE', #125 ) ;
#82 = VECTOR ( 'NONE', #91, 1000.000000000000000 ) ;
#83 = ORIENTED_EDGE ( 'NONE', *, *, #32, .F. ) ;
#84 = ADVANCED_FACE ( 'NONE', ( #149, #45 ), #14, .F. ) ;
#85 = EDGE_LOOP ( 'NONE', ( #139, #83 ) ) ;
#86 = CARTESIAN_POINT ( 'NONE',  ( 0.000000000000000000, 5.000000000000000000, 0.000000000000000000 ) ) ;
#87 = EDGE_LOOP ( 'NONE', ( #132, #70 ) ) ;
#88 = CARTESIAN_POINT ( 'NONE',  ( 0.000000000000000000, 0.000000000000000000, 0.000000000000000000 ) ) ;
#89 = FACE_BOUND ( 'NONE', #98, .T. ) ;
#90 = FILL_AREA_STYLE_COLOUR ( '', #95 ) ;
#91 = DIRECTION ( 'NONE',  ( -0.000000000000000000, -1.000000000000000000, -0.000000000000000000 ) ) ;
#92 = DIRECTION ( 'NONE',  ( 0.000000000000000000, 0.000000000000000000, -1.000000000000000000 ) ) ;
#93 = AXIS2_PLACEMENT_3D ( 'NONE', #75, #22, #160 ) ;
#94 = ADVANCED_FACE ( 'NONE', ( #28, #89 ), #123, .T. ) ;
#95 = COLOUR_RGB ( '',0.7921568627450980005, 0.8196078431372548767, 0.9333333333333333481 ) ;
#96 = MECHANICAL_DESIGN_GEOMETRIC_PRESENTATION_REPRESENTATION (  '', ( #7 ), #79 ) ;
#97 = DIRECTION ( 'NONE',  ( -0.000000000000000000, -1.000000000000000000, -0.000000000000000000 ) ) ;
#98 = EDGE_LOOP ( 'NONE', ( #53, #57 ) ) ;
#99 = EDGE_CURVE ( 'NONE', #159, #55, #100, .T. ) ;
#100 = CIRCLE ( 'NONE', #177, 2.100000000000000089 ) ;
#101 = ORIENTED_EDGE ( 'NONE', *, *, #109, .T. ) ;
#102 =( LENGTH_UNIT ( ) NAMED_UNIT ( * ) SI_UNIT ( .MILLI., .METRE. ) );
#103 = ORIENTED_EDGE ( 'NONE', *, *, #68, .F. ) ;
#104 = FACE_OUTER_BOUND ( 'NONE', #145, .T. ) ;
#105 = MANIFOLD_SOLID_BREP ( 'Boss-Extrude1', #155 ) ;
#106 = AXIS2_PLACEMENT_3D ( 'NONE', #52, #166, #176 ) ;
#107 = APPLICATION_PROTOCOL_DEFINITION ( 'draft international standard', 'automotive_design', 1998, #181 ) ;
#108 = LINE ( 'NONE', #164, #179 ) ;
#109 = EDGE_CURVE ( 'NONE', #38, #4, #63, .T. ) ;
#110 = AXIS2_PLACEMENT_3D ( 'NONE', #150, #26, #194 ) ;
#111 = LINE ( 'NONE', #178, #82 ) ;
#112 = PRODUCT ( 'spacer 5mm', 'spacer 5mm', '', ( #5 ) ) ;
#113 = CARTESIAN_POINT ( 'NONE',  ( 0.000000000000000000, 5.000000000000000000, 0.000000000000000000 ) ) ;
#114 = ADVANCED_FACE ( 'NONE', ( #104 ), #56, .F. ) ;
#115 = CARTESIAN_POINT ( 'NONE',  ( 2.571758278209441957E-16, 5.000000000000000000, 2.100000000000000089 ) ) ;
#116 = DIRECTION ( 'NONE',  ( 0.000000000000000000, 0.000000000000000000, 1.000000000000000000 ) ) ;
#117 = CARTESIAN_POINT ( 'NONE',  ( 0.000000000000000000, 0.000000000000000000, 0.000000000000000000 ) ) ;
#118 = ORIENTED_EDGE ( 'NONE', *, *, #182, .F. ) ;
#119 = FACE_OUTER_BOUND ( 'NONE', #3, .T. ) ;
#120 = ORIENTED_EDGE ( 'NONE', *, *, #27, .T. ) ;
#121 = SHAPE_DEFINITION_REPRESENTATION ( #48, #192 ) ;
#122 = DIRECTION ( 'NONE',  ( 0.000000000000000000, 1.000000000000000000, 0.000000000000000000 ) ) ;
#123 = PLANE ( 'NONE',  #153 ) ;
#124 = PRODUCT_RELATED_PRODUCT_CATEGORY ( 'part', '', ( #112 ) ) ;
#125 = CARTESIAN_POINT ( 'NONE',  ( 6.123233995736766282E-16, 5.000000000000000000, 5.000000000000000000 ) ) ;
#126 = LINE ( 'NONE', #44, #165 ) ;
#127 = DIRECTION ( 'NONE',  ( 0.000000000000000000, 1.000000000000000000, 0.000000000000000000 ) ) ;
#128 = AXIS2_PLACEMENT_3D ( 'NONE', #24, #122, #187 ) ;
#129 = AXIS2_PLACEMENT_3D ( 'NONE', #62, #127, #66 ) ;
#130 = ORIENTED_EDGE ( 'NONE', *, *, #182, .T. ) ;
#131 =( GEOMETRIC_REPRESENTATION_CONTEXT ( 3 ) GLOBAL_UNCERTAINTY_ASSIGNED_CONTEXT ( ( #170 ) ) GLOBAL_UNIT_ASSIGNED_CONTEXT ( ( #188, #1, #143 ) ) REPRESENTATION_CONTEXT ( 'NONE', 'WORKASPACE' ) );
#132 = ORIENTED_EDGE ( 'NONE', *, *, #99, .T. ) ;
#133 =( NAMED_UNIT ( * ) PLANE_ANGLE_UNIT ( ) SI_UNIT ( $, .RADIAN. ) );
#134 = DIRECTION ( 'NONE',  ( 0.000000000000000000, 1.000000000000000000, 0.000000000000000000 ) ) ;
#135 = CARTESIAN_POINT ( 'NONE',  ( 6.123233995736766282E-16, 0.000000000000000000, 5.000000000000000000 ) ) ;
#136 = DIRECTION ( 'NONE',  ( 0.000000000000000000, 0.000000000000000000, 1.000000000000000000 ) ) ;
#137 = ADVANCED_FACE ( 'NONE', ( #119 ), #58, .F. ) ;
#138 = APPLICATION_CONTEXT ( 'automotive_design' ) ;
#139 = ORIENTED_EDGE ( 'NONE', *, *, #27, .F. ) ;
#140 = DIRECTION ( 'NONE',  ( 0.000000000000000000, 0.000000000000000000, -1.000000000000000000 ) ) ;
#141 = ORIENTED_EDGE ( 'NONE', *, *, #49, .T. ) ;
#142 = ORIENTED_EDGE ( 'NONE', *, *, #13, .T. ) ;
#143 =( NAMED_UNIT ( * ) SI_UNIT ( $, .STERADIAN. ) SOLID_ANGLE_UNIT ( ) );
#144 = PRODUCT_DEFINITION_CONTEXT ( 'detailed design', #138, 'design' ) ;
#145 = EDGE_LOOP ( 'NONE', ( #185, #17, #23, #199 ) ) ;
#146 = DIRECTION ( 'NONE',  ( 0.000000000000000000, 0.000000000000000000, 1.000000000000000000 ) ) ;
#147 = PRODUCT_DEFINITION_FORMATION_WITH_SPECIFIED_SOURCE ( 'ANY', '', #112, .NOT_KNOWN. ) ;
#148 = FACE_OUTER_BOUND ( 'NONE', #169, .T. ) ;
#149 = FACE_OUTER_BOUND ( 'NONE', #85, .T. ) ;
#150 = CARTESIAN_POINT ( 'NONE',  ( 0.000000000000000000, 0.000000000000000000, 0.000000000000000000 ) ) ;
#151 = CARTESIAN_POINT ( 'NONE',  ( 0.000000000000000000, 0.000000000000000000, 0.000000000000000000 ) ) ;
#152 = EDGE_CURVE ( 'NONE', #4, #38, #11, .T. ) ;
#153 = AXIS2_PLACEMENT_3D ( 'NONE', #76, #193, #64 ) ;
#154 = VERTEX_POINT ( 'NONE', #173 ) ;
#155 = CLOSED_SHELL ( 'NONE', ( #137, #2, #94, #84, #46, #114 ) ) ;
#156 = ORIENTED_EDGE ( 'NONE', *, *, #51, .F. ) ;
#157 =( NAMED_UNIT ( * ) SI_UNIT ( $, .STERADIAN. ) SOLID_ANGLE_UNIT ( ) );
#158 = PRESENTATION_LAYER_ASSIGNMENT (  '', '', ( #7 ) ) ;
#159 = VERTEX_POINT ( 'NONE', #54 ) ;
#160 = DIRECTION ( 'NONE',  ( 0.000000000000000000, 0.000000000000000000, -1.000000000000000000 ) ) ;
#161 = DIRECTION ( 'NONE',  ( -0.000000000000000000, -1.000000000000000000, -0.000000000000000000 ) ) ;
#162 = CARTESIAN_POINT ( 'NONE',  ( 0.000000000000000000, 0.000000000000000000, 0.000000000000000000 ) ) ;
#163 = DIRECTION ( 'NONE',  ( -0.000000000000000000, -1.000000000000000000, -0.000000000000000000 ) ) ;
#164 = CARTESIAN_POINT ( 'NONE',  ( 6.123233995736766282E-16, 5.000000000000000000, 5.000000000000000000 ) ) ;
#165 = VECTOR ( 'NONE', #191, 1000.000000000000000 ) ;
#166 = DIRECTION ( 'NONE',  ( 0.000000000000000000, 1.000000000000000000, 0.000000000000000000 ) ) ;
#167 = EDGE_LOOP ( 'NONE', ( #118, #72, #172, #35 ) ) ;
#168 = DIRECTION ( 'NONE',  ( -0.000000000000000000, -1.000000000000000000, -0.000000000000000000 ) ) ;
#169 = EDGE_LOOP ( 'NONE', ( #18, #156, #141, #120 ) ) ;
#170 = UNCERTAINTY_MEASURE_WITH_UNIT (LENGTH_MEASURE( 1.000000000000000082E-05 ), #188, 'distance_accuracy_value', 'NONE');
#171 = LINE ( 'NONE', #20, #31 ) ;
#172 = ORIENTED_EDGE ( 'NONE', *, *, #32, .T. ) ;
#173 = CARTESIAN_POINT ( 'NONE',  ( 0.000000000000000000, 5.000000000000000000, -5.000000000000000000 ) ) ;
#174 = SURFACE_SIDE_STYLE ('',( #12 ) ) ;
#175 = CYLINDRICAL_SURFACE ( 'NONE', #60, 5.000000000000000000 ) ;
#176 = DIRECTION ( 'NONE',  ( 0.000000000000000000, 0.000000000000000000, 1.000000000000000000 ) ) ;
#177 = AXIS2_PLACEMENT_3D ( 'NONE', #151, #134, #15 ) ;
#178 = CARTESIAN_POINT ( 'NONE',  ( 0.000000000000000000, 5.000000000000000000, -2.100000000000000089 ) ) ;
#179 = VECTOR ( 'NONE', #47, 1000.000000000000000 ) ;
#180 = ORIENTED_EDGE ( 'NONE', *, *, #51, .T. ) ;
#181 = APPLICATION_CONTEXT ( 'automotive_design' ) ;
#182 = EDGE_CURVE ( 'NONE', #81, #154, #59, .T. ) ;
#183 = ORIENTED_EDGE ( 'NONE', *, *, #99, .F. ) ;
#184 = DIRECTION ( 'NONE',  ( 0.000000000000000000, 1.000000000000000000, 0.000000000000000000 ) ) ;
#185 = ORIENTED_EDGE ( 'NONE', *, *, #13, .F. ) ;
#186 = UNCERTAINTY_MEASURE_WITH_UNIT (LENGTH_MEASURE( 1.000000000000000082E-05 ), #102, 'distance_accuracy_value', 'NONE');
#187 = DIRECTION ( 'NONE',  ( 0.000000000000000000, 0.000000000000000000, 1.000000000000000000 ) ) ;
#188 =( LENGTH_UNIT ( ) NAMED_UNIT ( * ) SI_UNIT ( .MILLI., .METRE. ) );
#189 = CARTESIAN_POINT ( 'NONE',  ( 0.000000000000000000, 5.000000000000000000, 0.000000000000000000 ) ) ;
#190 = CIRCLE ( 'NONE', #65, 2.100000000000000089 ) ;
#191 = DIRECTION ( 'NONE',  ( -0.000000000000000000, -1.000000000000000000, -0.000000000000000000 ) ) ;
#192 = ADVANCED_BREP_SHAPE_REPRESENTATION ( 'spacer 5mm', ( #105, #30 ), #131 ) ;
#193 = DIRECTION ( 'NONE',  ( 0.000000000000000000, 1.000000000000000000, 0.000000000000000000 ) ) ;
#194 = DIRECTION ( 'NONE',  ( 0.000000000000000000, -0.000000000000000000, 1.000000000000000000 ) ) ;
#195 = AXIS2_PLACEMENT_3D ( 'NONE', #162, #80, #136 ) ;
#196 = PRODUCT_DEFINITION ( 'UNKNOWN', '', #147, #144 ) ;
#197 = AXIS2_PLACEMENT_3D ( 'NONE', #86, #41, #36 ) ;
#198 = DIRECTION ( 'NONE',  ( 0.000000000000000000, 1.000000000000000000, 0.000000000000000000 ) ) ;
#199 = ORIENTED_EDGE ( 'NONE', *, *, #10, .F. ) ;
ENDSEC;
END-ISO-10303-21;
