ISO-10303-21;
HEADER;
FILE_DESCRIPTION (( 'STEP AP214' ),
    '1' );
FILE_NAME ('Arm.STEP',
    '2026-06-19T12:58:50',
    ( '' ),
    ( '' ),
    'SwSTEP 2.0',
    'SolidWorks 2024',
    '' );
FILE_SCHEMA (( 'AUTOMOTIVE_DESIGN' ));
ENDSEC;

DATA;
#1 = ORIENTED_EDGE ( 'NONE', *, *, #414, .T. ) ;
#2 = DIRECTION ( 'NONE',  ( 1.000000000000000000, 0.000000000000000000, 0.000000000000000000 ) ) ;
#3 = CYLINDRICAL_SURFACE ( 'NONE', #348, 6.000000000000005329 ) ;
#4 = CARTESIAN_POINT ( 'NONE',  ( 69.42094084484564576, 4.900000000000000355, 272.9759102313150834 ) ) ;
#5 = EDGE_LOOP ( 'NONE', ( #36, #212, #720, #86 ) ) ;
#6 = LINE ( 'NONE', #568, #718 ) ;
#7 = FACE_OUTER_BOUND ( 'NONE', #500, .T. ) ;
#8 = VECTOR ( 'NONE', #203, 1000.000000000000000 ) ;
#9 = ORIENTED_EDGE ( 'NONE', *, *, #690, .F. ) ;
#10 = DIRECTION ( 'NONE',  ( 0.000000000000000000, 0.000000000000000000, 1.000000000000000000 ) ) ;
#11 = CARTESIAN_POINT ( 'NONE',  ( 65.93276035181645511, 4.900000000000000355, 266.6818549107413219 ) ) ;
#12 = EDGE_CURVE ( 'NONE', #344, #535, #767, .T. ) ;
#13 = CARTESIAN_POINT ( 'NONE',  ( 43.30809204199562146, -4.900000000000000355, 292.0000000000000568 ) ) ;
#14 = APPLICATION_PROTOCOL_DEFINITION ( 'draft international standard', 'automotive_design', 1998, #638 ) ;
#15 = EDGE_CURVE ( 'NONE', #129, #732, #6, .T. ) ;
#16 = ORIENTED_EDGE ( 'NONE', *, *, #479, .T. ) ;
#17 = DIRECTION ( 'NONE',  ( 0.000000000000000000, 1.000000000000000000, 0.000000000000000000 ) ) ;
#18 = CARTESIAN_POINT ( 'NONE',  ( 14.13970423613136518, 4.900000000000000355, 107.5729682796162621 ) ) ;
#19 = ORIENTED_EDGE ( 'NONE', *, *, #72, .F. ) ;
#20 = DIRECTION ( 'NONE',  ( 0.000000000000000000, 0.000000000000000000, 1.000000000000000000 ) ) ;
#21 = LINE ( 'NONE', #299, #57 ) ;
#22 = ORIENTED_EDGE ( 'NONE', *, *, #23, .F. ) ;
#23 = EDGE_CURVE ( 'NONE', #707, #436, #347, .T. ) ;
#24 =( NAMED_UNIT ( * ) PLANE_ANGLE_UNIT ( ) SI_UNIT ( $, .RADIAN. ) );
#25 = AXIS2_PLACEMENT_3D ( 'NONE', #716, #35, #797 ) ;
#26 = CARTESIAN_POINT ( 'NONE',  ( 69.42094084484564576, -4.900000000000000355, 272.9759102313150834 ) ) ;
#27 = ORIENTED_EDGE ( 'NONE', *, *, #499, .T. ) ;
#28 = VECTOR ( 'NONE', #206, 1000.000000000000227 ) ;
#29 = AXIS2_PLACEMENT_3D ( 'NONE', #755, #688, #336 ) ;
#30 = PRODUCT_DEFINITION ( 'UNKNOWN', '', #775, #451 ) ;
#31 = EDGE_CURVE ( 'NONE', #642, #325, #205, .T. ) ;
#32 = ORIENTED_EDGE ( 'NONE', *, *, #176, .T. ) ;
#33 = CYLINDRICAL_SURFACE ( 'NONE', #582, 2.999999999999947153 ) ;
#34 = EDGE_LOOP ( 'NONE', ( #659, #152, #517, #427 ) ) ;
#35 = DIRECTION ( 'NONE',  ( 0.000000000000000000, 1.000000000000000000, -0.000000000000000000 ) ) ;
#36 = ORIENTED_EDGE ( 'NONE', *, *, #177, .T. ) ;
#37 = DIRECTION ( 'NONE',  ( 0.000000000000000000, 1.000000000000000000, 0.000000000000000000 ) ) ;
#38 = LINE ( 'NONE', #877, #93 ) ;
#39 = ORIENTED_EDGE ( 'NONE', *, *, #301, .T. ) ;
#40 = ADVANCED_FACE ( 'NONE', ( #91 ), #560, .T. ) ;
#41 = CIRCLE ( 'NONE', #553, 2.999999999999947153 ) ;
#42 = ADVANCED_FACE ( 'NONE', ( #266 ), #207, .F. ) ;
#43 = CARTESIAN_POINT ( 'NONE',  ( -7.869046880039910263, 4.900000000000000355, 1.162505770378935432 ) ) ;
#44 = AXIS2_PLACEMENT_3D ( 'NONE', #166, #432, #231 ) ;
#45 = CARTESIAN_POINT ( 'NONE',  ( 11.13970423613136873, -4.900000000000000355, 54.99999999999999289 ) ) ;
#46 = ORIENTED_EDGE ( 'NONE', *, *, #549, .T. ) ;
#47 = PLANE ( 'NONE',  #448 ) ;
#48 = EDGE_LOOP ( 'NONE', ( #39, #765, #316, #730 ) ) ;
#49 = DIRECTION ( 'NONE',  ( 0.000000000000000000, 1.000000000000000000, 0.000000000000000000 ) ) ;
#50 = EDGE_CURVE ( 'NONE', #378, #871, #564, .T. ) ;
#51 = CYLINDRICAL_SURFACE ( 'NONE', #164, 1.000000000000000888 ) ;
#52 = CARTESIAN_POINT ( 'NONE',  ( 65.07166878177208957, -4.900000000000000355, 267.1903048178104427 ) ) ;
#53 = EDGE_CURVE ( 'NONE', #818, #871, #41, .T. ) ;
#54 = ORIENTED_EDGE ( 'NONE', *, *, #103, .F. ) ;
#55 = VECTOR ( 'NONE', #56, 1000.000000000000000 ) ;
#56 = DIRECTION ( 'NONE',  ( 0.000000000000000000, 1.000000000000000000, 0.000000000000000000 ) ) ;
#57 = VECTOR ( 'NONE', #163, 1000.000000000000000 ) ;
#58 = VECTOR ( 'NONE', #579, 1000.000000000000000 ) ;
#59 = EDGE_CURVE ( 'NONE', #643, #807, #167, .T. ) ;
#60 = CARTESIAN_POINT ( 'NONE',  ( 65.07166878177208957, -4.900000000000000355, 267.1903048178104427 ) ) ;
#61 = FACE_OUTER_BOUND ( 'NONE', #48, .T. ) ;
#62 = EDGE_LOOP ( 'NONE', ( #300, #400, #182, #54 ) ) ;
#63 = DIRECTION ( 'NONE',  ( 0.000000000000000000, 1.000000000000000000, 0.000000000000000000 ) ) ;
#64 = ORIENTED_EDGE ( 'NONE', *, *, #354, .F. ) ;
#65 = ADVANCED_FACE ( 'NONE', ( #295 ), #857, .F. ) ;
#66 = CARTESIAN_POINT ( 'NONE',  ( 69.64582556081251141, -4.900000000000000355, 275.1094923514588118 ) ) ;
#67 = CARTESIAN_POINT ( 'NONE',  ( 63.57416762625883422, -4.900000000000000355, 274.5917652996274683 ) ) ;
#68 = DIRECTION ( 'NONE',  ( -0.9662235696024593645, 0.000000000000000000, -0.2577052842777609598 ) ) ;
#69 = DIRECTION ( 'NONE',  ( -0.2577052842777613484, 0.000000000000000000, 0.9662235696024590315 ) ) ;
#70 = DIRECTION ( 'NONE',  ( -0.9892631376004858978, 0.000000000000000000, 0.1461452858796417342 ) ) ;
#71 = ORIENTED_EDGE ( 'NONE', *, *, #53, .T. ) ;
#72 = EDGE_CURVE ( 'NONE', #125, #807, #201, .T. ) ;
#73 = CARTESIAN_POINT ( 'NONE',  ( 67.99846618472480486, -4.900000000000000355, 270.1802563347129649 ) ) ;
#74 = CARTESIAN_POINT ( 'NONE',  ( 0.000000000000000000, -4.900000000000000355, 292.0000000000000568 ) ) ;
#75 = VECTOR ( 'NONE', #148, 1000.000000000000000 ) ;
#76 = FILL_AREA_STYLE ('',( #417 ) ) ;
#77 = CIRCLE ( 'NONE', #277, 3.000000000000002665 ) ;
#78 = CARTESIAN_POINT ( 'NONE',  ( 64.93469114119788799, -4.900000000000000355, 292.7731158528332571 ) ) ;
#79 = CIRCLE ( 'NONE', #508, 3.000000000000002665 ) ;
#80 = ORIENTED_EDGE ( 'NONE', *, *, #176, .F. ) ;
#81 = VERTEX_POINT ( 'NONE', #18 ) ;
#82 = CARTESIAN_POINT ( 'NONE',  ( 17.36076295598575925, 4.900000000000000355, 151.4165540435108426 ) ) ;
#83 = CARTESIAN_POINT ( 'NONE',  ( 0.000000000000000000, 4.900000000000000355, 295.0000000000000568 ) ) ;
#84 = DIRECTION ( 'NONE',  ( -0.2577052842777609043, 0.000000000000000000, 0.9662235696024591425 ) ) ;
#85 = EDGE_LOOP ( 'NONE', ( #155, #19, #651, #798 ) ) ;
#86 = ORIENTED_EDGE ( 'NONE', *, *, #466, .F. ) ;
#87 = CARTESIAN_POINT ( 'NONE',  ( 63.10548954046073078, 4.900000000000000355, 267.7869171731126698 ) ) ;
#88 = ADVANCED_FACE ( 'NONE', ( #658 ), #574, .F. ) ;
#89 = EDGE_CURVE ( 'NONE', #288, #382, #501, .T. ) ;
#90 = EDGE_LOOP ( 'NONE', ( #607, #233, #541, #450 ) ) ;
#91 = FACE_OUTER_BOUND ( 'NONE', #96, .T. ) ;
#92 = CARTESIAN_POINT ( 'NONE',  ( -71.74019173779407765, 4.900000000000000355, 43.04411504267370958 ) ) ;
#93 = VECTOR ( 'NONE', #526, 1000.000000000000000 ) ;
#94 = CARTESIAN_POINT ( 'NONE',  ( 0.000000000000000000, -4.900000000000000355, 0.000000000000000000 ) ) ;
#95 = AXIS2_PLACEMENT_3D ( 'NONE', #291, #565, #833 ) ;
#96 = EDGE_LOOP ( 'NONE', ( #796, #190, #790, #758 ) ) ;
#97 = LINE ( 'NONE', #645, #868 ) ;
#98 = ORIENTED_EDGE ( 'NONE', *, *, #371, .T. ) ;
#99 = CARTESIAN_POINT ( 'NONE',  ( 14.13970423613136695, 4.900000000000000355, 54.99999999999999289 ) ) ;
#100 = VERTEX_POINT ( 'NONE', #99 ) ;
#101 = ORIENTED_EDGE ( 'NONE', *, *, #773, .T. ) ;
#102 = UNCERTAINTY_MEASURE_WITH_UNIT (LENGTH_MEASURE( 1.000000000000000082E-05 ), #855, 'distance_accuracy_value', 'NONE');
#103 = EDGE_CURVE ( 'NONE', #504, #378, #358, .T. ) ;
#104 = CARTESIAN_POINT ( 'NONE',  ( 314.1397042361314220, -4.900000000000000355, 107.5729682796171858 ) ) ;
#105 = ORIENTED_EDGE ( 'NONE', *, *, #12, .T. ) ;
#106 = DIRECTION ( 'NONE',  ( 0.4534887557701110516, 0.000000000000000000, 0.8912619976135393030 ) ) ;
#107 = AXIS2_PLACEMENT_3D ( 'NONE', #873, #324, #529 ) ;
#108 = ORIENTED_EDGE ( 'NONE', *, *, #154, .F. ) ;
#109 = VECTOR ( 'NONE', #157, 1000.000000000000000 ) ;
#110 = ORIENTED_EDGE ( 'NONE', *, *, #648, .T. ) ;
#111 = DIRECTION ( 'NONE',  ( 0.000000000000000000, 1.000000000000000000, 0.000000000000000000 ) ) ;
#112 = DIRECTION ( 'NONE',  ( 0.000000000000000000, 1.000000000000000000, 0.000000000000000000 ) ) ;
#113 = VERTEX_POINT ( 'NONE', #160 ) ;
#114 = ADVANCED_FACE ( 'NONE', ( #435 ), #33, .T. ) ;
#115 = EDGE_CURVE ( 'NONE', #172, #864, #738, .T. ) ;
#116 = ORIENTED_EDGE ( 'NONE', *, *, #573, .T. ) ;
#117 = CARTESIAN_POINT ( 'NONE',  ( 14.13970423613136873, 4.900000000000000355, 4.665606239185097795E-16 ) ) ;
#118 = DIRECTION ( 'NONE',  ( -0.5144957554275024769, 0.000000000000000000, -0.8574929257125585291 ) ) ;
#119 = FACE_OUTER_BOUND ( 'NONE', #392, .T. ) ;
#120 = ORIENTED_EDGE ( 'NONE', *, *, #227, .F. ) ;
#121 = CARTESIAN_POINT ( 'NONE',  ( 65.80543848331535628, 4.900000000000000355, 272.2868320778705993 ) ) ;
#122 = LINE ( 'NONE', #117, #733 ) ;
#123 = AXIS2_PLACEMENT_3D ( 'NONE', #415, #709, #477 ) ;
#124 = DIRECTION ( 'NONE',  ( 0.1461452858796416510, 0.000000000000000000, 0.9892631376004857868 ) ) ;
#125 = VERTEX_POINT ( 'NONE', #11 ) ;
#126 = EDGE_CURVE ( 'NONE', #220, #707, #21, .T. ) ;
#127 = CARTESIAN_POINT ( 'NONE',  ( 66.31186993339362346, 4.900000000000000355, 273.3649865593858408 ) ) ;
#128 = CARTESIAN_POINT ( 'NONE',  ( 0.000000000000000000, -4.900000000000000355, 295.0000000000000568 ) ) ;
#129 = VERTEX_POINT ( 'NONE', #849 ) ;
#130 = CARTESIAN_POINT ( 'NONE',  ( 314.1397042361314220, 4.900000000000000355, 107.5729682796171858 ) ) ;
#131 = DIRECTION ( 'NONE',  ( 0.000000000000000000, 0.000000000000000000, 1.000000000000000000 ) ) ;
#132 = EDGE_CURVE ( 'NONE', #236, #680, #77, .T. ) ;
#133 = DIRECTION ( 'NONE',  ( -0.5084499070690993161, 0.000000000000000000, -0.8610915700443386722 ) ) ;
#134 = ORIENTED_EDGE ( 'NONE', *, *, #591, .T. ) ;
#135 = AXIS2_PLACEMENT_3D ( 'NONE', #265, #891, #133 ) ;
#136 = CARTESIAN_POINT ( 'NONE',  ( 130.6243519498166279, -4.900000000000000355, 34.83933409601657161 ) ) ;
#137 = LINE ( 'NONE', #836, #571 ) ;
#138 = ORIENTED_EDGE ( 'NONE', *, *, #479, .F. ) ;
#139 = CARTESIAN_POINT ( 'NONE',  ( 11.13970423613136873, 4.900000000000000355, 54.99999999999999289 ) ) ;
#140 = CARTESIAN_POINT ( 'NONE',  ( -46.78921673784292068, 4.900000000000000355, 20.96649303941821074 ) ) ;
#141 = CARTESIAN_POINT ( 'NONE',  ( 0.000000000000000000, 4.900000000000000355, 54.99999999999999289 ) ) ;
#142 = ADVANCED_FACE ( 'NONE', ( #646 ), #304, .F. ) ;
#143 = VERTEX_POINT ( 'NONE', #318 ) ;
#144 = ORIENTED_EDGE ( 'NONE', *, *, #773, .F. ) ;
#145 = LINE ( 'NONE', #92, #309 ) ;
#146 = CARTESIAN_POINT ( 'NONE',  ( 130.6243519498166279, 4.900000000000000355, 34.83933409601657161 ) ) ;
#147 = CARTESIAN_POINT ( 'NONE',  ( -55.18628288814380767, 4.900000000000000355, 28.07968793635628657 ) ) ;
#148 = DIRECTION ( 'NONE',  ( 1.000000000000000000, -0.000000000000000000, 0.000000000000000000 ) ) ;
#149 = FACE_OUTER_BOUND ( 'NONE', #335, .T. ) ;
#150 = CIRCLE ( 'NONE', #259, 300.0000000000000568 ) ;
#151 = EDGE_LOOP ( 'NONE', ( #352, #32, #178, #748 ) ) ;
#152 = ORIENTED_EDGE ( 'NONE', *, *, #447, .T. ) ;
#153 = LINE ( 'NONE', #276, #423 ) ;
#154 = EDGE_CURVE ( 'NONE', #600, #100, #679, .T. ) ;
#155 = ORIENTED_EDGE ( 'NONE', *, *, #59, .T. ) ;
#156 = ORIENTED_EDGE ( 'NONE', *, *, #660, .F. ) ;
#157 = DIRECTION ( 'NONE',  ( 0.000000000000000000, 1.000000000000000000, 0.000000000000000000 ) ) ;
#158 = CARTESIAN_POINT ( 'NONE',  ( -55.18628288814380767, -4.900000000000000355, 28.07968793635628657 ) ) ;
#159 = CARTESIAN_POINT ( 'NONE',  ( 43.30809204199562146, -4.900000000000000355, 292.0000000000000568 ) ) ;
#160 = CARTESIAN_POINT ( 'NONE',  ( 65.93276035181645511, -4.900000000000000355, 266.6818549107413219 ) ) ;
#161 = ORIENTED_EDGE ( 'NONE', *, *, #886, .F. ) ;
#162 = AXIS2_PLACEMENT_3D ( 'NONE', #171, #650, #308 ) ;
#163 = DIRECTION ( 'NONE',  ( 0.000000000000000000, 0.000000000000000000, 1.000000000000000000 ) ) ;
#164 = AXIS2_PLACEMENT_3D ( 'NONE', #60, #705, #264 ) ;
#165 = ORIENTED_EDGE ( 'NONE', *, *, #322, .F. ) ;
#166 = CARTESIAN_POINT ( 'NONE',  ( 40.71872623526564894, 4.900000000000000355, 289.0000000000000568 ) ) ;
#167 = LINE ( 'NONE', #843, #374 ) ;
#168 = ORIENTED_EDGE ( 'NONE', *, *, #633, .T. ) ;
#169 = PRODUCT_DEFINITION_SHAPE ( 'NONE', 'NONE',  #30 ) ;
#170 = DIRECTION ( 'NONE',  ( -2.775557561562888827E-14, 0.000000000000000000, 1.000000000000000000 ) ) ;
#171 = CARTESIAN_POINT ( 'NONE',  ( 133.5230226586241429, -4.900000000000000355, 35.61244994884994952 ) ) ;
#172 = VERTEX_POINT ( 'NONE', #596 ) ;
#173 = CARTESIAN_POINT ( 'NONE',  ( 66.74715485200513854, -4.900000000000000355, 274.3363764986254409 ) ) ;
#174 = VECTOR ( 'NONE', #198, 1000.000000000000000 ) ;
#175 = EDGE_LOOP ( 'NONE', ( #530, #663, #559, #788 ) ) ;
#176 = EDGE_CURVE ( 'NONE', #419, #785, #187, .T. ) ;
#177 = EDGE_CURVE ( 'NONE', #453, #439, #817, .T. ) ;
#178 = ORIENTED_EDGE ( 'NONE', *, *, #872, .F. ) ;
#179 = DIRECTION ( 'NONE',  ( 0.8574929257125655235, 0.000000000000000000, -0.5144957554274910416 ) ) ;
#180 = ORIENTED_EDGE ( 'NONE', *, *, #31, .T. ) ;
#181 = CARTESIAN_POINT ( 'NONE',  ( 14.13970423613136695, -4.900000000000000355, 54.99999999999999289 ) ) ;
#182 = ORIENTED_EDGE ( 'NONE', *, *, #50, .F. ) ;
#183 = DIRECTION ( 'NONE',  ( -0.9892631376004858978, 0.000000000000000000, 0.1461452858796416787 ) ) ;
#184 = ADVANCED_FACE ( 'NONE', ( #380 ), #603, .F. ) ;
#185 = ORIENTED_EDGE ( 'NONE', *, *, #803, .F. ) ;
#186 = AXIS2_PLACEMENT_3D ( 'NONE', #470, #675, #454 ) ;
#187 = CIRCLE ( 'NONE', #186, 3.000000000000002665 ) ;
#188 = CARTESIAN_POINT ( 'NONE',  ( 63.10548954046073078, -4.900000000000000355, 267.7869171731126698 ) ) ;
#189 = PLANE ( 'NONE',  #493 ) ;
#190 = ORIENTED_EDGE ( 'NONE', *, *, #239, .F. ) ;
#191 = EDGE_CURVE ( 'NONE', #113, #643, #810, .T. ) ;
#192 = DIRECTION ( 'NONE',  ( -0.2577052842777613484, 0.000000000000000000, 0.9662235696024590315 ) ) ;
#193 = DIRECTION ( 'NONE',  ( 0.000000000000000000, 0.000000000000000000, 1.000000000000000000 ) ) ;
#194 = DIRECTION ( 'NONE',  ( 0.8574929257125655235, 0.000000000000000000, -0.5144957554274910416 ) ) ;
#195 = ORIENTED_EDGE ( 'NONE', *, *, #249, .F. ) ;
#196 = CARTESIAN_POINT ( 'NONE',  ( 130.6243519498166279, -4.900000000000000355, 34.83933409601657161 ) ) ;
#197 = DIRECTION ( 'NONE',  ( -0.000000000000000000, -1.000000000000000000, 0.000000000000000000 ) ) ;
#198 = DIRECTION ( 'NONE',  ( 0.000000000000000000, 1.000000000000000000, 0.000000000000000000 ) ) ;
#199 = VECTOR ( 'NONE', #890, 1000.000000000000000 ) ;
#200 = DIRECTION ( 'NONE',  ( 1.000000000000000000, -0.000000000000000000, 0.000000000000000000 ) ) ;
#201 = CIRCLE ( 'NONE', #532, 1.000000000000000888 ) ;
#202 = VECTOR ( 'NONE', #210, 1000.000000000000114 ) ;
#203 = DIRECTION ( 'NONE',  ( 0.000000000000000000, 1.000000000000000000, 0.000000000000000000 ) ) ;
#204 = ADVANCED_FACE ( 'NONE', ( #742 ), #464, .F. ) ;
#205 = LINE ( 'NONE', #430, #654 ) ;
#206 = DIRECTION ( 'NONE',  ( 0.1461452858796416787, 0.000000000000000000, 0.9892631376004857868 ) ) ;
#207 = PLANE ( 'NONE',  #319 ) ;
#208 = CARTESIAN_POINT ( 'NONE',  ( 14.39297354318430600, -4.900000000000000355, 151.8549899011498212 ) ) ;
#209 = CARTESIAN_POINT ( 'NONE',  ( 11.13970423613136873, 4.900000000000000355, 0.000000000000000000 ) ) ;
#210 = DIRECTION ( 'NONE',  ( -0.4089262467471937446, 0.000000000000000000, -0.9125674357116043689 ) ) ;
#211 = LINE ( 'NONE', #146, #360 ) ;
#212 = ORIENTED_EDGE ( 'NONE', *, *, #216, .T. ) ;
#213 = EDGE_LOOP ( 'NONE', ( #98, #580, #108, #696 ) ) ;
#214 = ADVANCED_FACE ( 'NONE', ( #870 ), #189, .F. ) ;
#215 = CARTESIAN_POINT ( 'NONE',  ( 14.13970423613136873, -4.900000000000000355, 4.665606239185097795E-16 ) ) ;
#216 = EDGE_CURVE ( 'NONE', #439, #807, #662, .T. ) ;
#217 = VECTOR ( 'NONE', #63, 1000.000000000000000 ) ;
#218 = STYLED_ITEM ( 'NONE', ( #585 ), #615 ) ;
#219 = DIRECTION ( 'NONE',  ( -1.000000000000000000, 0.000000000000000000, 0.000000000000000000 ) ) ;
#220 = VERTEX_POINT ( 'NONE', #45 ) ;
#221 = ADVANCED_FACE ( 'NONE', ( #119 ), #47, .T. ) ;
#222 = DIRECTION ( 'NONE',  ( 0.8574929257125655235, 0.000000000000000000, -0.5144957554274910416 ) ) ;
#223 = DIRECTION ( 'NONE',  ( 0.000000000000000000, 1.000000000000000000, 0.000000000000000000 ) ) ;
#224 = ORIENTED_EDGE ( 'NONE', *, *, #621, .F. ) ;
#225 = DIRECTION ( 'NONE',  ( 0.000000000000000000, 1.000000000000000000, 0.000000000000000000 ) ) ;
#226 = VERTEX_POINT ( 'NONE', #387 ) ;
#227 = EDGE_CURVE ( 'NONE', #519, #439, #776, .T. ) ;
#228 = EDGE_LOOP ( 'NONE', ( #471, #328, #746, #722 ) ) ;
#229 = FACE_OUTER_BOUND ( 'NONE', #878, .T. ) ;
#230 = PRODUCT_RELATED_PRODUCT_CATEGORY ( 'part', '', ( #874 ) ) ;
#231 = DIRECTION ( 'NONE',  ( 0.000000000000000000, 0.000000000000000000, 1.000000000000000000 ) ) ;
#232 = VECTOR ( 'NONE', #639, 1000.000000000000000 ) ;
#233 = ORIENTED_EDGE ( 'NONE', *, *, #268, .F. ) ;
#234 = SHAPE_DEFINITION_REPRESENTATION ( #169, #333 ) ;
#235 = DIRECTION ( 'NONE',  ( 0.000000000000000000, 0.000000000000000000, 1.000000000000000000 ) ) ;
#236 = VERTEX_POINT ( 'NONE', #695 ) ;
#237 = CARTESIAN_POINT ( 'NONE',  ( 40.71872623526564894, -4.900000000000000355, 289.0000000000000568 ) ) ;
#238 = ORIENTED_EDGE ( 'NONE', *, *, #737, .T. ) ;
#239 = EDGE_CURVE ( 'NONE', #732, #741, #605, .T. ) ;
#240 = EDGE_CURVE ( 'NONE', #143, #741, #686, .T. ) ;
#241 = ORIENTED_EDGE ( 'NONE', *, *, #829, .F. ) ;
#242 = CARTESIAN_POINT ( 'NONE',  ( 134.5884334005386336, -4.900000000000000355, 224.3140556675854498 ) ) ;
#243 = AXIS2_PLACEMENT_3D ( 'NONE', #629, #332, #820 ) ;
#244 = EDGE_LOOP ( 'NONE', ( #458, #665, #793, #283 ) ) ;
#245 = AXIS2_PLACEMENT_3D ( 'NONE', #513, #794, #170 ) ;
#246 = DIRECTION ( 'NONE',  ( -0.000000000000000000, 0.000000000000000000, 1.000000000000000000 ) ) ;
#247 = ORIENTED_EDGE ( 'NONE', *, *, #735, .T. ) ;
#248 = LINE ( 'NONE', #598, #780 ) ;
#249 = EDGE_CURVE ( 'NONE', #370, #340, #137, .T. ) ;
#250 = CARTESIAN_POINT ( 'NONE',  ( 63.23295970617768802, -4.900000000000000355, 273.8303193441531675 ) ) ;
#251 = EDGE_LOOP ( 'NONE', ( #485, #578, #428, #161, #364, #673, #522, #726, #588, #786, #241, #22, #814, #875, #16, #506, #255, #821, #452, #552, #858, #351, #739, #116, #700 ) ) ;
#252 = DIRECTION ( 'NONE',  ( -3.299649102463553885E-17, 0.000000000000000000, 1.000000000000000000 ) ) ;
#253 = ADVANCED_FACE ( 'NONE', ( #706 ), #398, .T. ) ;
#254 = AXIS2_PLACEMENT_3D ( 'NONE', #880, #523, #876 ) ;
#255 = ORIENTED_EDGE ( 'NONE', *, *, #534, .T. ) ;
#256 = VECTOR ( 'NONE', #179, 1000.000000000000114 ) ;
#257 = AXIS2_PLACEMENT_3D ( 'NONE', #781, #827, #575 ) ;
#258 = CARTESIAN_POINT ( 'NONE',  ( 69.42094084484564576, -4.900000000000000355, 272.9759102313150834 ) ) ;
#259 = AXIS2_PLACEMENT_3D ( 'NONE', #130, #681, #267 ) ;
#260 = CARTESIAN_POINT ( 'NONE',  ( 66.47283833506619999, -4.900000000000000355, 275.3648811524607822 ) ) ;
#261 = ORIENTED_EDGE ( 'NONE', *, *, #268, .T. ) ;
#262 = DIRECTION ( 'NONE',  ( -0.5084499070690993161, 0.000000000000000000, -0.8610915700443386722 ) ) ;
#263 = FACE_OUTER_BOUND ( 'NONE', #90, .T. ) ;
#264 = DIRECTION ( 'NONE',  ( 0.000000000000000000, 0.000000000000000000, 1.000000000000000000 ) ) ;
#265 = CARTESIAN_POINT ( 'NONE',  ( -67.87142717848148266, -4.900000000000000355, 40.07613364484467411 ) ) ;
#266 = FACE_OUTER_BOUND ( 'NONE', #213, .T. ) ;
#267 = DIRECTION ( 'NONE',  ( 0.000000000000000000, 0.000000000000000000, 1.000000000000000000 ) ) ;
#268 = EDGE_CURVE ( 'NONE', #419, #805, #211, .T. ) ;
#269 = LINE ( 'NONE', #147, #854 ) ;
#270 = DIRECTION ( 'NONE',  ( 1.000000000000000000, 0.000000000000000000, 0.000000000000000000 ) ) ;
#271 = EDGE_CURVE ( 'NONE', #370, #440, #293, .T. ) ;
#272 = CARTESIAN_POINT ( 'NONE',  ( 14.13970423613136695, -4.900000000000000355, 54.99999999999999289 ) ) ;
#273 = LINE ( 'NONE', #830, #824 ) ;
#274 = DIRECTION ( 'NONE',  ( 0.000000000000000000, 0.000000000000000000, 1.000000000000000000 ) ) ;
#275 = CARTESIAN_POINT ( 'NONE',  ( 62.03602043239044406, 4.900000000000000355, 295.0000000000000568 ) ) ;
#276 = CARTESIAN_POINT ( 'NONE',  ( 134.5884334005386336, -4.900000000000000355, 224.3140556675854498 ) ) ;
#277 = AXIS2_PLACEMENT_3D ( 'NONE', #505, #721, #367 ) ;
#278 = AXIS2_PLACEMENT_3D ( 'NONE', #361, #17, #848 ) ;
#279 = CARTESIAN_POINT ( 'NONE',  ( 37.37251321639265456, -4.900000000000000355, 286.8768717152777867 ) ) ;
#280 = LINE ( 'NONE', #483, #437 ) ;
#281 = DIRECTION ( 'NONE',  ( 0.000000000000000000, 1.000000000000000000, 0.000000000000000000 ) ) ;
#282 = FACE_OUTER_BOUND ( 'NONE', #62, .T. ) ;
#283 = ORIENTED_EDGE ( 'NONE', *, *, #819, .T. ) ;
#284 = CARTESIAN_POINT ( 'NONE',  ( 17.36076295598575925, -4.900000000000000355, 151.4165540435108426 ) ) ;
#285 = FACE_OUTER_BOUND ( 'NONE', #175, .T. ) ;
#286 = CYLINDRICAL_SURFACE ( 'NONE', #386, 6.000000000000005329 ) ;
#287 = DIRECTION ( 'NONE',  ( 0.000000000000000000, 0.000000000000000000, 1.000000000000000000 ) ) ;
#288 = VERTEX_POINT ( 'NONE', #355 ) ;
#289 = ORIENTED_EDGE ( 'NONE', *, *, #872, .T. ) ;
#290 = LINE ( 'NONE', #838, #109 ) ;
#291 = CARTESIAN_POINT ( 'NONE',  ( -46.78921673784292068, -4.900000000000000355, 20.96649303941821074 ) ) ;
#292 = PRODUCT_CONTEXT ( 'NONE', #543, 'mechanical' ) ;
#293 = CIRCLE ( 'NONE', #799, 6.000000000000005329 ) ;
#294 = DIRECTION ( 'NONE',  ( 0.000000000000000000, 1.000000000000000000, 0.000000000000000000 ) ) ;
#295 = FACE_OUTER_BOUND ( 'NONE', #251, .T. ) ;
#296 = CARTESIAN_POINT ( 'NONE',  ( 63.27698812560326758, -4.900000000000000355, 267.1009228325426648 ) ) ;
#297 = ADVANCED_FACE ( 'NONE', ( #472 ), #634, .T. ) ;
#298 = EDGE_LOOP ( 'NONE', ( #772, #46, #502, #412 ) ) ;
#299 = CARTESIAN_POINT ( 'NONE',  ( 11.13970423613136873, -4.900000000000000355, -0.000000000000000000 ) ) ;
#300 = ORIENTED_EDGE ( 'NONE', *, *, #618, .T. ) ;
#301 = EDGE_CURVE ( 'NONE', #113, #125, #343, .T. ) ;
#302 = CARTESIAN_POINT ( 'NONE',  ( 67.99846618472480486, -4.900000000000000355, 270.1802563347129649 ) ) ;
#303 = EDGE_CURVE ( 'NONE', #495, #81, #480, .T. ) ;
#304 = PLANE ( 'NONE',  #791 ) ;
#305 = EDGE_LOOP ( 'NONE', ( #862, #515, #826, #717 ) ) ;
#306 = VECTOR ( 'NONE', #112, 1000.000000000000000 ) ;
#307 = MECHANICAL_DESIGN_GEOMETRIC_PRESENTATION_REPRESENTATION (  '', ( #218 ), #839 ) ;
#308 = DIRECTION ( 'NONE',  ( -0.2577052842777613484, 0.000000000000000000, 0.9662235696024590315 ) ) ;
#309 = VECTOR ( 'NONE', #431, 999.9999999999998863 ) ;
#310 = ORIENTED_EDGE ( 'NONE', *, *, #303, .F. ) ;
#311 = ADVANCED_FACE ( 'NONE', ( #61 ), #757, .T. ) ;
#312 = ORIENTED_EDGE ( 'NONE', *, *, #50, .T. ) ;
#313 = ORIENTED_EDGE ( 'NONE', *, *, #15, .T. ) ;
#314 = ORIENTED_EDGE ( 'NONE', *, *, #602, .F. ) ;
#315 = DIRECTION ( 'NONE',  ( 0.000000000000000000, 0.000000000000000000, 1.000000000000000000 ) ) ;
#316 = ORIENTED_EDGE ( 'NONE', *, *, #618, .F. ) ;
#317 = CIRCLE ( 'NONE', #823, 3.000000000000002665 ) ;
#318 = CARTESIAN_POINT ( 'NONE',  ( 64.93469114119788799, -4.900000000000000355, 292.7731158528332571 ) ) ;
#319 = AXIS2_PLACEMENT_3D ( 'NONE', #486, #778, #2 ) ;
#320 = ORIENTED_EDGE ( 'NONE', *, *, #573, .F. ) ;
#321 = VECTOR ( 'NONE', #512, 1000.000000000000000 ) ;
#322 = EDGE_CURVE ( 'NONE', #850, #581, #641, .T. ) ;
#323 = LINE ( 'NONE', #74, #531 ) ;
#324 = DIRECTION ( 'NONE',  ( -0.000000000000000000, -1.000000000000000000, 0.000000000000000000 ) ) ;
#325 = VERTEX_POINT ( 'NONE', #762 ) ;
#326 = EDGE_CURVE ( 'NONE', #516, #100, #339, .T. ) ;
#327 = CARTESIAN_POINT ( 'NONE',  ( 63.27698812560326758, -4.900000000000000355, 267.1009228325426648 ) ) ;
#328 = ORIENTED_EDGE ( 'NONE', *, *, #723, .T. ) ;
#329 = VECTOR ( 'NONE', #725, 1000.000000000000000 ) ;
#330 = CARTESIAN_POINT ( 'NONE',  ( 63.23295970617768802, -4.900000000000000355, 273.8303193441531675 ) ) ;
#331 = DIRECTION ( 'NONE',  ( -0.4089262467471937446, 0.000000000000000000, -0.9125674357116043689 ) ) ;
#332 = DIRECTION ( 'NONE',  ( 0.000000000000000000, 1.000000000000000000, -0.000000000000000000 ) ) ;
#333 = ADVANCED_BREP_SHAPE_REPRESENTATION ( 'Arm', ( #615, #653 ), #551 ) ;
#334 = EDGE_CURVE ( 'NONE', #636, #519, #273, .T. ) ;
#335 = EDGE_LOOP ( 'NONE', ( #445, #887, #224, #27 ) ) ;
#336 = DIRECTION ( 'NONE',  ( 0.000000000000000000, 0.000000000000000000, 1.000000000000000000 ) ) ;
#337 = LINE ( 'NONE', #769, #55 ) ;
#338 = CARTESIAN_POINT ( 'NONE',  ( 40.71872623526568447, 4.900000000000000355, 295.0000000000000568 ) ) ;
#339 = LINE ( 'NONE', #141, #761 ) ;
#340 = VERTEX_POINT ( 'NONE', #411 ) ;
#341 = CARTESIAN_POINT ( 'NONE',  ( 66.47283833506619999, 4.900000000000000355, 275.3648811524607822 ) ) ;
#342 =( LENGTH_UNIT ( ) NAMED_UNIT ( * ) SI_UNIT ( .MILLI., .METRE. ) );
#343 = LINE ( 'NONE', #894, #8 ) ;
#344 = VERTEX_POINT ( 'NONE', #623 ) ;
#345 = LINE ( 'NONE', #215, #811 ) ;
#346 = LINE ( 'NONE', #209, #199 ) ;
#347 = CIRCLE ( 'NONE', #669, 303.0000000000000568 ) ;
#348 = AXIS2_PLACEMENT_3D ( 'NONE', #237, #111, #10 ) ;
#349 = SURFACE_STYLE_FILL_AREA ( #76 ) ;
#350 = DIRECTION ( 'NONE',  ( 0.000000000000000000, 1.000000000000000000, 0.000000000000000000 ) ) ;
#351 = ORIENTED_EDGE ( 'NONE', *, *, #861, .T. ) ;
#352 = ORIENTED_EDGE ( 'NONE', *, *, #457, .T. ) ;
#353 = DIRECTION ( 'NONE',  ( 0.000000000000000000, 0.000000000000000000, 1.000000000000000000 ) ) ;
#354 = EDGE_CURVE ( 'NONE', #366, #597, #280, .T. ) ;
#355 = CARTESIAN_POINT ( 'NONE',  ( 65.80543848331535628, -4.900000000000000355, 272.2868320778705993 ) ) ;
#356 = FACE_OUTER_BOUND ( 'NONE', #244, .T. ) ;
#357 = ORIENTED_EDGE ( 'NONE', *, *, #591, .F. ) ;
#358 = LINE ( 'NONE', #731, #626 ) ;
#359 = DIRECTION ( 'NONE',  ( 0.1461452858796416787, 0.000000000000000000, 0.9892631376004857868 ) ) ;
#360 = VECTOR ( 'NONE', #84, 1000.000000000000114 ) ;
#361 = CARTESIAN_POINT ( 'NONE',  ( 314.1397042361314220, -4.900000000000000355, 107.5729682796174274 ) ) ;
#362 = CARTESIAN_POINT ( 'NONE',  ( 65.97066201331253410, -4.900000000000000355, 272.6035406039116538 ) ) ;
#363 = EDGE_CURVE ( 'NONE', #636, #453, #867, .T. ) ;
#364 = ORIENTED_EDGE ( 'NONE', *, *, #103, .T. ) ;
#365 = SURFACE_STYLE_USAGE ( .BOTH. , #490 ) ;
#366 = VERTEX_POINT ( 'NONE', #433 ) ;
#367 = DIRECTION ( 'NONE',  ( 0.000000000000000000, 0.000000000000000000, 1.000000000000000000 ) ) ;
#368 = VERTEX_POINT ( 'NONE', #503 ) ;
#369 = PLANE ( 'NONE',  #254 ) ;
#370 = VERTEX_POINT ( 'NONE', #859 ) ;
#371 = EDGE_CURVE ( 'NONE', #220, #516, #97, .T. ) ;
#372 = VECTOR ( 'NONE', #815, 1000.000000000000000 ) ;
#373 = LINE ( 'NONE', #302, #58 ) ;
#374 = VECTOR ( 'NONE', #225, 1000.000000000000000 ) ;
#375 = CIRCLE ( 'NONE', #463, 3.000000000000002665 ) ;
#376 = VECTOR ( 'NONE', #49, 1000.000000000000000 ) ;
#377 = ORIENTED_EDGE ( 'NONE', *, *, #414, .F. ) ;
#378 = VERTEX_POINT ( 'NONE', #258 ) ;
#379 = CARTESIAN_POINT ( 'NONE',  ( 314.1397042361314220, -4.900000000000000355, 107.5729682796171858 ) ) ;
#380 = FACE_OUTER_BOUND ( 'NONE', #298, .T. ) ;
#381 = EDGE_CURVE ( 'NONE', #236, #340, #459, .T. ) ;
#382 = VERTEX_POINT ( 'NONE', #121 ) ;
#383 = DIRECTION ( 'NONE',  ( 0.000000000000000000, 1.000000000000000000, -0.000000000000000000 ) ) ;
#384 = CARTESIAN_POINT ( 'NONE',  ( 62.62996145210227183, 4.900000000000000355, 289.7731158528332571 ) ) ;
#385 = DIRECTION ( 'NONE',  ( 1.000000000000000000, -0.000000000000000000, 0.000000000000000000 ) ) ;
#386 = AXIS2_PLACEMENT_3D ( 'NONE', #644, #223, #20 ) ;
#387 = CARTESIAN_POINT ( 'NONE',  ( 66.31186993339362346, -4.900000000000000355, 273.3649865593858408 ) ) ;
#388 = AXIS2_PLACEMENT_3D ( 'NONE', #426, #557, #771 ) ;
#389 = ORIENTED_EDGE ( 'NONE', *, *, #803, .T. ) ;
#390 = EDGE_CURVE ( 'NONE', #818, #741, #822, .T. ) ;
#391 = EDGE_CURVE ( 'NONE', #129, #143, #687, .T. ) ;
#392 = EDGE_LOOP ( 'NONE', ( #313, #462, #64, #110 ) ) ;
#393 = CARTESIAN_POINT ( 'NONE',  ( 14.39297354318430600, 4.900000000000000355, 151.8549899011498212 ) ) ;
#394 = CARTESIAN_POINT ( 'NONE',  ( -4.901257467238443688, -4.900000000000000355, 0.7240699127400085366 ) ) ;
#395 = FACE_OUTER_BOUND ( 'NONE', #895, .T. ) ;
#396 = LINE ( 'NONE', #416, #897 ) ;
#397 = ADVANCED_FACE ( 'NONE', ( #395 ), #682, .F. ) ;
#398 = PLANE ( 'NONE',  #685 ) ;
#399 = EDGE_CURVE ( 'NONE', #368, #871, #269, .T. ) ;
#400 = ORIENTED_EDGE ( 'NONE', *, *, #399, .T. ) ;
#401 = AXIS2_PLACEMENT_3D ( 'NONE', #899, #219, #406 ) ;
#402 = CIRCLE ( 'NONE', #123, 6.000000000000005329 ) ;
#403 = CARTESIAN_POINT ( 'NONE',  ( 62.03602043239045827, -4.900000000000000355, 292.0000000000000568 ) ) ;
#404 = DIRECTION ( 'NONE',  ( 0.1461452858796417342, 0.000000000000000000, 0.9892631376004857868 ) ) ;
#405 = DIRECTION ( 'NONE',  ( -0.2577052842777609043, 0.000000000000000000, 0.9662235696024591425 ) ) ;
#406 = DIRECTION ( 'NONE',  ( 0.000000000000000000, 0.000000000000000000, 1.000000000000000000 ) ) ;
#407 = LINE ( 'NONE', #561, #28 ) ;
#408 = DIRECTION ( 'NONE',  ( 0.000000000000000000, 0.000000000000000000, 1.000000000000000000 ) ) ;
#409 = LINE ( 'NONE', #622, #592 ) ;
#410 = LINE ( 'NONE', #694, #627 ) ;
#411 = CARTESIAN_POINT ( 'NONE',  ( 59.73129074329483501, 4.900000000000000355, 292.0000000000000568 ) ) ;
#412 = ORIENTED_EDGE ( 'NONE', *, *, #132, .F. ) ;
#413 = VERTEX_POINT ( 'NONE', #13 ) ;
#414 = EDGE_CURVE ( 'NONE', #535, #440, #407, .T. ) ;
#415 = CARTESIAN_POINT ( 'NONE',  ( 43.30809204199557882, -4.900000000000000355, 286.0000000000000568 ) ) ;
#416 = CARTESIAN_POINT ( 'NONE',  ( -7.869046880039910263, -4.900000000000000355, 1.162505770378935432 ) ) ;
#417 = FILL_AREA_STYLE_COLOUR ( '', #719 ) ;
#418 = VERTEX_POINT ( 'NONE', #66 ) ;
#419 = VERTEX_POINT ( 'NONE', #341 ) ;
#420 = LINE ( 'NONE', #702, #779 ) ;
#421 = AXIS2_PLACEMENT_3D ( 'NONE', #533, #801, #747 ) ;
#422 = CARTESIAN_POINT ( 'NONE',  ( -67.87142717848148266, -4.900000000000000355, 40.07613364484467411 ) ) ;
#423 = VECTOR ( 'NONE', #222, 1000.000000000000114 ) ;
#424 = LINE ( 'NONE', #539, #425 ) ;
#425 = VECTOR ( 'NONE', #544, 999.9999999999998863 ) ;
#426 = CARTESIAN_POINT ( 'NONE',  ( 62.03602043239045827, 4.900000000000000355, 292.0000000000000568 ) ) ;
#427 = ORIENTED_EDGE ( 'NONE', *, *, #677, .F. ) ;
#428 = ORIENTED_EDGE ( 'NONE', *, *, #191, .F. ) ;
#429 = ORIENTED_EDGE ( 'NONE', *, *, #443, .F. ) ;
#430 = CARTESIAN_POINT ( 'NONE',  ( 34.78314740966270335, -4.900000000000000355, 289.8768717152777867 ) ) ;
#431 = DIRECTION ( 'NONE',  ( -0.5144957554275024769, 0.000000000000000000, -0.8574929257125586402 ) ) ;
#432 = DIRECTION ( 'NONE',  ( 0.000000000000000000, 1.000000000000000000, -0.000000000000000000 ) ) ;
#433 = CARTESIAN_POINT ( 'NONE',  ( 40.71872623526568447, -4.900000000000000355, 295.0000000000000568 ) ) ;
#434 = CYLINDRICAL_SURFACE ( 'NONE', #278, 303.0000000000000568 ) ;
#435 = FACE_OUTER_BOUND ( 'NONE', #630, .T. ) ;
#436 = VERTEX_POINT ( 'NONE', #208 ) ;
#437 = VECTOR ( 'NONE', #294, 1000.000000000000000 ) ;
#438 = CIRCLE ( 'NONE', #44, 6.000000000000005329 ) ;
#439 = VERTEX_POINT ( 'NONE', #784 ) ;
#440 = VERTEX_POINT ( 'NONE', #901 ) ;
#441 = DIRECTION ( 'NONE',  ( 0.000000000000000000, 0.000000000000000000, 1.000000000000000000 ) ) ;
#442 = ORIENTED_EDGE ( 'NONE', *, *, #866, .T. ) ;
#443 = EDGE_CURVE ( 'NONE', #707, #850, #637, .T. ) ;
#444 = CARTESIAN_POINT ( 'NONE',  ( 65.80543848331535628, -4.900000000000000355, 272.2868320778705993 ) ) ;
#445 = ORIENTED_EDGE ( 'NONE', *, *, #660, .T. ) ;
#446 = FACE_OUTER_BOUND ( 'NONE', #594, .T. ) ;
#447 = EDGE_CURVE ( 'NONE', #382, #519, #145, .T. ) ;
#448 = AXIS2_PLACEMENT_3D ( 'NONE', #128, #246, #599 ) ;
#449 = DIRECTION ( 'NONE',  ( 0.000000000000000000, 1.000000000000000000, 0.000000000000000000 ) ) ;
#450 = ORIENTED_EDGE ( 'NONE', *, *, #586, .T. ) ;
#451 = PRODUCT_DEFINITION_CONTEXT ( 'detailed design', #638, 'design' ) ;
#452 = ORIENTED_EDGE ( 'NONE', *, *, #806, .T. ) ;
#453 = VERTEX_POINT ( 'NONE', #296 ) ;
#454 = DIRECTION ( 'NONE',  ( 0.000000000000000000, 0.000000000000000000, 1.000000000000000000 ) ) ;
#455 = EDGE_LOOP ( 'NONE', ( #481, #165, #429, #782 ) ) ;
#456 = FACE_OUTER_BOUND ( 'NONE', #228, .T. ) ;
#457 = EDGE_CURVE ( 'NONE', #744, #419, #835, .T. ) ;
#458 = ORIENTED_EDGE ( 'NONE', *, *, #354, .T. ) ;
#459 = LINE ( 'NONE', #537, #476 ) ;
#460 = DIRECTION ( 'NONE',  ( 0.000000000000000000, 1.000000000000000000, -0.000000000000000000 ) ) ;
#461 = AXIS2_PLACEMENT_3D ( 'NONE', #893, #482, #408 ) ;
#462 = ORIENTED_EDGE ( 'NONE', *, *, #866, .F. ) ;
#463 = AXIS2_PLACEMENT_3D ( 'NONE', #713, #766, #353 ) ;
#464 = CYLINDRICAL_SURFACE ( 'NONE', #593, 3.000000000000002665 ) ;
#465 = ORIENTED_EDGE ( 'NONE', *, *, #326, .F. ) ;
#466 = EDGE_CURVE ( 'NONE', #453, #643, #153, .T. ) ;
#467 = LINE ( 'NONE', #422, #624 ) ;
#468 = LINE ( 'NONE', #684, #883 ) ;
#469 = PLANE ( 'NONE',  #671 ) ;
#470 = CARTESIAN_POINT ( 'NONE',  ( 63.57416762625883422, 4.900000000000000355, 274.5917652996274683 ) ) ;
#471 = ORIENTED_EDGE ( 'NONE', *, *, #303, .T. ) ;
#472 = FACE_OUTER_BOUND ( 'NONE', #305, .T. ) ;
#473 = AXIS2_PLACEMENT_3D ( 'NONE', #548, #489, #693 ) ;
#474 = ORIENTED_EDGE ( 'NONE', *, *, #845, .T. ) ;
#475 = AXIS2_PLACEMENT_3D ( 'NONE', #94, #795, #792 ) ;
#476 = VECTOR ( 'NONE', #889, 1000.000000000000000 ) ;
#477 = DIRECTION ( 'NONE',  ( 0.000000000000000000, 0.000000000000000000, 1.000000000000000000 ) ) ;
#478 = PLANE ( 'NONE',  #808 ) ;
#479 = EDGE_CURVE ( 'NONE', #600, #495, #345, .T. ) ;
#480 = LINE ( 'NONE', #567, #520 ) ;
#481 = ORIENTED_EDGE ( 'NONE', *, *, #888, .T. ) ;
#482 = DIRECTION ( 'NONE',  ( 0.000000000000000000, 1.000000000000000000, -0.000000000000000000 ) ) ;
#483 = CARTESIAN_POINT ( 'NONE',  ( 40.71872623526568447, -4.900000000000000355, 295.0000000000000568 ) ) ;
#484 = ADVANCED_FACE ( 'NONE', ( #285 ), #844, .T. ) ;
#485 = ORIENTED_EDGE ( 'NONE', *, *, #363, .T. ) ;
#486 = CARTESIAN_POINT ( 'NONE',  ( 0.000000000000000000, -4.900000000000000355, 54.99999999999999289 ) ) ;
#487 = ADVANCED_FACE ( 'NONE', ( #7 ), #692, .F. ) ;
#488 = PLANE ( 'NONE',  #764 ) ;
#489 = DIRECTION ( 'NONE',  ( 0.000000000000000000, 1.000000000000000000, -0.000000000000000000 ) ) ;
#490 = SURFACE_SIDE_STYLE ('',( #349 ) ) ;
#491 = DIRECTION ( 'NONE',  ( 0.000000000000000000, 0.000000000000000000, 1.000000000000000000 ) ) ;
#492 = VECTOR ( 'NONE', #683, 1000.000000000000000 ) ;
#493 = AXIS2_PLACEMENT_3D ( 'NONE', #242, #753, #194 ) ;
#494 = AXIS2_PLACEMENT_3D ( 'NONE', #104, #383, #727 ) ;
#495 = VERTEX_POINT ( 'NONE', #497 ) ;
#496 = ORIENTED_EDGE ( 'NONE', *, *, #240, .F. ) ;
#497 = CARTESIAN_POINT ( 'NONE',  ( 14.13970423613136518, -4.900000000000000355, 107.5729682796162621 ) ) ;
#498 = DIRECTION ( 'NONE',  ( 1.000000000000000000, 0.000000000000000000, 0.000000000000000000 ) ) ;
#499 = EDGE_CURVE ( 'NONE', #413, #604, #402, .T. ) ;
#500 = EDGE_LOOP ( 'NONE', ( #289, #134, #783, #9 ) ) ;
#501 = LINE ( 'NONE', #444, #898 ) ;
#502 = ORIENTED_EDGE ( 'NONE', *, *, #763, .F. ) ;
#503 = CARTESIAN_POINT ( 'NONE',  ( 67.99846618472480486, 4.900000000000000355, 270.1802563347129649 ) ) ;
#504 = VERTEX_POINT ( 'NONE', #73 ) ;
#505 = CARTESIAN_POINT ( 'NONE',  ( 59.73129074329485633, -4.900000000000000355, 289.0000000000000568 ) ) ;
#506 = ORIENTED_EDGE ( 'NONE', *, *, #710, .T. ) ;
#507 = DIRECTION ( 'NONE',  ( 0.000000000000000000, 1.000000000000000000, 0.000000000000000000 ) ) ;
#508 = AXIS2_PLACEMENT_3D ( 'NONE', #250, #460, #884 ) ;
#509 = ORIENTED_EDGE ( 'NONE', *, *, #154, .T. ) ;
#510 = DIRECTION ( 'NONE',  ( 0.000000000000000000, 1.000000000000000000, -0.000000000000000000 ) ) ;
#511 = ORIENTED_EDGE ( 'NONE', *, *, #549, .F. ) ;
#512 = DIRECTION ( 'NONE',  ( 0.000000000000000000, 1.000000000000000000, 0.000000000000000000 ) ) ;
#513 = CARTESIAN_POINT ( 'NONE',  ( 63.53423600331701948, -4.900000000000000355, 267.5296692953988895 ) ) ;
#514 = DIRECTION ( 'NONE',  ( 0.000000000000000000, 1.000000000000000000, -0.000000000000000000 ) ) ;
#515 = ORIENTED_EDGE ( 'NONE', *, *, #845, .F. ) ;
#516 = VERTEX_POINT ( 'NONE', #139 ) ;
#517 = ORIENTED_EDGE ( 'NONE', *, *, #334, .F. ) ;
#518 = CARTESIAN_POINT ( 'NONE',  ( 65.07166878177208957, 4.900000000000000355, 267.1903048178104427 ) ) ;
#519 = VERTEX_POINT ( 'NONE', #87 ) ;
#520 = VECTOR ( 'NONE', #350, 1000.000000000000000 ) ;
#521 = CARTESIAN_POINT ( 'NONE',  ( 134.5884334005386336, 4.900000000000000355, 224.3140556675854498 ) ) ;
#522 = ORIENTED_EDGE ( 'NONE', *, *, #602, .T. ) ;
#523 = DIRECTION ( 'NONE',  ( -1.000000000000000000, 0.000000000000000000, -3.299649102463554501E-17 ) ) ;
#524 = ADVANCED_FACE ( 'NONE', ( #282 ), #488, .F. ) ;
#525 = CARTESIAN_POINT ( 'NONE',  ( 64.55717302634457155, -4.900000000000000355, 266.3328118920979364 ) ) ;
#526 = DIRECTION ( 'NONE',  ( -0.5084499070690993161, 0.000000000000000000, -0.8610915700443386722 ) ) ;
#527 = DIRECTION ( 'NONE',  ( 0.000000000000000000, 1.000000000000000000, -0.000000000000000000 ) ) ;
#528 = ORIENTED_EDGE ( 'NONE', *, *, #447, .F. ) ;
#529 = DIRECTION ( 'NONE',  ( -2.775557561562888827E-14, 0.000000000000000000, 1.000000000000000000 ) ) ;
#530 = ORIENTED_EDGE ( 'NONE', *, *, #334, .T. ) ;
#531 = VECTOR ( 'NONE', #200, 1000.000000000000000 ) ;
#532 = AXIS2_PLACEMENT_3D ( 'NONE', #518, #514, #441 ) ;
#533 = CARTESIAN_POINT ( 'NONE',  ( 59.73129074329485633, -4.900000000000000355, 289.0000000000000568 ) ) ;
#534 = EDGE_CURVE ( 'NONE', #344, #604, #420, .T. ) ;
#535 = VERTEX_POINT ( 'NONE', #82 ) ;
#536 = AXIS2_PLACEMENT_3D ( 'NONE', #196, #68, #614 ) ;
#537 = CARTESIAN_POINT ( 'NONE',  ( 59.73129074329483501, -4.900000000000000355, 292.0000000000000568 ) ) ;
#538 = CARTESIAN_POINT ( 'NONE',  ( 62.62996145210227183, -4.900000000000000355, 289.7731158528332571 ) ) ;
#539 = CARTESIAN_POINT ( 'NONE',  ( -71.74019173779407765, -4.900000000000000355, 43.04411504267370958 ) ) ;
#540 = DIRECTION ( 'NONE',  ( 0.000000000000000000, 1.000000000000000000, 0.000000000000000000 ) ) ;
#541 = ORIENTED_EDGE ( 'NONE', *, *, #457, .F. ) ;
#542 = DIRECTION ( 'NONE',  ( 0.000000000000000000, 0.000000000000000000, 1.000000000000000000 ) ) ;
#543 = APPLICATION_CONTEXT ( 'automotive_design' ) ;
#544 = DIRECTION ( 'NONE',  ( -0.5144957554275024769, 0.000000000000000000, -0.8574929257125586402 ) ) ;
#545 = LINE ( 'NONE', #136, #606 ) ;
#546 = DIRECTION ( 'NONE',  ( 1.000000000000000000, -0.000000000000000000, 0.000000000000000000 ) ) ;
#547 = ORIENTED_EDGE ( 'NONE', *, *, #856, .F. ) ;
#548 = CARTESIAN_POINT ( 'NONE',  ( 63.23295970617768802, 4.900000000000000355, 273.8303193441531675 ) ) ;
#549 = EDGE_CURVE ( 'NONE', #340, #805, #375, .T. ) ;
#550 = DIRECTION ( 'NONE',  ( 0.000000000000000000, 1.000000000000000000, 0.000000000000000000 ) ) ;
#551 =( GEOMETRIC_REPRESENTATION_CONTEXT ( 3 ) GLOBAL_UNCERTAINTY_ASSIGNED_CONTEXT ( ( #865 ) ) GLOBAL_UNIT_ASSIGNED_CONTEXT ( ( #342, #620, #555 ) ) REPRESENTATION_CONTEXT ( 'NONE', 'WORKASPACE' ) );
#552 = ORIENTED_EDGE ( 'NONE', *, *, #132, .T. ) ;
#553 = AXIS2_PLACEMENT_3D ( 'NONE', #860, #510, #235 ) ;
#554 = DIRECTION ( 'NONE',  ( -3.299649102463553885E-17, 0.000000000000000000, 1.000000000000000000 ) ) ;
#555 =( NAMED_UNIT ( * ) SI_UNIT ( $, .STERADIAN. ) SOLID_ANGLE_UNIT ( ) );
#556 = ADVANCED_FACE ( 'NONE', ( #356 ), #3, .T. ) ;
#557 = DIRECTION ( 'NONE',  ( 0.000000000000000000, 1.000000000000000000, -0.000000000000000000 ) ) ;
#558 = ADVANCED_FACE ( 'NONE', ( #842 ), #434, .T. ) ;
#559 = ORIENTED_EDGE ( 'NONE', *, *, #177, .F. ) ;
#560 = CYLINDRICAL_SURFACE ( 'NONE', #745, 3.000000000000002665 ) ;
#561 = CARTESIAN_POINT ( 'NONE',  ( -4.901257467238443688, 4.900000000000000355, 0.7240699127400085366 ) ) ;
#562 = CARTESIAN_POINT ( 'NONE',  ( 69.64582556081251141, 4.900000000000000355, 275.1094923514588118 ) ) ;
#563 = CARTESIAN_POINT ( 'NONE',  ( -7.869046880039910263, -4.900000000000000355, 1.162505770378935432 ) ) ;
#564 = LINE ( 'NONE', #26, #329 ) ;
#565 = DIRECTION ( 'NONE',  ( 0.9125674357116043689, 0.000000000000000000, -0.4089262467471937446 ) ) ;
#566 = DIRECTION ( 'NONE',  ( 0.000000000000000000, 1.000000000000000000, -0.000000000000000000 ) ) ;
#567 = CARTESIAN_POINT ( 'NONE',  ( 14.13970423613136518, -4.900000000000000355, 107.5729682796162621 ) ) ;
#568 = CARTESIAN_POINT ( 'NONE',  ( 62.03602043239044406, -4.900000000000000355, 295.0000000000000568 ) ) ;
#569 = ADVANCED_FACE ( 'NONE', ( #740 ), #469, .F. ) ;
#570 = DIRECTION ( 'NONE',  ( 0.4534887557701110516, 0.000000000000000000, 0.8912619976135393030 ) ) ;
#571 = VECTOR ( 'NONE', #546, 1000.000000000000000 ) ;
#572 = VECTOR ( 'NONE', #192, 1000.000000000000114 ) ;
#573 = EDGE_CURVE ( 'NONE', #172, #288, #79, .T. ) ;
#574 = PLANE ( 'NONE',  #162 ) ;
#575 = DIRECTION ( 'NONE',  ( 0.000000000000000000, 0.000000000000000000, 1.000000000000000000 ) ) ;
#576 = ORIENTED_EDGE ( 'NONE', *, *, #271, .T. ) ;
#577 = DIRECTION ( 'NONE',  ( 0.000000000000000000, 1.000000000000000000, 0.000000000000000000 ) ) ;
#578 = ORIENTED_EDGE ( 'NONE', *, *, #466, .T. ) ;
#579 = DIRECTION ( 'NONE',  ( 0.000000000000000000, 1.000000000000000000, 0.000000000000000000 ) ) ;
#580 = ORIENTED_EDGE ( 'NONE', *, *, #326, .T. ) ;
#581 = VERTEX_POINT ( 'NONE', #393 ) ;
#582 = AXIS2_PLACEMENT_3D ( 'NONE', #173, #449, #715 ) ;
#583 = VECTOR ( 'NONE', #885, 1000.000000000000000 ) ;
#584 = ADVANCED_FACE ( 'NONE', ( #678 ), #51, .T. ) ;
#585 = PRESENTATION_STYLE_ASSIGNMENT (( #365 ) ) ;
#586 = EDGE_CURVE ( 'NONE', #744, #680, #545, .T. ) ;
#587 = ORIENTED_EDGE ( 'NONE', *, *, #806, .F. ) ;
#588 = ORIENTED_EDGE ( 'NONE', *, *, #648, .F. ) ;
#589 = EDGE_LOOP ( 'NONE', ( #851, #691, #612, #587 ) ) ;
#590 = ORIENTED_EDGE ( 'NONE', *, *, #89, .F. ) ;
#591 = EDGE_CURVE ( 'NONE', #785, #864, #689, .T. ) ;
#592 = VECTOR ( 'NONE', #828, 1000.000000000000000 ) ;
#593 = AXIS2_PLACEMENT_3D ( 'NONE', #804, #540, #672 ) ;
#594 = EDGE_LOOP ( 'NONE', ( #120, #528, #547, #357, #80, #261, #511, #195, #576, #377, #649, #185, #465, #474, #676, #101, #168, #442, #661, #802, #71, #869, #853, #635, #670 ) ) ;
#595 = CARTESIAN_POINT ( 'NONE',  ( -71.74019173779407765, -4.900000000000000355, 43.04411504267370958 ) ) ;
#596 = CARTESIAN_POINT ( 'NONE',  ( 65.97066201331253410, -4.900000000000000355, 272.6035406039116538 ) ) ;
#597 = VERTEX_POINT ( 'NONE', #338 ) ;
#598 = CARTESIAN_POINT ( 'NONE',  ( 0.000000000000000000, -4.900000000000000355, 295.0000000000000568 ) ) ;
#599 = DIRECTION ( 'NONE',  ( 1.000000000000000000, 0.000000000000000000, 0.000000000000000000 ) ) ;
#600 = VERTEX_POINT ( 'NONE', #272 ) ;
#601 = CARTESIAN_POINT ( 'NONE',  ( 64.93469114119788799, 4.900000000000000355, 292.7731158528332571 ) ) ;
#602 = EDGE_CURVE ( 'NONE', #418, #143, #410, .T. ) ;
#603 = CYLINDRICAL_SURFACE ( 'NONE', #421, 3.000000000000002665 ) ;
#604 = VERTEX_POINT ( 'NONE', #279 ) ;
#605 = CIRCLE ( 'NONE', #388, 3.000000000000002665 ) ;
#606 = VECTOR ( 'NONE', #405, 1000.000000000000114 ) ;
#607 = ORIENTED_EDGE ( 'NONE', *, *, #763, .T. ) ;
#608 = DIRECTION ( 'NONE',  ( 0.000000000000000000, 1.000000000000000000, 0.000000000000000000 ) ) ;
#609 = FACE_OUTER_BOUND ( 'NONE', #589, .T. ) ;
#610 = PLANE ( 'NONE',  #536 ) ;
#611 = DIRECTION ( 'NONE',  ( 0.1461452858796417065, 0.000000000000000000, 0.9892631376004857868 ) ) ;
#612 = ORIENTED_EDGE ( 'NONE', *, *, #381, .F. ) ;
#613 = DIRECTION ( 'NONE',  ( -0.000000000000000000, 0.000000000000000000, 1.000000000000000000 ) ) ;
#614 = DIRECTION ( 'NONE',  ( -0.2577052842777609043, 0.000000000000000000, 0.9662235696024591425 ) ) ;
#615 = MANIFOLD_SOLID_BREP ( 'Boss-Extrude1', #837 ) ;
#616 = DIRECTION ( 'NONE',  ( 1.000000000000000000, -0.000000000000000000, 0.000000000000000000 ) ) ;
#617 = DIRECTION ( 'NONE',  ( 0.000000000000000000, 1.000000000000000000, 0.000000000000000000 ) ) ;
#618 = EDGE_CURVE ( 'NONE', #504, #368, #373, .T. ) ;
#619 = DIRECTION ( 'NONE',  ( 0.4534887557701110516, 0.000000000000000000, 0.8912619976135393030 ) ) ;
#620 =( NAMED_UNIT ( * ) PLANE_ANGLE_UNIT ( ) SI_UNIT ( $, .RADIAN. ) );
#621 = EDGE_CURVE ( 'NONE', #413, #370, #770, .T. ) ;
#622 = CARTESIAN_POINT ( 'NONE',  ( 0.000000000000000000, -4.900000000000000355, 54.99999999999999289 ) ) ;
#623 = CARTESIAN_POINT ( 'NONE',  ( 17.36076295598575925, -4.900000000000000355, 151.4165540435108426 ) ) ;
#624 = VECTOR ( 'NONE', #262, 1000.000000000000000 ) ;
#625 = ORIENTED_EDGE ( 'NONE', *, *, #888, .F. ) ;
#626 = VECTOR ( 'NONE', #106, 1000.000000000000114 ) ;
#627 = VECTOR ( 'NONE', #69, 1000.000000000000114 ) ;
#628 = DIRECTION ( 'NONE',  ( 0.000000000000000000, 1.000000000000000000, 0.000000000000000000 ) ) ;
#629 = CARTESIAN_POINT ( 'NONE',  ( 314.1397042361314220, 4.900000000000000355, 107.5729682796174274 ) ) ;
#630 = EDGE_LOOP ( 'NONE', ( #312, #754, #841, #238 ) ) ;
#631 = CARTESIAN_POINT ( 'NONE',  ( 66.47283833506619999, -4.900000000000000355, 275.3648811524607822 ) ) ;
#632 = CARTESIAN_POINT ( 'NONE',  ( 65.97066201331253410, 4.900000000000000355, 272.6035406039116538 ) ) ;
#633 = EDGE_CURVE ( 'NONE', #325, #597, #438, .T. ) ;
#634 = PLANE ( 'NONE',  #401 ) ;
#635 = ORIENTED_EDGE ( 'NONE', *, *, #72, .T. ) ;
#636 = VERTEX_POINT ( 'NONE', #188 ) ;
#637 = LINE ( 'NONE', #768, #701 ) ;
#638 = APPLICATION_CONTEXT ( 'automotive_design' ) ;
#639 = DIRECTION ( 'NONE',  ( 0.000000000000000000, 1.000000000000000000, 0.000000000000000000 ) ) ;
#640 = DIRECTION ( 'NONE',  ( -0.8912619976135394140, 0.000000000000000000, 0.4534887557701111072 ) ) ;
#641 = CIRCLE ( 'NONE', #243, 303.0000000000000568 ) ;
#642 = VERTEX_POINT ( 'NONE', #863 ) ;
#643 = VERTEX_POINT ( 'NONE', #525 ) ;
#644 = CARTESIAN_POINT ( 'NONE',  ( 43.30809204199557882, -4.900000000000000355, 286.0000000000000568 ) ) ;
#645 = CARTESIAN_POINT ( 'NONE',  ( 11.13970423613136873, -4.900000000000000355, 54.99999999999999289 ) ) ;
#646 = FACE_OUTER_BOUND ( 'NONE', #708, .T. ) ;
#647 = ORIENTED_EDGE ( 'NONE', *, *, #856, .T. ) ;
#648 = EDGE_CURVE ( 'NONE', #366, #129, #248, .T. ) ;
#649 = ORIENTED_EDGE ( 'NONE', *, *, #723, .F. ) ;
#650 = DIRECTION ( 'NONE',  ( -0.9662235696024591425, 0.000000000000000000, -0.2577052842777614039 ) ) ;
#651 = ORIENTED_EDGE ( 'NONE', *, *, #301, .F. ) ;
#652 = DIRECTION ( 'NONE',  ( 0.000000000000000000, 0.000000000000000000, 1.000000000000000000 ) ) ;
#653 = AXIS2_PLACEMENT_3D ( 'NONE', #728, #652, #498 ) ;
#654 = VECTOR ( 'NONE', #281, 1000.000000000000000 ) ;
#655 = AXIS2_PLACEMENT_3D ( 'NONE', #403, #756, #131 ) ;
#656 = CIRCLE ( 'NONE', #494, 300.0000000000000568 ) ;
#657 = ORIENTED_EDGE ( 'NONE', *, *, #534, .F. ) ;
#658 = FACE_OUTER_BOUND ( 'NONE', #777, .T. ) ;
#659 = ORIENTED_EDGE ( 'NONE', *, *, #89, .T. ) ;
#660 = EDGE_CURVE ( 'NONE', #604, #440, #752, .T. ) ;
#661 = ORIENTED_EDGE ( 'NONE', *, *, #239, .T. ) ;
#662 = LINE ( 'NONE', #521, #256 ) ;
#663 = ORIENTED_EDGE ( 'NONE', *, *, #227, .T. ) ;
#664 = DIRECTION ( 'NONE',  ( 0.8574929257125586402, 0.000000000000000000, -0.5144957554275025879 ) ) ;
#665 = ORIENTED_EDGE ( 'NONE', *, *, #633, .F. ) ;
#666 = PLANE ( 'NONE',  #29 ) ;
#667 = CIRCLE ( 'NONE', #473, 3.000000000000002665 ) ;
#668 = CARTESIAN_POINT ( 'NONE',  ( 37.37251321639265456, -4.900000000000000355, 286.8768717152777867 ) ) ;
#669 = AXIS2_PLACEMENT_3D ( 'NONE', #900, #712, #274 ) ;
#670 = ORIENTED_EDGE ( 'NONE', *, *, #216, .F. ) ;
#671 = AXIS2_PLACEMENT_3D ( 'NONE', #595, #664, #118 ) ;
#672 = DIRECTION ( 'NONE',  ( 0.000000000000000000, 0.000000000000000000, 1.000000000000000000 ) ) ;
#673 = ORIENTED_EDGE ( 'NONE', *, *, #737, .F. ) ;
#674 = CARTESIAN_POINT ( 'NONE',  ( 133.5230226586241429, 4.900000000000000355, 35.61244994884994952 ) ) ;
#675 = DIRECTION ( 'NONE',  ( 0.000000000000000000, 1.000000000000000000, -0.000000000000000000 ) ) ;
#676 = ORIENTED_EDGE ( 'NONE', *, *, #322, .T. ) ;
#677 = EDGE_CURVE ( 'NONE', #288, #636, #424, .T. ) ;
#678 = FACE_OUTER_BOUND ( 'NONE', #85, .T. ) ;
#679 = LINE ( 'NONE', #181, #583 ) ;
#680 = VERTEX_POINT ( 'NONE', #816 ) ;
#681 = DIRECTION ( 'NONE',  ( 0.000000000000000000, 1.000000000000000000, -0.000000000000000000 ) ) ;
#682 = CYLINDRICAL_SURFACE ( 'NONE', #882, 3.000000000000002665 ) ;
#683 = DIRECTION ( 'NONE',  ( 0.000000000000000000, 1.000000000000000000, 0.000000000000000000 ) ) ;
#684 = CARTESIAN_POINT ( 'NONE',  ( -46.78921673784292068, -4.900000000000000355, 20.96649303941821074 ) ) ;
#685 = AXIS2_PLACEMENT_3D ( 'NONE', #563, #70, #611 ) ;
#686 = LINE ( 'NONE', #78, #217 ) ;
#687 = CIRCLE ( 'NONE', #655, 3.000000000000002665 ) ;
#688 = DIRECTION ( 'NONE',  ( 0.000000000000000000, 1.000000000000000000, -0.000000000000000000 ) ) ;
#689 = LINE ( 'NONE', #140, #202 ) ;
#690 = EDGE_CURVE ( 'NONE', #226, #172, #468, .T. ) ;
#691 = ORIENTED_EDGE ( 'NONE', *, *, #249, .T. ) ;
#692 = PLANE ( 'NONE',  #95 ) ;
#693 = DIRECTION ( 'NONE',  ( 0.000000000000000000, 0.000000000000000000, 1.000000000000000000 ) ) ;
#694 = CARTESIAN_POINT ( 'NONE',  ( 133.5230226586241429, -4.900000000000000355, 35.61244994884994952 ) ) ;
#695 = CARTESIAN_POINT ( 'NONE',  ( 59.73129074329483501, -4.900000000000000355, 292.0000000000000568 ) ) ;
#696 = ORIENTED_EDGE ( 'NONE', *, *, #749, .F. ) ;
#697 = CARTESIAN_POINT ( 'NONE',  ( 64.55717302634457155, 4.900000000000000355, 266.3328118920979364 ) ) ;
#698 = CARTESIAN_POINT ( 'NONE',  ( 43.30809204199557882, 4.900000000000000355, 286.0000000000000568 ) ) ;
#699 = EDGE_LOOP ( 'NONE', ( #180, #144, #625, #724 ) ) ;
#700 = ORIENTED_EDGE ( 'NONE', *, *, #677, .T. ) ;
#701 = VECTOR ( 'NONE', #840, 1000.000000000000000 ) ;
#702 = CARTESIAN_POINT ( 'NONE',  ( -4.901257467238443688, -4.900000000000000355, 0.7240699127400085366 ) ) ;
#703 = CARTESIAN_POINT ( 'NONE',  ( 0.000000000000000000, -4.900000000000000355, 292.0000000000000568 ) ) ;
#704 = ADVANCED_FACE ( 'NONE', ( #263 ), #610, .T. ) ;
#705 = DIRECTION ( 'NONE',  ( 0.000000000000000000, 1.000000000000000000, 0.000000000000000000 ) ) ;
#706 = FACE_OUTER_BOUND ( 'NONE', #699, .T. ) ;
#707 = VERTEX_POINT ( 'NONE', #729 ) ;
#708 = EDGE_LOOP ( 'NONE', ( #105, #1, #156, #657 ) ) ;
#709 = DIRECTION ( 'NONE',  ( -0.000000000000000000, -1.000000000000000000, 0.000000000000000000 ) ) ;
#710 = EDGE_CURVE ( 'NONE', #495, #344, #656, .T. ) ;
#711 = ORIENTED_EDGE ( 'NONE', *, *, #115, .T. ) ;
#712 = DIRECTION ( 'NONE',  ( 0.000000000000000000, 1.000000000000000000, -0.000000000000000000 ) ) ;
#713 = CARTESIAN_POINT ( 'NONE',  ( 59.73129074329485633, 4.900000000000000355, 289.0000000000000568 ) ) ;
#714 = ADVANCED_FACE ( 'NONE', ( #446 ), #666, .T. ) ;
#715 = DIRECTION ( 'NONE',  ( 0.000000000000000000, 0.000000000000000000, 1.000000000000000000 ) ) ;
#716 = CARTESIAN_POINT ( 'NONE',  ( 66.74715485200513854, -4.900000000000000355, 274.3363764986254409 ) ) ;
#717 = ORIENTED_EDGE ( 'NONE', *, *, #126, .T. ) ;
#718 = VECTOR ( 'NONE', #617, 1000.000000000000000 ) ;
#719 = COLOUR_RGB ( '',0.7921568627450980005, 0.8196078431372548767, 0.9333333333333333481 ) ;
#720 = ORIENTED_EDGE ( 'NONE', *, *, #59, .F. ) ;
#721 = DIRECTION ( 'NONE',  ( 0.000000000000000000, 1.000000000000000000, -0.000000000000000000 ) ) ;
#722 = ORIENTED_EDGE ( 'NONE', *, *, #710, .F. ) ;
#723 = EDGE_CURVE ( 'NONE', #81, #535, #150, .T. ) ;
#724 = ORIENTED_EDGE ( 'NONE', *, *, #829, .T. ) ;
#725 = DIRECTION ( 'NONE',  ( 0.000000000000000000, 1.000000000000000000, 0.000000000000000000 ) ) ;
#726 = ORIENTED_EDGE ( 'NONE', *, *, #391, .F. ) ;
#727 = DIRECTION ( 'NONE',  ( 0.000000000000000000, 0.000000000000000000, 1.000000000000000000 ) ) ;
#728 = CARTESIAN_POINT ( 'NONE',  ( 0.000000000000000000, 0.000000000000000000, 0.000000000000000000 ) ) ;
#729 = CARTESIAN_POINT ( 'NONE',  ( 11.13970423613136873, -4.900000000000000355, 107.5729682796162763 ) ) ;
#730 = ORIENTED_EDGE ( 'NONE', *, *, #886, .T. ) ;
#731 = CARTESIAN_POINT ( 'NONE',  ( -55.18628288814380767, -4.900000000000000355, 28.07968793635628657 ) ) ;
#732 = VERTEX_POINT ( 'NONE', #275 ) ;
#733 = VECTOR ( 'NONE', #252, 1000.000000000000000 ) ;
#734 = LINE ( 'NONE', #538, #372 ) ;
#735 = EDGE_CURVE ( 'NONE', #418, #818, #290, .T. ) ;
#736 = PRESENTATION_LAYER_ASSIGNMENT (  '', '', ( #218 ) ) ;
#737 = EDGE_CURVE ( 'NONE', #418, #378, #812, .T. ) ;
#738 = LINE ( 'NONE', #362, #232 ) ;
#739 = ORIENTED_EDGE ( 'NONE', *, *, #690, .T. ) ;
#740 = FACE_OUTER_BOUND ( 'NONE', #34, .T. ) ;
#741 = VERTEX_POINT ( 'NONE', #601 ) ;
#742 = FACE_OUTER_BOUND ( 'NONE', #151, .T. ) ;
#743 = EDGE_CURVE ( 'NONE', #368, #125, #38, .T. ) ;
#744 = VERTEX_POINT ( 'NONE', #260 ) ;
#745 = AXIS2_PLACEMENT_3D ( 'NONE', #832, #892, #491 ) ;
#746 = ORIENTED_EDGE ( 'NONE', *, *, #12, .F. ) ;
#747 = DIRECTION ( 'NONE',  ( 0.000000000000000000, 0.000000000000000000, 1.000000000000000000 ) ) ;
#748 = ORIENTED_EDGE ( 'NONE', *, *, #861, .F. ) ;
#749 = EDGE_CURVE ( 'NONE', #220, #600, #409, .T. ) ;
#750 = ADVANCED_FACE ( 'NONE', ( #149 ), #286, .F. ) ;
#751 = DIRECTION ( 'NONE',  ( 0.1461452858796417342, 0.000000000000000000, 0.9892631376004857868 ) ) ;
#752 = LINE ( 'NONE', #668, #376 ) ;
#753 = DIRECTION ( 'NONE',  ( 0.5144957554274910416, -0.000000000000000000, 0.8574929257125655235 ) ) ;
#754 = ORIENTED_EDGE ( 'NONE', *, *, #53, .F. ) ;
#755 = CARTESIAN_POINT ( 'NONE',  ( 0.000000000000000000, 4.900000000000000355, 0.000000000000000000 ) ) ;
#756 = DIRECTION ( 'NONE',  ( 0.000000000000000000, 1.000000000000000000, -0.000000000000000000 ) ) ;
#757 = PLANE ( 'NONE',  #135 ) ;
#758 = ORIENTED_EDGE ( 'NONE', *, *, #391, .T. ) ;
#759 = LINE ( 'NONE', #83, #75 ) ;
#760 = ADVANCED_FACE ( 'NONE', ( #229 ), #369, .F. ) ;
#761 = VECTOR ( 'NONE', #616, 1000.000000000000000 ) ;
#762 = CARTESIAN_POINT ( 'NONE',  ( 34.78314740966270335, 4.900000000000000355, 289.8768717152777867 ) ) ;
#763 = EDGE_CURVE ( 'NONE', #680, #805, #734, .T. ) ;
#764 = AXIS2_PLACEMENT_3D ( 'NONE', #158, #640, #619 ) ;
#765 = ORIENTED_EDGE ( 'NONE', *, *, #743, .F. ) ;
#766 = DIRECTION ( 'NONE',  ( 0.000000000000000000, 1.000000000000000000, -0.000000000000000000 ) ) ;
#767 = LINE ( 'NONE', #284, #174 ) ;
#768 = CARTESIAN_POINT ( 'NONE',  ( 11.13970423613136873, -4.900000000000000355, 107.5729682796162763 ) ) ;
#769 = CARTESIAN_POINT ( 'NONE',  ( 14.39297354318430600, -4.900000000000000355, 151.8549899011498212 ) ) ;
#770 = LINE ( 'NONE', #159, #321 ) ;
#771 = DIRECTION ( 'NONE',  ( 0.000000000000000000, 0.000000000000000000, 1.000000000000000000 ) ) ;
#772 = ORIENTED_EDGE ( 'NONE', *, *, #381, .T. ) ;
#773 = EDGE_CURVE ( 'NONE', #581, #325, #809, .T. ) ;
#774 = LINE ( 'NONE', #834, #492 ) ;
#775 = PRODUCT_DEFINITION_FORMATION_WITH_SPECIFIED_SOURCE ( 'ANY', '', #874, .NOT_KNOWN. ) ;
#776 = CIRCLE ( 'NONE', #107, 0.5000000000000004441 ) ;
#777 = EDGE_LOOP ( 'NONE', ( #247, #831, #496, #314 ) ) ;
#778 = DIRECTION ( 'NONE',  ( -0.000000000000000000, 0.000000000000000000, 1.000000000000000000 ) ) ;
#779 = VECTOR ( 'NONE', #359, 1000.000000000000227 ) ;
#780 = VECTOR ( 'NONE', #385, 1000.000000000000000 ) ;
#781 = CARTESIAN_POINT ( 'NONE',  ( 63.53423600331701948, -4.900000000000000355, 267.5296692953988895 ) ) ;
#782 = ORIENTED_EDGE ( 'NONE', *, *, #23, .T. ) ;
#783 = ORIENTED_EDGE ( 'NONE', *, *, #115, .F. ) ;
#784 = CARTESIAN_POINT ( 'NONE',  ( 63.27698812560326758, 4.900000000000000355, 267.1009228325426648 ) ) ;
#785 = VERTEX_POINT ( 'NONE', #127 ) ;
#786 = ORIENTED_EDGE ( 'NONE', *, *, #819, .F. ) ;
#787 = ADVANCED_FACE ( 'NONE', ( #456 ), #800, .F. ) ;
#788 = ORIENTED_EDGE ( 'NONE', *, *, #363, .F. ) ;
#789 = CIRCLE ( 'NONE', #461, 6.000000000000005329 ) ;
#790 = ORIENTED_EDGE ( 'NONE', *, *, #15, .F. ) ;
#791 = AXIS2_PLACEMENT_3D ( 'NONE', #394, #183, #124 ) ;
#792 = DIRECTION ( 'NONE',  ( 0.000000000000000000, 0.000000000000000000, 1.000000000000000000 ) ) ;
#793 = ORIENTED_EDGE ( 'NONE', *, *, #31, .F. ) ;
#794 = DIRECTION ( 'NONE',  ( -0.000000000000000000, -1.000000000000000000, 0.000000000000000000 ) ) ;
#795 = DIRECTION ( 'NONE',  ( 0.000000000000000000, 1.000000000000000000, -0.000000000000000000 ) ) ;
#796 = ORIENTED_EDGE ( 'NONE', *, *, #240, .T. ) ;
#797 = DIRECTION ( 'NONE',  ( 0.000000000000000000, 0.000000000000000000, 1.000000000000000000 ) ) ;
#798 = ORIENTED_EDGE ( 'NONE', *, *, #191, .T. ) ;
#799 = AXIS2_PLACEMENT_3D ( 'NONE', #698, #197, #287 ) ;
#800 = CYLINDRICAL_SURFACE ( 'NONE', #852, 300.0000000000000568 ) ;
#801 = DIRECTION ( 'NONE',  ( 0.000000000000000000, 1.000000000000000000, 0.000000000000000000 ) ) ;
#802 = ORIENTED_EDGE ( 'NONE', *, *, #390, .F. ) ;
#803 = EDGE_CURVE ( 'NONE', #100, #81, #122, .T. ) ;
#804 = CARTESIAN_POINT ( 'NONE',  ( 63.57416762625883422, -4.900000000000000355, 274.5917652996274683 ) ) ;
#805 = VERTEX_POINT ( 'NONE', #384 ) ;
#806 = EDGE_CURVE ( 'NONE', #413, #236, #323, .T. ) ;
#807 = VERTEX_POINT ( 'NONE', #697 ) ;
#808 = AXIS2_PLACEMENT_3D ( 'NONE', #703, #613, #270 ) ;
#809 = LINE ( 'NONE', #43, #879 ) ;
#810 = CIRCLE ( 'NONE', #881, 1.000000000000000888 ) ;
#811 = VECTOR ( 'NONE', #554, 1000.000000000000000 ) ;
#812 = CIRCLE ( 'NONE', #25, 2.999999999999947153 ) ;
#813 = DIRECTION ( 'NONE',  ( 0.000000000000000000, 0.000000000000000000, 1.000000000000000000 ) ) ;
#814 = ORIENTED_EDGE ( 'NONE', *, *, #126, .F. ) ;
#815 = DIRECTION ( 'NONE',  ( 0.000000000000000000, 1.000000000000000000, 0.000000000000000000 ) ) ;
#816 = CARTESIAN_POINT ( 'NONE',  ( 62.62996145210227183, -4.900000000000000355, 289.7731158528332571 ) ) ;
#817 = LINE ( 'NONE', #327, #306 ) ;
#818 = VERTEX_POINT ( 'NONE', #562 ) ;
#819 = EDGE_CURVE ( 'NONE', #642, #366, #789, .T. ) ;
#820 = DIRECTION ( 'NONE',  ( 0.000000000000000000, 0.000000000000000000, 1.000000000000000000 ) ) ;
#821 = ORIENTED_EDGE ( 'NONE', *, *, #499, .F. ) ;
#822 = LINE ( 'NONE', #674, #572 ) ;
#823 = AXIS2_PLACEMENT_3D ( 'NONE', #67, #566, #193 ) ;
#824 = VECTOR ( 'NONE', #550, 1000.000000000000000 ) ;
#825 = VECTOR ( 'NONE', #628, 1000.000000000000000 ) ;
#826 = ORIENTED_EDGE ( 'NONE', *, *, #371, .F. ) ;
#827 = DIRECTION ( 'NONE',  ( 0.000000000000000000, 1.000000000000000000, 0.000000000000000000 ) ) ;
#828 = DIRECTION ( 'NONE',  ( 1.000000000000000000, -0.000000000000000000, 0.000000000000000000 ) ) ;
#829 = EDGE_CURVE ( 'NONE', #436, #642, #396, .T. ) ;
#830 = CARTESIAN_POINT ( 'NONE',  ( 63.10548954046073078, -4.900000000000000355, 267.7869171731126698 ) ) ;
#831 = ORIENTED_EDGE ( 'NONE', *, *, #390, .T. ) ;
#832 = CARTESIAN_POINT ( 'NONE',  ( 62.03602043239045827, -4.900000000000000355, 292.0000000000000568 ) ) ;
#833 = DIRECTION ( 'NONE',  ( -0.4089262467471937446, 0.000000000000000000, -0.9125674357116043689 ) ) ;
#834 = CARTESIAN_POINT ( 'NONE',  ( 66.31186993339362346, -4.900000000000000355, 273.3649865593858408 ) ) ;
#835 = LINE ( 'NONE', #631, #825 ) ;
#836 = CARTESIAN_POINT ( 'NONE',  ( 0.000000000000000000, 4.900000000000000355, 292.0000000000000568 ) ) ;
#837 = CLOSED_SHELL ( 'NONE', ( #484, #214, #584, #311, #524, #114, #88, #40, #221, #556, #253, #558, #297, #42, #760, #787, #142, #750, #846, #184, #704, #204, #487, #397, #569, #65, #714 ) ) ;
#838 = CARTESIAN_POINT ( 'NONE',  ( 69.64582556081251141, -4.900000000000000355, 275.1094923514588118 ) ) ;
#839 =( GEOMETRIC_REPRESENTATION_CONTEXT ( 3 ) GLOBAL_UNCERTAINTY_ASSIGNED_CONTEXT ( ( #102 ) ) GLOBAL_UNIT_ASSIGNED_CONTEXT ( ( #855, #24, #847 ) ) REPRESENTATION_CONTEXT ( 'NONE', 'WORKASPACE' ) );
#840 = DIRECTION ( 'NONE',  ( 0.000000000000000000, 1.000000000000000000, 0.000000000000000000 ) ) ;
#841 = ORIENTED_EDGE ( 'NONE', *, *, #735, .F. ) ;
#842 = FACE_OUTER_BOUND ( 'NONE', #455, .T. ) ;
#843 = CARTESIAN_POINT ( 'NONE',  ( 64.55717302634457155, -4.900000000000000355, 266.3328118920979364 ) ) ;
#844 = CYLINDRICAL_SURFACE ( 'NONE', #257, 0.5000000000000004441 ) ;
#845 = EDGE_CURVE ( 'NONE', #516, #850, #346, .T. ) ;
#846 = ADVANCED_FACE ( 'NONE', ( #609 ), #478, .F. ) ;
#847 =( NAMED_UNIT ( * ) SI_UNIT ( $, .STERADIAN. ) SOLID_ANGLE_UNIT ( ) );
#848 = DIRECTION ( 'NONE',  ( 0.000000000000000000, 0.000000000000000000, 1.000000000000000000 ) ) ;
#849 = CARTESIAN_POINT ( 'NONE',  ( 62.03602043239044406, -4.900000000000000355, 295.0000000000000568 ) ) ;
#850 = VERTEX_POINT ( 'NONE', #896 ) ;
#851 = ORIENTED_EDGE ( 'NONE', *, *, #621, .T. ) ;
#852 = AXIS2_PLACEMENT_3D ( 'NONE', #379, #37, #315 ) ;
#853 = ORIENTED_EDGE ( 'NONE', *, *, #743, .T. ) ;
#854 = VECTOR ( 'NONE', #570, 1000.000000000000114 ) ;
#855 =( LENGTH_UNIT ( ) NAMED_UNIT ( * ) SI_UNIT ( .MILLI., .METRE. ) );
#856 = EDGE_CURVE ( 'NONE', #864, #382, #667, .T. ) ;
#857 = PLANE ( 'NONE',  #475 ) ;
#858 = ORIENTED_EDGE ( 'NONE', *, *, #586, .F. ) ;
#859 = CARTESIAN_POINT ( 'NONE',  ( 43.30809204199562146, 4.900000000000000355, 292.0000000000000568 ) ) ;
#860 = CARTESIAN_POINT ( 'NONE',  ( 66.74715485200513854, 4.900000000000000355, 274.3363764986254409 ) ) ;
#861 = EDGE_CURVE ( 'NONE', #744, #226, #317, .T. ) ;
#862 = ORIENTED_EDGE ( 'NONE', *, *, #443, .T. ) ;
#863 = CARTESIAN_POINT ( 'NONE',  ( 34.78314740966270335, -4.900000000000000355, 289.8768717152777867 ) ) ;
#864 = VERTEX_POINT ( 'NONE', #632 ) ;
#865 = UNCERTAINTY_MEASURE_WITH_UNIT (LENGTH_MEASURE( 1.000000000000000082E-05 ), #342, 'distance_accuracy_value', 'NONE');
#866 = EDGE_CURVE ( 'NONE', #597, #732, #759, .T. ) ;
#867 = CIRCLE ( 'NONE', #245, 0.5000000000000004441 ) ;
#868 = VECTOR ( 'NONE', #507, 1000.000000000000000 ) ;
#869 = ORIENTED_EDGE ( 'NONE', *, *, #399, .F. ) ;
#870 = FACE_OUTER_BOUND ( 'NONE', #5, .T. ) ;
#871 = VERTEX_POINT ( 'NONE', #4 ) ;
#872 = EDGE_CURVE ( 'NONE', #226, #785, #774, .T. ) ;
#873 = CARTESIAN_POINT ( 'NONE',  ( 63.53423600331701948, 4.900000000000000355, 267.5296692953988895 ) ) ;
#874 = PRODUCT ( 'Arm', 'Arm', '', ( #292 ) ) ;
#875 = ORIENTED_EDGE ( 'NONE', *, *, #749, .T. ) ;
#876 = DIRECTION ( 'NONE',  ( -3.299649102463554501E-17, 0.000000000000000000, 1.000000000000000000 ) ) ;
#877 = CARTESIAN_POINT ( 'NONE',  ( -67.87142717848148266, 4.900000000000000355, 40.07613364484467411 ) ) ;
#878 = EDGE_LOOP ( 'NONE', ( #509, #389, #310, #138 ) ) ;
#879 = VECTOR ( 'NONE', #751, 1000.000000000000227 ) ;
#880 = CARTESIAN_POINT ( 'NONE',  ( 14.13970423613136873, -4.900000000000000355, 4.665606239185097795E-16 ) ) ;
#881 = AXIS2_PLACEMENT_3D ( 'NONE', #52, #527, #813 ) ;
#882 = AXIS2_PLACEMENT_3D ( 'NONE', #330, #608, #542 ) ;
#883 = VECTOR ( 'NONE', #331, 1000.000000000000114 ) ;
#884 = DIRECTION ( 'NONE',  ( 0.000000000000000000, 0.000000000000000000, 1.000000000000000000 ) ) ;
#885 = DIRECTION ( 'NONE',  ( 0.000000000000000000, 1.000000000000000000, 0.000000000000000000 ) ) ;
#886 = EDGE_CURVE ( 'NONE', #504, #113, #467, .T. ) ;
#887 = ORIENTED_EDGE ( 'NONE', *, *, #271, .F. ) ;
#888 = EDGE_CURVE ( 'NONE', #436, #581, #337, .T. ) ;
#889 = DIRECTION ( 'NONE',  ( 0.000000000000000000, 1.000000000000000000, 0.000000000000000000 ) ) ;
#890 = DIRECTION ( 'NONE',  ( 0.000000000000000000, 0.000000000000000000, 1.000000000000000000 ) ) ;
#891 = DIRECTION ( 'NONE',  ( 0.8610915700443386722, 0.000000000000000000, -0.5084499070690993161 ) ) ;
#892 = DIRECTION ( 'NONE',  ( 0.000000000000000000, 1.000000000000000000, 0.000000000000000000 ) ) ;
#893 = CARTESIAN_POINT ( 'NONE',  ( 40.71872623526564894, -4.900000000000000355, 289.0000000000000568 ) ) ;
#894 = CARTESIAN_POINT ( 'NONE',  ( 65.93276035181645511, -4.900000000000000355, 266.6818549107413219 ) ) ;
#895 = EDGE_LOOP ( 'NONE', ( #711, #647, #590, #320 ) ) ;
#896 = CARTESIAN_POINT ( 'NONE',  ( 11.13970423613136873, 4.900000000000000355, 107.5729682796162763 ) ) ;
#897 = VECTOR ( 'NONE', #404, 1000.000000000000227 ) ;
#898 = VECTOR ( 'NONE', #577, 1000.000000000000000 ) ;
#899 = CARTESIAN_POINT ( 'NONE',  ( 11.13970423613136873, -4.900000000000000355, 0.000000000000000000 ) ) ;
#900 = CARTESIAN_POINT ( 'NONE',  ( 314.1397042361314220, -4.900000000000000355, 107.5729682796174274 ) ) ;
#901 = CARTESIAN_POINT ( 'NONE',  ( 37.37251321639265456, 4.900000000000000355, 286.8768717152777867 ) ) ;
#902 = APPLICATION_PROTOCOL_DEFINITION ( 'draft international standard', 'automotive_design', 1998, #543 ) ;
ENDSEC;
END-ISO-10303-21;
