ISO-10303-21;
HEADER;
FILE_DESCRIPTION (( 'STEP AP214' ),
    '1' );
FILE_NAME ('bottom holder.STEP',
    '2026-06-19T13:11:13',
    ( '' ),
    ( '' ),
    'SwSTEP 2.0',
    'SolidWorks 2024',
    '' );
FILE_SCHEMA (( 'AUTOMOTIVE_DESIGN' ));
ENDSEC;

DATA;
#1 = PLANE ( 'NONE',  #155 ) ;
#2 = VERTEX_POINT ( 'NONE', #813 ) ;
#3 = EDGE_CURVE ( 'NONE', #863, #294, #594, .T. ) ;
#4 = VECTOR ( 'NONE', #64, 1000.000000000000000 ) ;
#5 = VECTOR ( 'NONE', #359, 1000.000000000000114 ) ;
#6 = AXIS2_PLACEMENT_3D ( 'NONE', #317, #239, #46 ) ;
#7 = ORIENTED_EDGE ( 'NONE', *, *, #656, .T. ) ;
#8 = CARTESIAN_POINT ( 'NONE',  ( -4.336808689942018722E-16, 0.000000000000000000, 208.1822196873589803 ) ) ;
#9 = VERTEX_POINT ( 'NONE', #806 ) ;
#10 = CARTESIAN_POINT ( 'NONE',  ( 0.000000000000000000, 0.000000000000000000, 0.000000000000000000 ) ) ;
#11 = EDGE_CURVE ( 'NONE', #373, #630, #322, .T. ) ;
#12 = ORIENTED_EDGE ( 'NONE', *, *, #414, .T. ) ;
#13 = LINE ( 'NONE', #93, #644 ) ;
#14 = VECTOR ( 'NONE', #452, 1000.000000000000000 ) ;
#15 = EDGE_LOOP ( 'NONE', ( #683, #209, #554, #856 ) ) ;
#16 = CARTESIAN_POINT ( 'NONE',  ( -4.336808689942018722E-16, 0.000000000000000000, 208.1822196873589803 ) ) ;
#17 = ORIENTED_EDGE ( 'NONE', *, *, #296, .F. ) ;
#18 = VECTOR ( 'NONE', #668, 1000.000000000000114 ) ;
#19 = LINE ( 'NONE', #222, #196 ) ;
#20 = LINE ( 'NONE', #451, #386 ) ;
#21 = PRODUCT_CONTEXT ( 'NONE', #607, 'mechanical' ) ;
#22 = EDGE_LOOP ( 'NONE', ( #403, #268, #367, #238 ) ) ;
#23 = DIRECTION ( 'NONE',  ( 2.083179195828967414E-18, -0.000000000000000000, -1.000000000000000000 ) ) ;
#24 = VERTEX_POINT ( 'NONE', #314 ) ;
#25 = EDGE_CURVE ( 'NONE', #771, #348, #67, .T. ) ;
#26 = LINE ( 'NONE', #157, #818 ) ;
#27 = VECTOR ( 'NONE', #152, 1000.000000000000227 ) ;
#28 = FACE_OUTER_BOUND ( 'NONE', #43, .T. ) ;
#29 = CARTESIAN_POINT ( 'NONE',  ( 25.25667520070349781, 5.000000000000000000, 208.1822196873589803 ) ) ;
#30 = ORIENTED_EDGE ( 'NONE', *, *, #574, .T. ) ;
#31 = CARTESIAN_POINT ( 'NONE',  ( -15.37718999222139438, 16.63407434416753361, 203.9843907496689042 ) ) ;
#32 = CARTESIAN_POINT ( 'NONE',  ( -4.336808689942017736E-16, 0.000000000000000000, 208.1822196873589803 ) ) ;
#33 = CARTESIAN_POINT ( 'NONE',  ( -6.792072673586394771, 21.76421495935223405, 205.0015975127436718 ) ) ;
#34 = EDGE_LOOP ( 'NONE', ( #726, #711, #342, #572 ) ) ;
#35 = CARTESIAN_POINT ( 'NONE',  ( -11.35713866845779840, 19.67114120237447850, 208.1822196873589803 ) ) ;
#36 = CARTESIAN_POINT ( 'NONE',  ( -15.68726568738025584, -17.17114120237430441, 208.1822196873589803 ) ) ;
#37 = VERTEX_POINT ( 'NONE', #731 ) ;
#38 = CARTESIAN_POINT ( 'NONE',  ( -1.299038105676658894, 0.7500000000000004441, 245.6681330320781456 ) ) ;
#39 = AXIS2_PLACEMENT_3D ( 'NONE', #379, #783, #638 ) ;
#40 = FACE_OUTER_BOUND ( 'NONE', #488, .T. ) ;
#41 = FACE_OUTER_BOUND ( 'NONE', #503, .T. ) ;
#42 = AXIS2_PLACEMENT_3D ( 'NONE', #16, #833, #219 ) ;
#43 = EDGE_LOOP ( 'NONE', ( #352, #259, #622, #17, #759, #706, #825, #493, #139, #97, #217, #369 ) ) ;
#44 = SURFACE_STYLE_USAGE ( .BOTH. , #169 ) ;
#45 = ORIENTED_EDGE ( 'NONE', *, *, #526, .F. ) ;
#46 = DIRECTION ( 'NONE',  ( -1.000000000000000000, 0.000000000000000000, 0.000000000000000000 ) ) ;
#47 = DIRECTION ( 'NONE',  ( -3.124768793743458825E-18, -1.804086104223118536E-18, 1.000000000000000000 ) ) ;
#48 = ORIENTED_EDGE ( 'NONE', *, *, #263, .F. ) ;
#49 = ADVANCED_FACE ( 'NONE', ( #802 ), #812, .F. ) ;
#50 = DIRECTION ( 'NONE',  ( -0.4999999999999999445, -0.8660254037844387076, -1.041589597914483515E-18 ) ) ;
#51 = VERTEX_POINT ( 'NONE', #199 ) ;
#52 = CARTESIAN_POINT ( 'NONE',  ( -19.94367067517912417, -1.500000000000069722, 208.1822196873589803 ) ) ;
#53 = ORIENTED_EDGE ( 'NONE', *, *, #96, .F. ) ;
#54 = CARTESIAN_POINT ( 'NONE',  ( -4.336808689942017736E-16, 5.000000000000000000, 208.1822196873589803 ) ) ;
#55 = VECTOR ( 'NONE', #99, 1000.000000000000227 ) ;
#56 = LINE ( 'NONE', #649, #847 ) ;
#57 = VECTOR ( 'NONE', #672, 1000.000000000000000 ) ;
#58 =( GEOMETRIC_REPRESENTATION_CONTEXT ( 3 ) GLOBAL_UNCERTAINTY_ASSIGNED_CONTEXT ( ( #690 ) ) GLOBAL_UNIT_ASSIGNED_CONTEXT ( ( #770, #81, #344 ) ) REPRESENTATION_CONTEXT ( 'NONE', 'WORKASPACE' ) );
#59 = ADVANCED_FACE ( 'NONE', ( #260 ), #527, .T. ) ;
#60 = LINE ( 'NONE', #320, #459 ) ;
#61 = ORIENTED_EDGE ( 'NONE', *, *, #835, .T. ) ;
#62 = EDGE_CURVE ( 'NONE', #630, #545, #319, .T. ) ;
#63 = LINE ( 'NONE', #579, #252 ) ;
#64 = DIRECTION ( 'NONE',  ( 2.083179195828967414E-18, -0.000000000000000000, -1.000000000000000000 ) ) ;
#65 = VECTOR ( 'NONE', #468, 1000.000000000000114 ) ;
#66 = EDGE_CURVE ( 'NONE', #432, #871, #226, .T. ) ;
#67 = LINE ( 'NONE', #456, #181 ) ;
#68 = CARTESIAN_POINT ( 'NONE',  ( -11.12219969250888241, -19.26421495935212391, 205.0015975127436718 ) ) ;
#69 = EDGE_CURVE ( 'NONE', #720, #618, #525, .T. ) ;
#70 = DIRECTION ( 'NONE',  ( -1.000000000000000000, 0.000000000000000000, -2.083179195828967029E-18 ) ) ;
#71 = ORIENTED_EDGE ( 'NONE', *, *, #780, .T. ) ;
#72 = CARTESIAN_POINT ( 'NONE',  ( -16.87863114288261812, 19.23464670168750246, 207.1220037233535436 ) ) ;
#73 = FACE_BOUND ( 'NONE', #345, .T. ) ;
#74 = ORIENTED_EDGE ( 'NONE', *, *, #849, .T. ) ;
#75 = DIRECTION ( 'NONE',  ( -1.000000000000000000, 1.776356839400250465E-15, 0.000000000000000000 ) ) ;
#76 = CONICAL_SURFACE ( 'NONE', #546, 25.74683751830175638, 0.1466705898954302756 ) ;
#77 = FACE_OUTER_BOUND ( 'NONE', #482, .T. ) ;
#78 = VERTEX_POINT ( 'NONE', #657 ) ;
#79 = CARTESIAN_POINT ( 'NONE',  ( -4.336808689942018722E-16, 0.000000000000000000, 208.1822196873589803 ) ) ;
#80 = EDGE_CURVE ( 'NONE', #83, #552, #591, .T. ) ;
#81 =( NAMED_UNIT ( * ) PLANE_ANGLE_UNIT ( ) SI_UNIT ( $, .RADIAN. ) );
#82 = CARTESIAN_POINT ( 'NONE',  ( -4.270550630502509257E-16, 0.000000000000000000, 205.0015975127436718 ) ) ;
#83 = VERTEX_POINT ( 'NONE', #464 ) ;
#84 = FACE_OUTER_BOUND ( 'NONE', #220, .T. ) ;
#85 = CYLINDRICAL_SURFACE ( 'NONE', #383, 20.00000000000000000 ) ;
#86 = ORIENTED_EDGE ( 'NONE', *, *, #764, .F. ) ;
#87 = DIRECTION ( 'NONE',  ( 2.083179195828967029E-18, -0.000000000000000000, -1.000000000000000000 ) ) ;
#88 = ORIENTED_EDGE ( 'NONE', *, *, #733, .T. ) ;
#89 = ADVANCED_FACE ( 'NONE', ( #189 ), #512, .T. ) ;
#90 = PRESENTATION_STYLE_ASSIGNMENT (( #44 ) ) ;
#91 = VERTEX_POINT ( 'NONE', #327 ) ;
#92 = AXIS2_PLACEMENT_3D ( 'NONE', #266, #394, #467 ) ;
#93 = CARTESIAN_POINT ( 'NONE',  ( -5.245260088533671999E-15, 1.500000000000000000, 208.1822196873589803 ) ) ;
#94 = FACE_OUTER_BOUND ( 'NONE', #538, .T. ) ;
#95 = ORIENTED_EDGE ( 'NONE', *, *, #616, .F. ) ;
#96 = EDGE_CURVE ( 'NONE', #429, #871, #598, .T. ) ;
#97 = ORIENTED_EDGE ( 'NONE', *, *, #236, .T. ) ;
#98 = CARTESIAN_POINT ( 'NONE',  ( -4.336808689942017736E-16, -5.000000000000000000, 208.1822196873589803 ) ) ;
#99 = DIRECTION ( 'NONE',  ( 0.5000000000000069944, -0.8660254037844344888, 0.000000000000000000 ) ) ;
#100 = ORIENTED_EDGE ( 'NONE', *, *, #11, .T. ) ;
#101 = EDGE_LOOP ( 'NONE', ( #173, #285, #288, #298 ) ) ;
#102 = B_SPLINE_CURVE_WITH_KNOTS ( 'NONE', 3,
 ( #569, #190, #561, #364 ),
 .UNSPECIFIED., .F., .F.,
 ( 4, 4 ),
 ( 0.004898174903071857676, 0.008114688984359170673 ),
 .UNSPECIFIED. ) ;
#103 = EDGE_LOOP ( 'NONE', ( #576, #475, #388, #874 ) ) ;
#104 = LINE ( 'NONE', #111, #877 ) ;
#105 = CARTESIAN_POINT ( 'NONE',  ( -2.000000000000005773, 1.499999999999993117, 245.6681330320781456 ) ) ;
#106 = DIRECTION ( 'NONE',  ( -1.000000000000000000, 0.000000000000000000, 0.000000000000000000 ) ) ;
#107 = VERTEX_POINT ( 'NONE', #817 ) ;
#108 = CARTESIAN_POINT ( 'NONE',  ( -8.138515722109842088, 24.09632272889281523, 206.0617961630308912 ) ) ;
#109 = CARTESIAN_POINT ( 'NONE',  ( -16.87863114288288102, -19.23464670168726443, 207.1220037233535436 ) ) ;
#110 = ORIENTED_EDGE ( 'NONE', *, *, #253, .T. ) ;
#111 = CARTESIAN_POINT ( 'NONE',  ( 2.299038105676666000, -0.9820508075688585414, 245.6681330320781456 ) ) ;
#112 = AXIS2_PLACEMENT_3D ( 'NONE', #461, #201, #743 ) ;
#113 = ADVANCED_FACE ( 'NONE', ( #277 ), #85, .F. ) ;
#114 = CARTESIAN_POINT ( 'NONE',  ( 22.09412594659871232, -5.000000000000000000, 203.9843907496689042 ) ) ;
#115 = DIRECTION ( 'NONE',  ( -1.000000000000000000, 0.000000000000000000, 0.000000000000000000 ) ) ;
#116 = EDGE_LOOP ( 'NONE', ( #212, #679, #717, #390 ) ) ;
#117 = CARTESIAN_POINT ( 'NONE',  ( -0.2990381056766386325, -2.482050807568879858, 205.0015975127436718 ) ) ;
#118 = DIRECTION ( 'NONE',  ( 0.000000000000000000, 1.000000000000000000, 0.000000000000000000 ) ) ;
#119 = CARTESIAN_POINT ( 'NONE',  ( -4.330127018922181215, 2.500000000000019984, 205.0015975127436718 ) ) ;
#120 = ORIENTED_EDGE ( 'NONE', *, *, #150, .F. ) ;
#121 = DIRECTION ( 'NONE',  ( -0.8660254037844432595, -0.4999999999999918954, 0.000000000000000000 ) ) ;
#122 = ADVANCED_FACE ( 'NONE', ( #77 ), #1, .T. ) ;
#123 = DIRECTION ( 'NONE',  ( -1.000000000000000000, 0.000000000000000000, 0.000000000000000000 ) ) ;
#124 = PRODUCT_DEFINITION_FORMATION_WITH_SPECIFIED_SOURCE ( 'ANY', '', #533, .NOT_KNOWN. ) ;
#125 = AXIS2_PLACEMENT_3D ( 'NONE', #286, #409, #339 ) ;
#126 = ORIENTED_EDGE ( 'NONE', *, *, #66, .F. ) ;
#127 = EDGE_LOOP ( 'NONE', ( #686, #234, #281, #829 ) ) ;
#128 = CARTESIAN_POINT ( 'NONE',  ( 11.27087344326601404, 16.52172544941602794, 205.0015975127436718 ) ) ;
#129 = VERTEX_POINT ( 'NONE', #211 ) ;
#130 = VECTOR ( 'NONE', #844, 1000.000000000000000 ) ;
#131 = CIRCLE ( 'NONE', #397, 2.500000000000000000 ) ;
#132 = VECTOR ( 'NONE', #365, 1000.000000000000000 ) ;
#133 = FACE_BOUND ( 'NONE', #101, .T. ) ;
#134 = VERTEX_POINT ( 'NONE', #331 ) ;
#135 = CARTESIAN_POINT ( 'NONE',  ( -6.716935954376960893, 21.63407434416745545, 203.9843907496689042 ) ) ;
#136 = ORIENTED_EDGE ( 'NONE', *, *, #592, .T. ) ;
#137 = FACE_OUTER_BOUND ( 'NONE', #15, .T. ) ;
#138 = EDGE_CURVE ( 'NONE', #436, #432, #474, .T. ) ;
#139 = ORIENTED_EDGE ( 'NONE', *, *, #400, .T. ) ;
#140 = LINE ( 'NONE', #149, #723 ) ;
#141 = AXIS2_PLACEMENT_3D ( 'NONE', #790, #183, #178 ) ;
#142 = VERTEX_POINT ( 'NONE', #689 ) ;
#143 = EDGE_CURVE ( 'NONE', #643, #230, #472, .T. ) ;
#144 = DIRECTION ( 'NONE',  ( -1.000000000000000000, 0.000000000000000000, 0.000000000000000000 ) ) ;
#145 = SHAPE_DEFINITION_REPRESENTATION ( #615, #401 ) ;
#146 = ORIENTED_EDGE ( 'NONE', *, *, #641, .F. ) ;
#147 = APPLICATION_CONTEXT ( 'automotive_design' ) ;
#148 = VERTEX_POINT ( 'NONE', #470 ) ;
#149 = CARTESIAN_POINT ( 'NONE',  ( 2.299038105676645127, 0.9820508075689072802, 245.6681330320781456 ) ) ;
#150 = EDGE_CURVE ( 'NONE', #471, #822, #221, .T. ) ;
#151 = ORIENTED_EDGE ( 'NONE', *, *, #391, .F. ) ;
#152 = DIRECTION ( 'NONE',  ( -0.4999999999999888978, -0.8660254037844450359, -1.041589597914460211E-18 ) ) ;
#153 = EDGE_LOOP ( 'NONE', ( #609, #625, #752, #151 ) ) ;
#154 = DIRECTION ( 'NONE',  ( 2.083179195828967414E-18, -0.000000000000000000, -1.000000000000000000 ) ) ;
#155 = AXIS2_PLACEMENT_3D ( 'NONE', #275, #208, #880 ) ;
#156 = CARTESIAN_POINT ( 'NONE',  ( -16.95846461927376225, 19.37292233894181948, 208.1822196873589803 ) ) ;
#157 = CARTESIAN_POINT ( 'NONE',  ( 8.672797231912905858, 18.02172544941587873, 245.6681330320781456 ) ) ;
#158 = ORIENTED_EDGE ( 'NONE', *, *, #138, .F. ) ;
#159 = EDGE_CURVE ( 'NONE', #618, #24, #753, .T. ) ;
#160 = VECTOR ( 'NONE', #650, 1000.000000000000000 ) ;
#161 = DIRECTION ( 'NONE',  ( -0.4999999999999888978, -0.8660254037844450359, 0.000000000000000000 ) ) ;
#162 = CIRCLE ( 'NONE', #125, 2.500000000000000000 ) ;
#163 = EDGE_LOOP ( 'NONE', ( #449, #265, #378, #338 ) ) ;
#164 = VECTOR ( 'NONE', #485, 1000.000000000000227 ) ;
#165 = CARTESIAN_POINT ( 'NONE',  ( 25.25667520070349781, -5.000000000000000000, 208.1822196873589803 ) ) ;
#166 = LINE ( 'NONE', #423, #164 ) ;
#167 = EDGE_LOOP ( 'NONE', ( #600, #778, #225, #272 ) ) ;
#168 = CARTESIAN_POINT ( 'NONE',  ( -2.000000000000005773, 1.499999999999993117, 208.1822196873589803 ) ) ;
#169 = SURFACE_SIDE_STYLE ('',( #371 ) ) ;
#170 = ORIENTED_EDGE ( 'NONE', *, *, #205, .T. ) ;
#171 = CARTESIAN_POINT ( 'NONE',  ( -1.299038105676658894, 0.7500000000000004441, 205.0015975127436718 ) ) ;
#172 = LINE ( 'NONE', #642, #55 ) ;
#173 = ORIENTED_EDGE ( 'NONE', *, *, #544, .T. ) ;
#174 = CARTESIAN_POINT ( 'NONE',  ( -8.298210581429328769, 24.37292233894174132, 208.1822196873589803 ) ) ;
#175 = CARTESIAN_POINT ( 'NONE',  ( -1.999999999999995337, -1.500000000000006217, 208.1822196873589803 ) ) ;
#176 = ORIENTED_EDGE ( 'NONE', *, *, #80, .T. ) ;
#177 = ADVANCED_FACE ( 'NONE', ( #73, #751, #814, #133 ), #337, .F. ) ;
#178 = DIRECTION ( 'NONE',  ( -1.000000000000000000, 0.000000000000000000, 0.000000000000000000 ) ) ;
#179 = B_SPLINE_CURVE_WITH_KNOTS ( 'NONE', 3,
 ( #174, #441, #108, #187 ),
 .UNSPECIFIED., .F., .F.,
 ( 4, 4 ),
 ( 2.022552752957277084E-07, 0.003216716336588278189 ),
 .UNSPECIFIED. ) ;
#180 = PLANE ( 'NONE',  #566 ) ;
#181 = VECTOR ( 'NONE', #873, 1000.000000000000114 ) ;
#182 = ORIENTED_EDGE ( 'NONE', *, *, #849, .F. ) ;
#183 = DIRECTION ( 'NONE',  ( 0.000000000000000000, 0.000000000000000000, -1.000000000000000000 ) ) ;
#184 = EDGE_CURVE ( 'NONE', #771, #51, #328, .T. ) ;
#185 = AXIS2_PLACEMENT_3D ( 'NONE', #539, #361, #636 ) ;
#186 = PLANE ( 'NONE',  #489 ) ;
#187 = CARTESIAN_POINT ( 'NONE',  ( -8.058624783837929684, 23.95794756474151299, 205.0015975127436718 ) ) ;
#188 = ORIENTED_EDGE ( 'NONE', *, *, #651, .F. ) ;
#189 = FACE_OUTER_BOUND ( 'NONE', #116, .T. ) ;
#190 = CARTESIAN_POINT ( 'NONE',  ( 25.09700824792119889, -5.000000000000000000, 207.1220037233535436 ) ) ;
#191 = ADVANCED_FACE ( 'NONE', ( #137 ), #407, .F. ) ;
#192 = FACE_OUTER_BOUND ( 'NONE', #648, .T. ) ;
#193 = DIRECTION ( 'NONE',  ( 0.8660254037844345998, 0.5000000000000071054, 1.804086104223115455E-18 ) ) ;
#194 = VERTEX_POINT ( 'NONE', #175 ) ;
#195 = EDGE_CURVE ( 'NONE', #545, #842, #801, .T. ) ;
#196 = VECTOR ( 'NONE', #273, 1000.000000000000000 ) ;
#197 = AXIS2_PLACEMENT_3D ( 'NONE', #10, #543, #634 ) ;
#198 = DIRECTION ( 'NONE',  ( -1.000000000000000000, -3.528676379506802033E-15, 0.000000000000000000 ) ) ;
#199 = CARTESIAN_POINT ( 'NONE',  ( -7.027011649535582549, 22.17114120237443942, 208.1822196873589803 ) ) ;
#200 = DIRECTION ( 'NONE',  ( -1.000000000000000000, 1.776356839400250465E-15, 0.000000000000000000 ) ) ;
#201 = DIRECTION ( 'NONE',  ( -0.4946315688002468347, -0.8567270081895191902, -0.1461452858796419008 ) ) ;
#202 = CARTESIAN_POINT ( 'NONE',  ( 1.299038105676651789, 0.7500000000000105471, 245.6681330320781456 ) ) ;
#203 = EDGE_CURVE ( 'NONE', #863, #720, #289, .T. ) ;
#204 = AXIS2_PLACEMENT_3D ( 'NONE', #744, #396, #674 ) ;
#205 = EDGE_CURVE ( 'NONE', #230, #142, #490, .T. ) ;
#206 = CARTESIAN_POINT ( 'NONE',  ( -16.71887882168236317, 18.95794756474159826, 205.0015975127436718 ) ) ;
#207 = CIRCLE ( 'NONE', #585, 20.00000000000000000 ) ;
#208 = DIRECTION ( 'NONE',  ( -0.8660254037844432595, -0.4999999999999919509, -1.804086104223132788E-18 ) ) ;
#209 = ORIENTED_EDGE ( 'NONE', *, *, #457, .T. ) ;
#210 = CARTESIAN_POINT ( 'NONE',  ( 2.299038105676645127, 0.9820508075689070582, 205.0015975127436718 ) ) ;
#211 = CARTESIAN_POINT ( 'NONE',  ( -15.68726568738001603, 17.17114120237451758, 208.1822196873589803 ) ) ;
#212 = ORIENTED_EDGE ( 'NONE', *, *, #733, .F. ) ;
#213 = ADVANCED_FACE ( 'NONE', ( #354 ), #698, .T. ) ;
#214 = EDGE_LOOP ( 'NONE', ( #859, #30, #276, #53 ) ) ;
#215 = DIRECTION ( 'NONE',  ( 0.000000000000000000, 0.000000000000000000, -1.000000000000000000 ) ) ;
#216 = CARTESIAN_POINT ( 'NONE',  ( 5.286388763316248702E-15, -1.499999999999999112, 208.1822196873589803 ) ) ;
#217 = ORIENTED_EDGE ( 'NONE', *, *, #356, .F. ) ;
#218 = ADVANCED_FACE ( 'NONE', ( #781 ), #793, .F. ) ;
#219 = DIRECTION ( 'NONE',  ( -1.000000000000000000, -1.776356839400250465E-15, 0.000000000000000000 ) ) ;
#220 = EDGE_LOOP ( 'NONE', ( #415, #170, #433, #95 ) ) ;
#221 = CIRCLE ( 'NONE', #454, 25.74683751830175638 ) ;
#222 = CARTESIAN_POINT ( 'NONE',  ( -4.330127018922216742, -2.499999999999959588, 205.0015975127436718 ) ) ;
#223 = EDGE_CURVE ( 'NONE', #293, #462, #623, .T. ) ;
#224 = FACE_OUTER_BOUND ( 'NONE', #34, .T. ) ;
#225 = ORIENTED_EDGE ( 'NONE', *, *, #597, .F. ) ;
#226 = CIRCLE ( 'NONE', #735, 20.00000000000000000 ) ;
#227 = LINE ( 'NONE', #551, #775 ) ;
#228 = ORIENTED_EDGE ( 'NONE', *, *, #457, .F. ) ;
#229 = CIRCLE ( 'NONE', #385, 25.27695956640337016 ) ;
#230 = VERTEX_POINT ( 'NONE', #647 ) ;
#231 = CARTESIAN_POINT ( 'NONE',  ( 22.71427733691596629, -5.000000000000000000, 208.1822196873589803 ) ) ;
#232 = LINE ( 'NONE', #105, #132 ) ;
#233 = DIRECTION ( 'NONE',  ( 2.083179195828967414E-18, -0.000000000000000000, -1.000000000000000000 ) ) ;
#234 = ORIENTED_EDGE ( 'NONE', *, *, #519, .F. ) ;
#235 = FACE_BOUND ( 'NONE', #103, .T. ) ;
#236 = EDGE_CURVE ( 'NONE', #842, #373, #362, .T. ) ;
#237 = CARTESIAN_POINT ( 'NONE',  ( -5.117707438105683415E-16, 0.000000000000000000, 245.6681330320781456 ) ) ;
#238 = ORIENTED_EDGE ( 'NONE', *, *, #811, .F. ) ;
#239 = DIRECTION ( 'NONE',  ( 2.083179195828967029E-18, -0.000000000000000000, -1.000000000000000000 ) ) ;
#240 = MANIFOLD_SOLID_BREP ( 'Cut-Extrude2', #278 ) ;
#241 = DIRECTION ( 'NONE',  ( 3.528676379506802428E-15, -1.000000000000000000, 7.350865222601651623E-33 ) ) ;
#242 = FACE_OUTER_BOUND ( 'NONE', #671, .T. ) ;
#243 = ORIENTED_EDGE ( 'NONE', *, *, #69, .F. ) ;
#244 =( NAMED_UNIT ( * ) PLANE_ANGLE_UNIT ( ) SI_UNIT ( $, .RADIAN. ) );
#245 = VERTEX_POINT ( 'NONE', #36 ) ;
#246 = FACE_OUTER_BOUND ( 'NONE', #127, .T. ) ;
#247 = CARTESIAN_POINT ( 'NONE',  ( -16.95846461927376225, 19.37292233894181948, 208.1822196873589803 ) ) ;
#248 = LINE ( 'NONE', #460, #349 ) ;
#249 = STYLED_ITEM ( 'NONE', ( #90 ), #240 ) ;
#250 = CARTESIAN_POINT ( 'NONE',  ( 11.27087344326635865, -16.52172544941578280, 245.6681330320781456 ) ) ;
#251 = PLANE ( 'NONE',  #282 ) ;
#252 = VECTOR ( 'NONE', #878, 1000.000000000000000 ) ;
#253 = EDGE_CURVE ( 'NONE', #471, #845, #583, .T. ) ;
#254 = ORIENTED_EDGE ( 'NONE', *, *, #494, .T. ) ;
#255 = DIRECTION ( 'NONE',  ( 1.000000000000000000, 0.000000000000000000, 0.000000000000000000 ) ) ;
#256 = EDGE_LOOP ( 'NONE', ( #710, #421, #500, #360 ) ) ;
#257 = DIRECTION ( 'NONE',  ( 2.083179195828967414E-18, -0.000000000000000000, -1.000000000000000000 ) ) ;
#258 = CARTESIAN_POINT ( 'NONE',  ( -1.299038105676658894, 0.7500000000000004441, 208.1822196873589803 ) ) ;
#259 = ORIENTED_EDGE ( 'NONE', *, *, #391, .T. ) ;
#260 = FACE_OUTER_BOUND ( 'NONE', #691, .T. ) ;
#261 = VECTOR ( 'NONE', #450, 1000.000000000000000 ) ;
#262 = FACE_OUTER_BOUND ( 'NONE', #763, .T. ) ;
#263 = EDGE_CURVE ( 'NONE', #436, #652, #131, .T. ) ;
#264 = CARTESIAN_POINT ( 'NONE',  ( -1.299038105676652011, -0.7500000000000103251, 245.6681330320781456 ) ) ;
#265 = ORIENTED_EDGE ( 'NONE', *, *, #597, .T. ) ;
#266 = CARTESIAN_POINT ( 'NONE',  ( -5.117707438105683415E-16, 0.000000000000000000, 245.6681330320781456 ) ) ;
#267 = CARTESIAN_POINT ( 'NONE',  ( -4.336808689942017736E-16, 0.000000000000000000, 208.1822196873589803 ) ) ;
#268 = ORIENTED_EDGE ( 'NONE', *, *, #526, .T. ) ;
#269 = LINE ( 'NONE', #216, #448 ) ;
#270 = EDGE_CURVE ( 'NONE', #148, #9, #639, .T. ) ;
#271 = CIRCLE ( 'NONE', #466, 2.500000000000000000 ) ;
#272 = ORIENTED_EDGE ( 'NONE', *, *, #484, .F. ) ;
#273 = DIRECTION ( 'NONE',  ( 0.4999999999999919509, -0.8660254037844432595, 1.041589597914466759E-18 ) ) ;
#274 = EDGE_CURVE ( 'NONE', #148, #405, #481, .T. ) ;
#275 = CARTESIAN_POINT ( 'NONE',  ( 4.330127018922216742, 2.499999999999959588, 9.020430521115663171E-18 ) ) ;
#276 = ORIENTED_EDGE ( 'NONE', *, *, #66, .T. ) ;
#277 = FACE_OUTER_BOUND ( 'NONE', #22, .T. ) ;
#278 = CLOSED_SHELL ( 'NONE', ( #729, #177, #376, #89, #530, #815, #881, #213, #606, #742, #122, #346, #333, #864, #435, #59, #714, #191, #556, #624, #113, #682, #821, #418, #218, #49 ) ) ;
#279 = ORIENTED_EDGE ( 'NONE', *, *, #326, .F. ) ;
#280 = DIRECTION ( 'NONE',  ( 1.000000000000000000, 3.492422855059813739E-15, 2.083179195828967029E-18 ) ) ;
#281 = ORIENTED_EDGE ( 'NONE', *, *, #414, .F. ) ;
#282 = AXIS2_PLACEMENT_3D ( 'NONE', #374, #430, #121 ) ;
#283 = CARTESIAN_POINT ( 'NONE',  ( 0.000000000000000000, -5.000000000000000000, 0.000000000000000000 ) ) ;
#284 = EDGE_CURVE ( 'NONE', #51, #558, #805, .T. ) ;
#285 = ORIENTED_EDGE ( 'NONE', *, *, #203, .F. ) ;
#286 = CARTESIAN_POINT ( 'NONE',  ( -4.270550630502509257E-16, 0.000000000000000000, 205.0015975127436718 ) ) ;
#287 = CARTESIAN_POINT ( 'NONE',  ( -1.299038105676652011, -0.7500000000000103251, 205.0015975127436718 ) ) ;
#288 = ORIENTED_EDGE ( 'NONE', *, *, #511, .F. ) ;
#289 = LINE ( 'NONE', #428, #837 ) ;
#290 = EDGE_LOOP ( 'NONE', ( #748, #510, #350, #479 ) ) ;
#291 = DIRECTION ( 'NONE',  ( 2.083179195828967414E-18, -0.000000000000000000, -1.000000000000000000 ) ) ;
#292 = DIRECTION ( 'NONE',  ( 2.083179195828967414E-18, -0.000000000000000000, -1.000000000000000000 ) ) ;
#293 = VERTEX_POINT ( 'NONE', #590 ) ;
#294 = VERTEX_POINT ( 'NONE', #310 ) ;
#295 = CARTESIAN_POINT ( 'NONE',  ( 22.71427733691596629, 5.000000000000000000, 208.1822196873589803 ) ) ;
#296 = EDGE_CURVE ( 'NONE', #845, #107, #872, .T. ) ;
#297 = CARTESIAN_POINT ( 'NONE',  ( -1.999999999999995337, -1.500000000000006217, 245.6681330320781456 ) ) ;
#298 = ORIENTED_EDGE ( 'NONE', *, *, #673, .T. ) ;
#299 = CARTESIAN_POINT ( 'NONE',  ( -4.270550630502509257E-16, 0.000000000000000000, 205.0015975127436718 ) ) ;
#300 = VECTOR ( 'NONE', #582, 1000.000000000000227 ) ;
#301 = ORIENTED_EDGE ( 'NONE', *, *, #253, .F. ) ;
#302 = AXIS2_PLACEMENT_3D ( 'NONE', #507, #23, #628 ) ;
#303 = DIRECTION ( 'NONE',  ( -0.4999999999999998890, -0.8660254037844385966, 0.000000000000000000 ) ) ;
#304 = PLANE ( 'NONE',  #605 ) ;
#305 = CARTESIAN_POINT ( 'NONE',  ( -5.117707438105683415E-16, 0.000000000000000000, 245.6681330320781456 ) ) ;
#306 = ORIENTED_EDGE ( 'NONE', *, *, #673, .F. ) ;
#307 = ORIENTED_EDGE ( 'NONE', *, *, #329, .F. ) ;
#308 = LINE ( 'NONE', #98, #325 ) ;
#309 = CARTESIAN_POINT ( 'NONE',  ( -4.330127018922216742, -2.499999999999959588, -9.020430521115663171E-18 ) ) ;
#310 = CARTESIAN_POINT ( 'NONE',  ( 8.672797231913051519, -18.02172544941580767, 205.0015975127436718 ) ) ;
#311 = EDGE_CURVE ( 'NONE', #667, #462, #687, .T. ) ;
#312 = ORIENTED_EDGE ( 'NONE', *, *, #540, .T. ) ;
#313 = LINE ( 'NONE', #437, #335 ) ;
#314 = CARTESIAN_POINT ( 'NONE',  ( -1.999999999999995337, -1.500000000000006217, 205.0015975127436718 ) ) ;
#315 = EDGE_CURVE ( 'NONE', #767, #771, #63, .T. ) ;
#316 = AXIS2_PLACEMENT_3D ( 'NONE', #730, #584, #868 ) ;
#317 = CARTESIAN_POINT ( 'NONE',  ( -4.336808689942017736E-16, 0.000000000000000000, 208.1822196873589803 ) ) ;
#318 = ORIENTED_EDGE ( 'NONE', *, *, #811, .T. ) ;
#319 = LINE ( 'NONE', #54, #745 ) ;
#320 = CARTESIAN_POINT ( 'NONE',  ( 4.330127018922181215, -2.500000000000019984, 208.1822196873589803 ) ) ;
#321 = AXIS2_PLACEMENT_3D ( 'NONE', #402, #678, #70 ) ;
#322 = LINE ( 'NONE', #517, #794 ) ;
#323 = EDGE_CURVE ( 'NONE', #134, #230, #60, .T. ) ;
#324 = CARTESIAN_POINT ( 'NONE',  ( -4.270550630502509257E-16, 0.000000000000000000, 205.0015975127436718 ) ) ;
#325 = VECTOR ( 'NONE', #504, 1000.000000000000000 ) ;
#326 = EDGE_CURVE ( 'NONE', #24, #37, #862, .T. ) ;
#327 = CARTESIAN_POINT ( 'NONE',  ( -6.792072673586701193, -21.76421495935214168, 205.0015975127436718 ) ) ;
#328 = LINE ( 'NONE', #135, #680 ) ;
#329 = EDGE_CURVE ( 'NONE', #581, #37, #248, .T. ) ;
#330 = ORIENTED_EDGE ( 'NONE', *, *, #270, .F. ) ;
#331 = CARTESIAN_POINT ( 'NONE',  ( -7.027011649535893412, -22.17114120237434349, 208.1822196873589803 ) ) ;
#332 = ORIENTED_EDGE ( 'NONE', *, *, #788, .F. ) ;
#333 = ADVANCED_FACE ( 'NONE', ( #392 ), #670, .F. ) ;
#334 = DIRECTION ( 'NONE',  ( -2.083179195828967029E-18, 0.000000000000000000, 1.000000000000000000 ) ) ;
#335 = VECTOR ( 'NONE', #715, 1000.000000000000114 ) ;
#336 = VECTOR ( 'NONE', #292, 1000.000000000000000 ) ;
#337 = PLANE ( 'NONE',  #321 ) ;
#338 = ORIENTED_EDGE ( 'NONE', *, *, #184, .F. ) ;
#339 = DIRECTION ( 'NONE',  ( -1.000000000000000000, 0.000000000000000000, 0.000000000000000000 ) ) ;
#340 = ORIENTED_EDGE ( 'NONE', *, *, #550, .F. ) ;
#341 = DIRECTION ( 'NONE',  ( 0.000000000000000000, 0.000000000000000000, -1.000000000000000000 ) ) ;
#342 = ORIENTED_EDGE ( 'NONE', *, *, #11, .F. ) ;
#343 = CARTESIAN_POINT ( 'NONE',  ( -4.336808689942017736E-16, 0.000000000000000000, 208.1822196873589803 ) ) ;
#344 =( NAMED_UNIT ( * ) SI_UNIT ( $, .STERADIAN. ) SOLID_ANGLE_UNIT ( ) );
#345 = EDGE_LOOP ( 'NONE', ( #254, #480, #330, #560 ) ) ;
#346 = ADVANCED_FACE ( 'NONE', ( #192 ), #455, .T. ) ;
#347 = DIRECTION ( 'NONE',  ( 2.083179195828967414E-18, -0.000000000000000000, -1.000000000000000000 ) ) ;
#348 = VERTEX_POINT ( 'NONE', #854 ) ;
#349 = VECTOR ( 'NONE', #740, 1000.000000000000000 ) ;
#350 = ORIENTED_EDGE ( 'NONE', *, *, #656, .F. ) ;
#351 = DIRECTION ( 'NONE',  ( -3.124768793743433788E-18, 1.804086104223132788E-18, 1.000000000000000000 ) ) ;
#352 = ORIENTED_EDGE ( 'NONE', *, *, #465, .T. ) ;
#353 = DIRECTION ( 'NONE',  ( 0.8660254037844432595, 0.4999999999999918954, 1.765553631139798968E-18 ) ) ;
#354 = FACE_OUTER_BOUND ( 'NONE', #614, .T. ) ;
#355 = ORIENTED_EDGE ( 'NONE', *, *, #356, .T. ) ;
#356 = EDGE_CURVE ( 'NONE', #552, #373, #589, .T. ) ;
#357 = CARTESIAN_POINT ( 'NONE',  ( -19.94367067517913839, 1.499999999999930500, 205.0015975127436718 ) ) ;
#358 = DIRECTION ( 'NONE',  ( -1.000000000000000000, 0.000000000000000000, 0.000000000000000000 ) ) ;
#359 = DIRECTION ( 'NONE',  ( 0.5000000000000067724, -0.8660254037844345998, 0.000000000000000000 ) ) ;
#360 = ORIENTED_EDGE ( 'NONE', *, *, #3, .F. ) ;
#361 = DIRECTION ( 'NONE',  ( 3.492422855059813739E-15, -1.000000000000000000, 7.275342634698206562E-33 ) ) ;
#362 = LINE ( 'NONE', #712, #130 ) ;
#363 = ORIENTED_EDGE ( 'NONE', *, *, #469, .F. ) ;
#364 = CARTESIAN_POINT ( 'NONE',  ( 24.77750360552069253, -5.000000000000000000, 205.0015975127436718 ) ) ;
#365 = DIRECTION ( 'NONE',  ( 2.083179195828967414E-18, -0.000000000000000000, -1.000000000000000000 ) ) ;
#366 = DIRECTION ( 'NONE',  ( 0.000000000000000000, -1.000000000000000000, 0.000000000000000000 ) ) ;
#367 = ORIENTED_EDGE ( 'NONE', *, *, #523, .T. ) ;
#368 = FACE_OUTER_BOUND ( 'NONE', #167, .T. ) ;
#369 = ORIENTED_EDGE ( 'NONE', *, *, #80, .F. ) ;
#370 = B_SPLINE_CURVE_WITH_KNOTS ( 'NONE', 3,
 ( #156, #72, #688, #206 ),
 .UNSPECIFIED., .F., .F.,
 ( 4, 4 ),
 ( 2.022552752957276819E-07, 0.003216716336588278189 ),
 .UNSPECIFIED. ) ;
#371 = SURFACE_STYLE_FILL_AREA ( #858 ) ;
#372 = CIRCLE ( 'NONE', #425, 20.00000000000000000 ) ;
#373 = VERTEX_POINT ( 'NONE', #380 ) ;
#374 = CARTESIAN_POINT ( 'NONE',  ( -15.37718999222139438, 16.63407434416753361, 203.9843907496689042 ) ) ;
#375 = DIRECTION ( 'NONE',  ( -0.1461452858796418175, 0.000000000000000000, -0.9892631376004857868 ) ) ;
#376 = ADVANCED_FACE ( 'NONE', ( #655 ), #760, .T. ) ;
#377 = DIRECTION ( 'NONE',  ( -2.083179195828967029E-18, 0.000000000000000000, 1.000000000000000000 ) ) ;
#378 = ORIENTED_EDGE ( 'NONE', *, *, #693, .T. ) ;
#379 = CARTESIAN_POINT ( 'NONE',  ( -4.336808689942018722E-16, 0.000000000000000000, 208.1822196873589803 ) ) ;
#380 = CARTESIAN_POINT ( 'NONE',  ( 22.24439938501758007, 5.000000000000000000, 205.0015975127436718 ) ) ;
#381 = DIRECTION ( 'NONE',  ( 1.000000000000000000, 0.000000000000000000, 2.083179195828967029E-18 ) ) ;
#382 = DIRECTION ( 'NONE',  ( -0.8660254037844387076, 0.4999999999999999445, -1.804086104223123929E-18 ) ) ;
#383 = AXIS2_PLACEMENT_3D ( 'NONE', #416, #347, #681 ) ;
#384 = DIRECTION ( 'NONE',  ( 0.000000000000000000, 0.000000000000000000, -1.000000000000000000 ) ) ;
#385 = AXIS2_PLACEMENT_3D ( 'NONE', #826, #87, #761 ) ;
#386 = VECTOR ( 'NONE', #798, 1000.000000000000114 ) ;
#387 = ORIENTED_EDGE ( 'NONE', *, *, #797, .T. ) ;
#388 = ORIENTED_EDGE ( 'NONE', *, *, #523, .F. ) ;
#389 = CARTESIAN_POINT ( 'NONE',  ( 4.330127018922217630, 2.499999999999960032, 208.1822196873589803 ) ) ;
#390 = ORIENTED_EDGE ( 'NONE', *, *, #400, .F. ) ;
#391 = EDGE_CURVE ( 'NONE', #142, #91, #632, .T. ) ;
#392 = FACE_OUTER_BOUND ( 'NONE', #153, .T. ) ;
#393 = PRODUCT_DEFINITION ( 'UNKNOWN', '', #124, #408 ) ;
#394 = DIRECTION ( 'NONE',  ( 2.083179195828967414E-18, -0.000000000000000000, -1.000000000000000000 ) ) ;
#395 = VECTOR ( 'NONE', #595, 1000.000000000000000 ) ;
#396 = DIRECTION ( 'NONE',  ( -2.083179195828967029E-18, 0.000000000000000000, 1.000000000000000000 ) ) ;
#397 = AXIS2_PLACEMENT_3D ( 'NONE', #299, #725, #115 ) ;
#398 = AXIS2_PLACEMENT_3D ( 'NONE', #524, #809, #200 ) ;
#399 = LINE ( 'NONE', #676, #57 ) ;
#400 = EDGE_CURVE ( 'NONE', #767, #842, #596, .T. ) ;
#401 = ADVANCED_BREP_SHAPE_REPRESENTATION ( 'bottom holder', ( #240, #197 ), #58 ) ;
#402 = CARTESIAN_POINT ( 'NONE',  ( -4.336808689942017736E-16, 0.000000000000000000, 208.1822196873589803 ) ) ;
#403 = ORIENTED_EDGE ( 'NONE', *, *, #270, .T. ) ;
#404 = AXIS2_PLACEMENT_3D ( 'NONE', #283, #496, #442 ) ;
#405 = VERTEX_POINT ( 'NONE', #562 ) ;
#406 = EDGE_LOOP ( 'NONE', ( #301, #419, #412, #86 ) ) ;
#407 = PLANE ( 'NONE',  #505 ) ;
#408 = PRODUCT_DEFINITION_CONTEXT ( 'detailed design', #147, 'design' ) ;
#409 = DIRECTION ( 'NONE',  ( 0.000000000000000000, 0.000000000000000000, -1.000000000000000000 ) ) ;
#410 = VECTOR ( 'NONE', #154, 1000.000000000000000 ) ;
#411 = AXIS2_PLACEMENT_3D ( 'NONE', #779, #377, #799 ) ;
#412 = ORIENTED_EDGE ( 'NONE', *, *, #665, .T. ) ;
#413 = CARTESIAN_POINT ( 'NONE',  ( -19.94367067517913839, 1.499999999999930500, 245.6681330320781456 ) ) ;
#414 = EDGE_CURVE ( 'NONE', #741, #78, #232, .T. ) ;
#415 = ORIENTED_EDGE ( 'NONE', *, *, #143, .T. ) ;
#416 = CARTESIAN_POINT ( 'NONE',  ( -5.117707438105683415E-16, 0.000000000000000000, 245.6681330320781456 ) ) ;
#417 = ORIENTED_EDGE ( 'NONE', *, *, #311, .T. ) ;
#418 = ADVANCED_FACE ( 'NONE', ( #40 ), #304, .T. ) ;
#419 = ORIENTED_EDGE ( 'NONE', *, *, #150, .T. ) ;
#420 = CARTESIAN_POINT ( 'NONE',  ( 24.77750360552069253, 5.000000000000000000, 205.0015975127436718 ) ) ;
#421 = ORIENTED_EDGE ( 'NONE', *, *, #69, .T. ) ;
#422 = COLOUR_RGB ( '',0.7921568627450980005, 0.8196078431372548767, 0.9333333333333333481 ) ;
#423 = CARTESIAN_POINT ( 'NONE',  ( -6.716935954377264650, -21.63407434416736308, 203.9843907496689042 ) ) ;
#424 = ORIENTED_EDGE ( 'NONE', *, *, #511, .T. ) ;
#425 = AXIS2_PLACEMENT_3D ( 'NONE', #79, #700, #757 ) ;
#426 = AXIS2_PLACEMENT_3D ( 'NONE', #305, #861, #106 ) ;
#427 = EDGE_CURVE ( 'NONE', #405, #704, #399, .T. ) ;
#428 = CARTESIAN_POINT ( 'NONE',  ( -1.299038105676652011, -0.7500000000000103251, 208.1822196873589803 ) ) ;
#429 = VERTEX_POINT ( 'NONE', #883 ) ;
#430 = DIRECTION ( 'NONE',  ( -0.4946315688002349553, 0.8567270081895260736, -0.1461452858796418175 ) ) ;
#431 = CARTESIAN_POINT ( 'NONE',  ( 22.24439938501758007, 0.000000000000000000, 205.0015975127436718 ) ) ;
#432 = VERTEX_POINT ( 'NONE', #128 ) ;
#433 = ORIENTED_EDGE ( 'NONE', *, *, #465, .F. ) ;
#434 =( LENGTH_UNIT ( ) NAMED_UNIT ( * ) SI_UNIT ( .MILLI., .METRE. ) );
#435 = ADVANCED_FACE ( 'NONE', ( #262 ), #820, .T. ) ;
#436 = VERTEX_POINT ( 'NONE', #210 ) ;
#437 = CARTESIAN_POINT ( 'NONE',  ( -4.330127018922181215, 2.500000000000019984, 208.1822196873589803 ) ) ;
#438 = CARTESIAN_POINT ( 'NONE',  ( 4.330127018922181215, -2.500000000000019984, 205.0015975127436718 ) ) ;
#439 = CARTESIAN_POINT ( 'NONE',  ( 22.71427733691596274, 0.000000000000000000, 208.1822196873589803 ) ) ;
#440 = ORIENTED_EDGE ( 'NONE', *, *, #592, .F. ) ;
#441 = CARTESIAN_POINT ( 'NONE',  ( -8.218377105038182862, 24.23464670168742074, 207.1220037233535436 ) ) ;
#442 = DIRECTION ( 'NONE',  ( 0.000000000000000000, -0.000000000000000000, 1.000000000000000000 ) ) ;
#443 = ORIENTED_EDGE ( 'NONE', *, *, #143, .F. ) ;
#444 = CARTESIAN_POINT ( 'NONE',  ( -15.37718999222162708, -16.63407434416732400, 203.9843907496689042 ) ) ;
#445 = DIRECTION ( 'NONE',  ( 0.8660254037844363761, -0.5000000000000039968, 1.804086104223118536E-18 ) ) ;
#446 = FACE_BOUND ( 'NONE', #290, .T. ) ;
#447 = CARTESIAN_POINT ( 'NONE',  ( -16.71887882168262607, -18.95794756474136378, 205.0015975127436718 ) ) ;
#448 = VECTOR ( 'NONE', #692, 1000.000000000000000 ) ;
#449 = ORIENTED_EDGE ( 'NONE', *, *, #25, .T. ) ;
#450 = DIRECTION ( 'NONE',  ( 0.000000000000000000, 1.000000000000000000, 0.000000000000000000 ) ) ;
#451 = CARTESIAN_POINT ( 'NONE',  ( -11.35713866845807374, -19.67114120237432218, 208.1822196873589803 ) ) ;
#452 = DIRECTION ( 'NONE',  ( 2.083179195828967414E-18, -0.000000000000000000, -1.000000000000000000 ) ) ;
#453 = CARTESIAN_POINT ( 'NONE',  ( 11.27087344326601404, 16.52172544941602794, 245.6681330320781456 ) ) ;
#454 = AXIS2_PLACEMENT_3D ( 'NONE', #599, #827, #531 ) ;
#455 = PLANE ( 'NONE',  #112 ) ;
#456 = CARTESIAN_POINT ( 'NONE',  ( -11.12219969250861062, 19.26421495935227313, 205.0015975127436718 ) ) ;
#457 = EDGE_CURVE ( 'NONE', #462, #436, #140, .T. ) ;
#458 = DIRECTION ( 'NONE',  ( 0.8660254037844347108, 0.5000000000000067724, 1.804086104223115070E-18 ) ) ;
#459 = VECTOR ( 'NONE', #593, 1000.000000000000114 ) ;
#460 = CARTESIAN_POINT ( 'NONE',  ( -19.94367067517912417, -1.500000000000069722, 245.6681330320781456 ) ) ;
#461 = CARTESIAN_POINT ( 'NONE',  ( -6.716935954377264650, -21.63407434416736308, 203.9843907496689042 ) ) ;
#462 = VERTEX_POINT ( 'NONE', #696 ) ;
#463 = PRODUCT_RELATED_PRODUCT_CATEGORY ( 'part', '', ( #533 ) ) ;
#464 = CARTESIAN_POINT ( 'NONE',  ( 24.77750360552069253, -5.000000000000000000, 205.0015975127436718 ) ) ;
#465 = EDGE_CURVE ( 'NONE', #83, #142, #229, .T. ) ;
#466 = AXIS2_PLACEMENT_3D ( 'NONE', #483, #823, #626 ) ;
#467 = DIRECTION ( 'NONE',  ( -1.000000000000000000, 0.000000000000000000, 0.000000000000000000 ) ) ;
#468 = DIRECTION ( 'NONE',  ( 0.8660254037844363761, -0.5000000000000039968, 1.765553631139785101E-18 ) ) ;
#469 = EDGE_CURVE ( 'NONE', #429, #293, #495, .T. ) ;
#470 = CARTESIAN_POINT ( 'NONE',  ( 8.672797231912905858, 18.02172544941587518, 208.1822196873589803 ) ) ;
#471 = VERTEX_POINT ( 'NONE', #619 ) ;
#472 = CIRCLE ( 'NONE', #882, 25.74683751830175638 ) ;
#473 = AXIS2_PLACEMENT_3D ( 'NONE', #82, #341, #746 ) ;
#474 = LINE ( 'NONE', #685, #541 ) ;
#475 = ORIENTED_EDGE ( 'NONE', *, *, #550, .T. ) ;
#476 = ORIENTED_EDGE ( 'NONE', *, *, #3, .T. ) ;
#477 = VECTOR ( 'NONE', #587, 1000.000000000000114 ) ;
#478 = DIRECTION ( 'NONE',  ( 2.083179195828967029E-18, -0.000000000000000000, -1.000000000000000000 ) ) ;
#479 = ORIENTED_EDGE ( 'NONE', *, *, #840, .F. ) ;
#480 = ORIENTED_EDGE ( 'NONE', *, *, #540, .F. ) ;
#481 = LINE ( 'NONE', #258, #702 ) ;
#482 = EDGE_LOOP ( 'NONE', ( #542, #756, #765, #88 ) ) ;
#483 = CARTESIAN_POINT ( 'NONE',  ( -4.336808689942018722E-16, 0.000000000000000000, 208.1822196873589803 ) ) ;
#484 = EDGE_CURVE ( 'NONE', #2, #348, #19, .T. ) ;
#485 = DIRECTION ( 'NONE',  ( -0.07307264293982150549, -0.1265655302151087180, 0.9892631376004856758 ) ) ;
#486 = ORIENTED_EDGE ( 'NONE', *, *, #96, .T. ) ;
#487 = DIRECTION ( 'NONE',  ( -0.5000000000000067724, 0.8660254037844347108, -1.041589597914497766E-18 ) ) ;
#488 = EDGE_LOOP ( 'NONE', ( #669, #279, #653, #306 ) ) ;
#489 = AXIS2_PLACEMENT_3D ( 'NONE', #728, #118, #621 ) ;
#490 = B_SPLINE_CURVE_WITH_KNOTS ( 'NONE', 3,
 ( #838, #617, #787, #766 ),
 .UNSPECIFIED., .F., .F.,
 ( 4, 4 ),
 ( 2.022552752957277084E-07, 0.003216716336588278189 ),
 .UNSPECIFIED. ) ;
#491 = DIRECTION ( 'NONE',  ( 2.083179195828967029E-18, -0.000000000000000000, -1.000000000000000000 ) ) ;
#492 = DIRECTION ( 'NONE',  ( -0.4999999999999919509, 0.8660254037844432595, -1.041589597914466759E-18 ) ) ;
#493 = ORIENTED_EDGE ( 'NONE', *, *, #315, .F. ) ;
#494 = EDGE_CURVE ( 'NONE', #405, #741, #271, .T. ) ;
#495 = CIRCLE ( 'NONE', #620, 20.00000000000000000 ) ;
#496 = DIRECTION ( 'NONE',  ( 0.000000000000000000, 1.000000000000000000, 0.000000000000000000 ) ) ;
#497 = ORIENTED_EDGE ( 'NONE', *, *, #427, .F. ) ;
#498 = CARTESIAN_POINT ( 'NONE',  ( 2.299038105676666000, -0.9820508075688585414, 205.0015975127436718 ) ) ;
#499 = LINE ( 'NONE', #776, #160 ) ;
#500 = ORIENTED_EDGE ( 'NONE', *, *, #840, .T. ) ;
#501 = FACE_BOUND ( 'NONE', #789, .T. ) ;
#502 = CARTESIAN_POINT ( 'NONE',  ( -16.79876975995453492, -19.09632272889265892, 206.0617961630308912 ) ) ;
#503 = EDGE_LOOP ( 'NONE', ( #387, #795, #243, #834 ) ) ;
#504 = DIRECTION ( 'NONE',  ( 1.000000000000000000, 0.000000000000000000, 2.083179195828967029E-18 ) ) ;
#505 = AXIS2_PLACEMENT_3D ( 'NONE', #608, #509, #161 ) ;
#506 = CARTESIAN_POINT ( 'NONE',  ( -4.330127018922181215, 2.500000000000019984, -9.020430521115592297E-18 ) ) ;
#507 = CARTESIAN_POINT ( 'NONE',  ( -5.117707438105683415E-16, 0.000000000000000000, 245.6681330320781456 ) ) ;
#508 = ORIENTED_EDGE ( 'NONE', *, *, #750, .T. ) ;
#509 = DIRECTION ( 'NONE',  ( -0.8660254037844450359, 0.4999999999999888978, -1.804086104223136640E-18 ) ) ;
#510 = ORIENTED_EDGE ( 'NONE', *, *, #326, .T. ) ;
#511 = EDGE_CURVE ( 'NONE', #581, #863, #372, .T. ) ;
#512 = CONICAL_SURFACE ( 'NONE', #204, 25.74683751830175638, 0.1466705898954302756 ) ;
#513 = DIRECTION ( 'NONE',  ( -0.5000000000000069944, 0.8660254037844344888, -1.041589597914498344E-18 ) ) ;
#514 = CARTESIAN_POINT ( 'NONE',  ( 11.27087344326635865, -16.52172544941578280, 205.0015975127436718 ) ) ;
#515 = CARTESIAN_POINT ( 'NONE',  ( -0.2990381056766592272, 2.482050807568877193, 205.0015975127436718 ) ) ;
#516 = AXIS2_PLACEMENT_3D ( 'NONE', #32, #866, #255 ) ;
#517 = CARTESIAN_POINT ( 'NONE',  ( 22.09412594659871232, 5.000000000000000000, 203.9843907496689042 ) ) ;
#518 = CARTESIAN_POINT ( 'NONE',  ( -8.298210581429328769, 24.37292233894174132, 208.1822196873589803 ) ) ;
#519 = EDGE_CURVE ( 'NONE', #78, #704, #162, .T. ) ;
#520 = DIRECTION ( 'NONE',  ( 0.1461452858796418175, 0.000000000000000000, 0.9892631376004857868 ) ) ;
#521 = PLANE ( 'NONE',  #528 ) ;
#522 = AXIS2_PLACEMENT_3D ( 'NONE', #237, #559, #548 ) ;
#523 = EDGE_CURVE ( 'NONE', #612, #568, #207, .T. ) ;
#524 = CARTESIAN_POINT ( 'NONE',  ( -4.336808689942018722E-16, 0.000000000000000000, 208.1822196873589803 ) ) ;
#525 = LINE ( 'NONE', #879, #395 ) ;
#526 = EDGE_CURVE ( 'NONE', #9, #612, #768, .T. ) ;
#527 = PLANE ( 'NONE',  #601 ) ;
#528 = AXIS2_PLACEMENT_3D ( 'NONE', #38, #382, #303 ) ;
#529 = DIRECTION ( 'NONE',  ( -1.000000000000000000, 0.000000000000000000, -2.083179195828967029E-18 ) ) ;
#530 = ADVANCED_FACE ( 'NONE', ( #84 ), #76, .T. ) ;
#531 = DIRECTION ( 'NONE',  ( -1.000000000000000000, 0.000000000000000000, 0.000000000000000000 ) ) ;
#532 = EDGE_LOOP ( 'NONE', ( #417, #819, #363, #604 ) ) ;
#533 = PRODUCT ( 'bottom holder', 'bottom holder', '', ( #21 ) ) ;
#534 = AXIS2_PLACEMENT_3D ( 'NONE', #848, #841, #375 ) ;
#535 = DIRECTION ( 'NONE',  ( 0.4999999999999888423, 0.8660254037844449249, 0.000000000000000000 ) ) ;
#536 = PRESENTATION_LAYER_ASSIGNMENT (  '', '', ( #249 ) ) ;
#537 = ORIENTED_EDGE ( 'NONE', *, *, #284, .F. ) ;
#538 = EDGE_LOOP ( 'NONE', ( #355, #100, #74, #762 ) ) ;
#539 = CARTESIAN_POINT ( 'NONE',  ( -5.323349963350038271E-15, 1.500000000000000000, 245.6681330320781456 ) ) ;
#540 = EDGE_CURVE ( 'NONE', #9, #741, #13, .T. ) ;
#541 = VECTOR ( 'NONE', #535, 1000.000000000000114 ) ;
#542 = ORIENTED_EDGE ( 'NONE', *, *, #315, .T. ) ;
#543 = DIRECTION ( 'NONE',  ( 0.000000000000000000, 0.000000000000000000, 1.000000000000000000 ) ) ;
#544 = EDGE_CURVE ( 'NONE', #194, #720, #737, .T. ) ;
#545 = VERTEX_POINT ( 'NONE', #870 ) ;
#546 = AXIS2_PLACEMENT_3D ( 'NONE', #343, #555, #613 ) ;
#547 = ORIENTED_EDGE ( 'NONE', *, *, #616, .T. ) ;
#548 = DIRECTION ( 'NONE',  ( -1.000000000000000000, 0.000000000000000000, 0.000000000000000000 ) ) ;
#549 = EDGE_LOOP ( 'NONE', ( #699, #718, #443, #188, #182, #807, #146, #537, #573, #646, #120, #694 ) ) ;
#550 = EDGE_CURVE ( 'NONE', #704, #568, #654, .T. ) ;
#551 = CARTESIAN_POINT ( 'NONE',  ( -4.330127018922215854, -2.499999999999959144, 208.1822196873589803 ) ) ;
#552 = VERTEX_POINT ( 'NONE', #577 ) ;
#553 = LINE ( 'NONE', #35, #675 ) ;
#554 = ORIENTED_EDGE ( 'NONE', *, *, #138, .T. ) ;
#555 = DIRECTION ( 'NONE',  ( -2.083179195828967029E-18, 0.000000000000000000, 1.000000000000000000 ) ) ;
#556 = ADVANCED_FACE ( 'NONE', ( #246 ), #659, .T. ) ;
#557 = DIRECTION ( 'NONE',  ( -0.8660254037844432595, -0.4999999999999919509, -1.804086104223132788E-18 ) ) ;
#558 = VERTEX_POINT ( 'NONE', #518 ) ;
#559 = DIRECTION ( 'NONE',  ( 2.083179195828967414E-18, -0.000000000000000000, -1.000000000000000000 ) ) ;
#560 = ORIENTED_EDGE ( 'NONE', *, *, #274, .T. ) ;
#561 = CARTESIAN_POINT ( 'NONE',  ( 24.93728548206451734, -5.000000000000000000, 206.0617961630308912 ) ) ;
#562 = CARTESIAN_POINT ( 'NONE',  ( -0.2990381056766594492, 2.482050807568876749, 208.1822196873589803 ) ) ;
#563 = LINE ( 'NONE', #439, #660 ) ;
#564 = ORIENTED_EDGE ( 'NONE', *, *, #274, .F. ) ;
#565 = AXIS2_PLACEMENT_3D ( 'NONE', #860, #721, #732 ) ;
#566 = AXIS2_PLACEMENT_3D ( 'NONE', #506, #445, #47 ) ;
#567 =( NAMED_UNIT ( * ) SI_UNIT ( $, .STERADIAN. ) SOLID_ANGLE_UNIT ( ) );
#568 = VERTEX_POINT ( 'NONE', #796 ) ;
#569 = CARTESIAN_POINT ( 'NONE',  ( 25.25667520070349781, -5.000000000000000000, 208.1822196873589803 ) ) ;
#570 = CARTESIAN_POINT ( 'NONE',  ( 5.208298888499882430E-15, -1.499999999999999112, 245.6681330320781456 ) ) ;
#571 = PLANE ( 'NONE',  #534 ) ;
#572 = ORIENTED_EDGE ( 'NONE', *, *, #236, .F. ) ;
#573 = ORIENTED_EDGE ( 'NONE', *, *, #693, .F. ) ;
#574 = EDGE_CURVE ( 'NONE', #293, #432, #846, .T. ) ;
#575 = FILL_AREA_STYLE_COLOUR ( '', #422 ) ;
#576 = ORIENTED_EDGE ( 'NONE', *, *, #519, .T. ) ;
#577 = CARTESIAN_POINT ( 'NONE',  ( 22.24439938501758007, -5.000000000000000000, 205.0015975127436718 ) ) ;
#578 = DIRECTION ( 'NONE',  ( -1.000000000000000000, 0.000000000000000000, 0.000000000000000000 ) ) ;
#579 = CARTESIAN_POINT ( 'NONE',  ( 4.330127018922216742, 2.499999999999959588, 205.0015975127436718 ) ) ;
#580 = EDGE_CURVE ( 'NONE', #667, #652, #104, .T. ) ;
#581 = VERTEX_POINT ( 'NONE', #52 ) ;
#582 = DIRECTION ( 'NONE',  ( -0.07307264293982150549, -0.1265655302151087180, 0.9892631376004856758 ) ) ;
#583 = B_SPLINE_CURVE_WITH_KNOTS ( 'NONE', 3,
 ( #851, #109, #502, #447 ),
 .UNSPECIFIED., .F., .F.,
 ( 4, 4 ),
 ( 2.022552752957277084E-07, 0.003216716336588278189 ),
 .UNSPECIFIED. ) ;
#584 = DIRECTION ( 'NONE',  ( 0.8660254037844363761, -0.5000000000000039968, 1.804086104223118536E-18 ) ) ;
#585 = AXIS2_PLACEMENT_3D ( 'NONE', #610, #215, #144 ) ;
#586 = CARTESIAN_POINT ( 'NONE',  ( -4.270550630502509257E-16, -5.000000000000000000, 205.0015975127436718 ) ) ;
#587 = DIRECTION ( 'NONE',  ( -0.07307264293981972914, 0.1265655302151096895, 0.9892631376004857868 ) ) ;
#588 = EDGE_CURVE ( 'NONE', #245, #471, #313, .T. ) ;
#589 = LINE ( 'NONE', #431, #261 ) ;
#590 = CARTESIAN_POINT ( 'NONE',  ( 11.27087344326601759, 16.52172544941602794, 208.1822196873589803 ) ) ;
#591 = LINE ( 'NONE', #586, #658 ) ;
#592 = EDGE_CURVE ( 'NONE', #107, #245, #853, .T. ) ;
#593 = DIRECTION ( 'NONE',  ( -0.5000000000000039968, -0.8660254037844363761, -1.041589597914491989E-18 ) ) ;
#594 = LINE ( 'NONE', #804, #4 ) ;
#595 = DIRECTION ( 'NONE',  ( 2.083179195828967414E-18, -0.000000000000000000, -1.000000000000000000 ) ) ;
#596 = CIRCLE ( 'NONE', #816, 25.27695956640337016 ) ;
#597 = EDGE_CURVE ( 'NONE', #348, #129, #865, .T. ) ;
#598 = LINE ( 'NONE', #250, #14 ) ;
#599 = CARTESIAN_POINT ( 'NONE',  ( -4.336808689942017736E-16, 0.000000000000000000, 208.1822196873589803 ) ) ;
#600 = ORIENTED_EDGE ( 'NONE', *, *, #665, .F. ) ;
#601 = AXIS2_PLACEMENT_3D ( 'NONE', #202, #193, #734 ) ;
#602 = VECTOR ( 'NONE', #703, 1000.000000000000114 ) ;
#603 = DIRECTION ( 'NONE',  ( -1.000000000000000000, 0.000000000000000000, 0.000000000000000000 ) ) ;
#604 = ORIENTED_EDGE ( 'NONE', *, *, #611, .T. ) ;
#605 = AXIS2_PLACEMENT_3D ( 'NONE', #570, #241, #791 ) ;
#606 = ADVANCED_FACE ( 'NONE', ( #707 ), #251, .T. ) ;
#607 = APPLICATION_CONTEXT ( 'automotive_design' ) ;
#608 = CARTESIAN_POINT ( 'NONE',  ( 1.299038105676667332, -0.7499999999999831246, 245.6681330320781456 ) ) ;
#609 = ORIENTED_EDGE ( 'NONE', *, *, #205, .F. ) ;
#610 = CARTESIAN_POINT ( 'NONE',  ( -4.270550630502509257E-16, 0.000000000000000000, 205.0015975127436718 ) ) ;
#611 = EDGE_CURVE ( 'NONE', #429, #667, #56, .T. ) ;
#612 = VERTEX_POINT ( 'NONE', #357 ) ;
#613 = DIRECTION ( 'NONE',  ( 1.000000000000000000, 0.000000000000000000, 0.000000000000000000 ) ) ;
#614 = EDGE_LOOP ( 'NONE', ( #176, #71, #637, #547 ) ) ;
#615 = PRODUCT_DEFINITION_SHAPE ( 'NONE', 'NONE',  #393 ) ;
#616 = EDGE_CURVE ( 'NONE', #643, #83, #102, .T. ) ;
#617 = CARTESIAN_POINT ( 'NONE',  ( -8.218377105038522146, -24.23464670168730706, 207.1220037233535436 ) ) ;
#618 = VERTEX_POINT ( 'NONE', #117 ) ;
#619 = CARTESIAN_POINT ( 'NONE',  ( -16.95846461927403226, -19.37292233894158500, 208.1822196873589803 ) ) ;
#620 = AXIS2_PLACEMENT_3D ( 'NONE', #8, #334, #75 ) ;
#621 = DIRECTION ( 'NONE',  ( 0.000000000000000000, -0.000000000000000000, 1.000000000000000000 ) ) ;
#622 = ORIENTED_EDGE ( 'NONE', *, *, #677, .F. ) ;
#623 = LINE ( 'NONE', #705, #27 ) ;
#624 = ADVANCED_FACE ( 'NONE', ( #727 ), #521, .T. ) ;
#625 = ORIENTED_EDGE ( 'NONE', *, *, #323, .F. ) ;
#626 = DIRECTION ( 'NONE',  ( -1.000000000000000000, 0.000000000000000000, 0.000000000000000000 ) ) ;
#627 = LINE ( 'NONE', #297, #336 ) ;
#628 = DIRECTION ( 'NONE',  ( -1.000000000000000000, 0.000000000000000000, 0.000000000000000000 ) ) ;
#629 = CARTESIAN_POINT ( 'NONE',  ( 24.93728548206451734, 5.000000000000000000, 206.0617961630308912 ) ) ;
#630 = VERTEX_POINT ( 'NONE', #295 ) ;
#631 = DIRECTION ( 'NONE',  ( 0.4999999999999999445, 0.8660254037844385966, 0.000000000000000000 ) ) ;
#632 = LINE ( 'NONE', #438, #867 ) ;
#633 = CARTESIAN_POINT ( 'NONE',  ( -16.71887882168262607, -18.95794756474136378, 205.0015975127436718 ) ) ;
#634 = DIRECTION ( 'NONE',  ( 1.000000000000000000, 0.000000000000000000, 0.000000000000000000 ) ) ;
#635 = VERTEX_POINT ( 'NONE', #231 ) ;
#636 = DIRECTION ( 'NONE',  ( 1.000000000000000000, 3.492422855059813739E-15, 0.000000000000000000 ) ) ;
#637 = ORIENTED_EDGE ( 'NONE', *, *, #651, .T. ) ;
#638 = DIRECTION ( 'NONE',  ( -1.000000000000000000, 0.000000000000000000, 0.000000000000000000 ) ) ;
#639 = CIRCLE ( 'NONE', #42, 20.00000000000000000 ) ;
#640 = CARTESIAN_POINT ( 'NONE',  ( -4.270550630502509257E-16, 0.000000000000000000, 205.0015975127436718 ) ) ;
#641 = EDGE_CURVE ( 'NONE', #558, #545, #774, .T. ) ;
#642 = CARTESIAN_POINT ( 'NONE',  ( 1.299038105676651789, 0.7500000000000105471, 205.0015975127436718 ) ) ;
#643 = VERTEX_POINT ( 'NONE', #165 ) ;
#644 = VECTOR ( 'NONE', #280, 1000.000000000000000 ) ;
#645 = PLANE ( 'NONE',  #810 ) ;
#646 = ORIENTED_EDGE ( 'NONE', *, *, #828, .T. ) ;
#647 = CARTESIAN_POINT ( 'NONE',  ( -8.298210581429669830, -24.37292233894162408, 208.1822196873589803 ) ) ;
#648 = EDGE_LOOP ( 'NONE', ( #839, #508, #832, #440 ) ) ;
#649 = CARTESIAN_POINT ( 'NONE',  ( 1.299038105676651789, 0.7500000000000105471, 208.1822196873589803 ) ) ;
#650 = DIRECTION ( 'NONE',  ( -1.000000000000000000, -3.492422855059813344E-15, 0.000000000000000000 ) ) ;
#651 = EDGE_CURVE ( 'NONE', #635, #643, #308, .T. ) ;
#652 = VERTEX_POINT ( 'NONE', #498 ) ;
#653 = ORIENTED_EDGE ( 'NONE', *, *, #797, .F. ) ;
#654 = LINE ( 'NONE', #171, #701 ) ;
#655 = FACE_OUTER_BOUND ( 'NONE', #406, .T. ) ;
#656 = EDGE_CURVE ( 'NONE', #294, #37, #808, .T. ) ;
#657 = CARTESIAN_POINT ( 'NONE',  ( -2.000000000000005773, 1.499999999999993117, 205.0015975127436718 ) ) ;
#658 = VECTOR ( 'NONE', #529, 1000.000000000000000 ) ;
#659 = CYLINDRICAL_SURFACE ( 'NONE', #565, 2.500000000000000000 ) ;
#660 = VECTOR ( 'NONE', #366, 1000.000000000000000 ) ;
#661 = VECTOR ( 'NONE', #257, 1000.000000000000000 ) ;
#662 = DIRECTION ( 'NONE',  ( -0.4999999999999919509, 0.8660254037844432595, -1.041589597914466759E-18 ) ) ;
#663 = CIRCLE ( 'NONE', #738, 25.27695956640337016 ) ;
#664 = ORIENTED_EDGE ( 'NONE', *, *, #788, .T. ) ;
#665 = EDGE_CURVE ( 'NONE', #822, #2, #370, .T. ) ;
#666 = ORIENTED_EDGE ( 'NONE', *, *, #263, .T. ) ;
#667 = VERTEX_POINT ( 'NONE', #758 ) ;
#668 = DIRECTION ( 'NONE',  ( 0.5000000000000039968, 0.8660254037844363761, 1.041589597914491989E-18 ) ) ;
#669 = ORIENTED_EDGE ( 'NONE', *, *, #329, .T. ) ;
#670 = PLANE ( 'NONE',  #316 ) ;
#671 = EDGE_LOOP ( 'NONE', ( #782, #136, #869, #110 ) ) ;
#672 = DIRECTION ( 'NONE',  ( 2.083179195828967414E-18, -0.000000000000000000, -1.000000000000000000 ) ) ;
#673 = EDGE_CURVE ( 'NONE', #581, #194, #269, .T. ) ;
#674 = DIRECTION ( 'NONE',  ( 1.000000000000000000, 0.000000000000000000, 0.000000000000000000 ) ) ;
#675 = VECTOR ( 'NONE', #353, 1000.000000000000114 ) ;
#676 = CARTESIAN_POINT ( 'NONE',  ( -0.2990381056766593382, 2.482050807568877193, 245.6681330320781456 ) ) ;
#677 = EDGE_CURVE ( 'NONE', #107, #91, #824, .T. ) ;
#678 = DIRECTION ( 'NONE',  ( 2.083179195828967029E-18, 0.000000000000000000, -1.000000000000000000 ) ) ;
#679 = ORIENTED_EDGE ( 'NONE', *, *, #641, .T. ) ;
#680 = VECTOR ( 'NONE', #754, 1000.000000000000114 ) ;
#681 = DIRECTION ( 'NONE',  ( -1.000000000000000000, 0.000000000000000000, 0.000000000000000000 ) ) ;
#682 = ADVANCED_FACE ( 'NONE', ( #684 ), #749, .F. ) ;
#683 = ORIENTED_EDGE ( 'NONE', *, *, #223, .T. ) ;
#684 = FACE_OUTER_BOUND ( 'NONE', #785, .T. ) ;
#685 = CARTESIAN_POINT ( 'NONE',  ( 1.299038105676667332, -0.7499999999999831246, 205.0015975127436718 ) ) ;
#686 = ORIENTED_EDGE ( 'NONE', *, *, #427, .T. ) ;
#687 = CIRCLE ( 'NONE', #398, 2.500000000000000000 ) ;
#688 = CARTESIAN_POINT ( 'NONE',  ( -16.79876975995427557, 19.09632272889289339, 206.0617961630308912 ) ) ;
#689 = CARTESIAN_POINT ( 'NONE',  ( -8.058624783838265415, -23.95794756474140286, 205.0015975127436718 ) ) ;
#690 = UNCERTAINTY_MEASURE_WITH_UNIT (LENGTH_MEASURE( 1.000000000000000082E-05 ), #770, 'distance_accuracy_value', 'NONE');
#691 = EDGE_LOOP ( 'NONE', ( #486, #332, #713, #773 ) ) ;
#692 = DIRECTION ( 'NONE',  ( 1.000000000000000000, 3.528676379506802428E-15, 2.083179195828967029E-18 ) ) ;
#693 = EDGE_CURVE ( 'NONE', #129, #51, #553, .T. ) ;
#694 = ORIENTED_EDGE ( 'NONE', *, *, #588, .F. ) ;
#695 = EDGE_LOOP ( 'NONE', ( #318, #340, #497, #564 ) ) ;
#696 = CARTESIAN_POINT ( 'NONE',  ( 2.299038105676645571, 0.9820508075689075023, 208.1822196873589803 ) ) ;
#697 = EDGE_LOOP ( 'NONE', ( #424, #476, #7, #307 ) ) ;
#698 = PLANE ( 'NONE',  #404 ) ;
#699 = ORIENTED_EDGE ( 'NONE', *, *, #875, .F. ) ;
#700 = DIRECTION ( 'NONE',  ( -2.083179195828967029E-18, 0.000000000000000000, 1.000000000000000000 ) ) ;
#701 = VECTOR ( 'NONE', #631, 1000.000000000000114 ) ;
#702 = VECTOR ( 'NONE', #50, 999.9999999999998863 ) ;
#703 = DIRECTION ( 'NONE',  ( 0.1461452858796418175, 0.000000000000000000, 0.9892631376004857868 ) ) ;
#704 = VERTEX_POINT ( 'NONE', #515 ) ;
#705 = CARTESIAN_POINT ( 'NONE',  ( 1.299038105676667332, -0.7499999999999831246, 208.1822196873589803 ) ) ;
#706 = ORIENTED_EDGE ( 'NONE', *, *, #484, .T. ) ;
#707 = FACE_OUTER_BOUND ( 'NONE', #163, .T. ) ;
#708 = DIRECTION ( 'NONE',  ( 0.5000000000000039968, 0.8660254037844363761, 1.041589597914491989E-18 ) ) ;
#709 = CYLINDRICAL_SURFACE ( 'NONE', #426, 2.499999999999999556 ) ;
#710 = ORIENTED_EDGE ( 'NONE', *, *, #203, .T. ) ;
#711 = ORIENTED_EDGE ( 'NONE', *, *, #62, .F. ) ;
#712 = CARTESIAN_POINT ( 'NONE',  ( -4.270550630502509257E-16, 5.000000000000000000, 205.0015975127436718 ) ) ;
#713 = ORIENTED_EDGE ( 'NONE', *, *, #580, .F. ) ;
#714 = ADVANCED_FACE ( 'NONE', ( #724 ), #857, .F. ) ;
#715 = DIRECTION ( 'NONE',  ( -0.5000000000000039968, -0.8660254037844363761, -1.041589597914491989E-18 ) ) ;
#716 = CARTESIAN_POINT ( 'NONE',  ( -8.058624783837929684, 23.95794756474151299, 205.0015975127436718 ) ) ;
#717 = ORIENTED_EDGE ( 'NONE', *, *, #195, .T. ) ;
#718 = ORIENTED_EDGE ( 'NONE', *, *, #323, .T. ) ;
#719 = CARTESIAN_POINT ( 'NONE',  ( 25.09700824792119889, 5.000000000000000000, 207.1220037233535436 ) ) ;
#720 = VERTEX_POINT ( 'NONE', #850 ) ;
#721 = DIRECTION ( 'NONE',  ( 2.083179195828967414E-18, -0.000000000000000000, -1.000000000000000000 ) ) ;
#722 = DIRECTION ( 'NONE',  ( 2.083179195828967029E-18, -0.000000000000000000, -1.000000000000000000 ) ) ;
#723 = VECTOR ( 'NONE', #291, 1000.000000000000000 ) ;
#724 = FACE_OUTER_BOUND ( 'NONE', #214, .T. ) ;
#725 = DIRECTION ( 'NONE',  ( 0.000000000000000000, 0.000000000000000000, -1.000000000000000000 ) ) ;
#726 = ORIENTED_EDGE ( 'NONE', *, *, #195, .F. ) ;
#727 = FACE_OUTER_BOUND ( 'NONE', #695, .T. ) ;
#728 = CARTESIAN_POINT ( 'NONE',  ( 0.000000000000000000, 5.000000000000000000, 0.000000000000000000 ) ) ;
#729 = ADVANCED_FACE ( 'NONE', ( #235, #28, #501, #446 ), #786, .F. ) ;
#730 = CARTESIAN_POINT ( 'NONE',  ( 4.330127018922181215, -2.500000000000019984, 9.020430521115592297E-18 ) ) ;
#731 = CARTESIAN_POINT ( 'NONE',  ( -19.94367067517912417, -1.500000000000069722, 205.0015975127436718 ) ) ;
#732 = DIRECTION ( 'NONE',  ( -1.000000000000000000, 0.000000000000000000, 0.000000000000000000 ) ) ;
#733 = EDGE_CURVE ( 'NONE', #558, #767, #179, .T. ) ;
#734 = DIRECTION ( 'NONE',  ( -0.5000000000000069944, 0.8660254037844344888, 0.000000000000000000 ) ) ;
#735 = AXIS2_PLACEMENT_3D ( 'NONE', #324, #384, #123 ) ;
#736 =( GEOMETRIC_REPRESENTATION_CONTEXT ( 3 ) GLOBAL_UNCERTAINTY_ASSIGNED_CONTEXT ( ( #755 ) ) GLOBAL_UNIT_ASSIGNED_CONTEXT ( ( #434, #244, #567 ) ) REPRESENTATION_CONTEXT ( 'NONE', 'WORKASPACE' ) );
#737 = CIRCLE ( 'NONE', #39, 2.499999999999999556 ) ;
#738 = AXIS2_PLACEMENT_3D ( 'NONE', #836, #722, #578 ) ;
#739 = ORIENTED_EDGE ( 'NONE', *, *, #311, .F. ) ;
#740 = DIRECTION ( 'NONE',  ( 2.083179195828967414E-18, -0.000000000000000000, -1.000000000000000000 ) ) ;
#741 = VERTEX_POINT ( 'NONE', #168 ) ;
#742 = ADVANCED_FACE ( 'NONE', ( #368 ), #645, .F. ) ;
#743 = DIRECTION ( 'NONE',  ( 0.8660254037844363761, -0.5000000000000039968, 0.000000000000000000 ) ) ;
#744 = CARTESIAN_POINT ( 'NONE',  ( -4.336808689942017736E-16, 0.000000000000000000, 208.1822196873589803 ) ) ;
#745 = VECTOR ( 'NONE', #381, 1000.000000000000000 ) ;
#746 = DIRECTION ( 'NONE',  ( -1.000000000000000000, 0.000000000000000000, 0.000000000000000000 ) ) ;
#747 = VECTOR ( 'NONE', #198, 1000.000000000000000 ) ;
#748 = ORIENTED_EDGE ( 'NONE', *, *, #159, .T. ) ;
#749 = PLANE ( 'NONE',  #185 ) ;
#750 = EDGE_CURVE ( 'NONE', #91, #134, #166, .T. ) ;
#751 = FACE_OUTER_BOUND ( 'NONE', #549, .T. ) ;
#752 = ORIENTED_EDGE ( 'NONE', *, *, #750, .F. ) ;
#753 = CIRCLE ( 'NONE', #473, 2.499999999999999556 ) ;
#754 = DIRECTION ( 'NONE',  ( -0.07307264293981972914, 0.1265655302151096895, 0.9892631376004857868 ) ) ;
#755 = UNCERTAINTY_MEASURE_WITH_UNIT (LENGTH_MEASURE( 1.000000000000000082E-05 ), #434, 'distance_accuracy_value', 'NONE');
#756 = ORIENTED_EDGE ( 'NONE', *, *, #184, .T. ) ;
#757 = DIRECTION ( 'NONE',  ( -1.000000000000000000, 0.000000000000000000, 0.000000000000000000 ) ) ;
#758 = CARTESIAN_POINT ( 'NONE',  ( 2.299038105676666000, -0.9820508075688585414, 208.1822196873589803 ) ) ;
#759 = ORIENTED_EDGE ( 'NONE', *, *, #764, .T. ) ;
#760 = CONICAL_SURFACE ( 'NONE', #516, 25.74683751830175638, 0.1466705898954302756 ) ;
#761 = DIRECTION ( 'NONE',  ( -1.000000000000000000, 0.000000000000000000, 0.000000000000000000 ) ) ;
#762 = ORIENTED_EDGE ( 'NONE', *, *, #780, .F. ) ;
#763 = EDGE_LOOP ( 'NONE', ( #852, #48, #228, #739 ) ) ;
#764 = EDGE_CURVE ( 'NONE', #845, #2, #663, .T. ) ;
#765 = ORIENTED_EDGE ( 'NONE', *, *, #284, .T. ) ;
#766 = CARTESIAN_POINT ( 'NONE',  ( -8.058624783838265415, -23.95794756474140286, 205.0015975127436718 ) ) ;
#767 = VERTEX_POINT ( 'NONE', #716 ) ;
#768 = LINE ( 'NONE', #413, #410 ) ;
#769 = LINE ( 'NONE', #114, #602 ) ;
#770 =( LENGTH_UNIT ( ) NAMED_UNIT ( * ) SI_UNIT ( .MILLI., .METRE. ) );
#771 = VERTEX_POINT ( 'NONE', #33 ) ;
#772 = MECHANICAL_DESIGN_GEOMETRIC_PRESENTATION_REPRESENTATION (  '', ( #249 ), #736 ) ;
#773 = ORIENTED_EDGE ( 'NONE', *, *, #611, .F. ) ;
#774 = CIRCLE ( 'NONE', #6, 25.74683751830175638 ) ;
#775 = VECTOR ( 'NONE', #492, 1000.000000000000000 ) ;
#776 = CARTESIAN_POINT ( 'NONE',  ( -5.238634282589720411E-15, 1.500000000000000000, 205.0015975127436718 ) ) ;
#777 = APPLICATION_PROTOCOL_DEFINITION ( 'draft international standard', 'automotive_design', 1998, #607 ) ;
#778 = ORIENTED_EDGE ( 'NONE', *, *, #828, .F. ) ;
#779 = CARTESIAN_POINT ( 'NONE',  ( -4.270550630502509257E-16, 0.000000000000000000, 205.0015975127436718 ) ) ;
#780 = EDGE_CURVE ( 'NONE', #552, #635, #769, .T. ) ;
#781 = FACE_OUTER_BOUND ( 'NONE', #697, .T. ) ;
#782 = ORIENTED_EDGE ( 'NONE', *, *, #296, .T. ) ;
#783 = DIRECTION ( 'NONE',  ( -2.083179195828967029E-18, 0.000000000000000000, 1.000000000000000000 ) ) ;
#784 = LINE ( 'NONE', #287, #5 ) ;
#785 = EDGE_LOOP ( 'NONE', ( #312, #12, #61, #45 ) ) ;
#786 = PLANE ( 'NONE',  #411 ) ;
#787 = CARTESIAN_POINT ( 'NONE',  ( -8.138515722110177819, -24.09632272889270155, 206.0617961630308912 ) ) ;
#788 = EDGE_CURVE ( 'NONE', #652, #871, #172, .T. ) ;
#789 = EDGE_LOOP ( 'NONE', ( #666, #664, #126, #158 ) ) ;
#790 = CARTESIAN_POINT ( 'NONE',  ( -4.270550630502509257E-16, 0.000000000000000000, 205.0015975127436718 ) ) ;
#791 = DIRECTION ( 'NONE',  ( 1.000000000000000000, 3.528676379506802428E-15, 0.000000000000000000 ) ) ;
#792 = CARTESIAN_POINT ( 'NONE',  ( 24.77750360552069253, 5.000000000000000000, 205.0015975127436718 ) ) ;
#793 = CYLINDRICAL_SURFACE ( 'NONE', #522, 20.00000000000000000 ) ;
#794 = VECTOR ( 'NONE', #520, 1000.000000000000114 ) ;
#795 = ORIENTED_EDGE ( 'NONE', *, *, #159, .F. ) ;
#796 = CARTESIAN_POINT ( 'NONE',  ( 8.672797231912905858, 18.02172544941587873, 205.0015975127436718 ) ) ;
#797 = EDGE_CURVE ( 'NONE', #194, #24, #627, .T. ) ;
#798 = DIRECTION ( 'NONE',  ( -0.8660254037844363761, 0.5000000000000039968, -1.765553631139785101E-18 ) ) ;
#799 = DIRECTION ( 'NONE',  ( 1.000000000000000000, 0.000000000000000000, 2.083179195828967029E-18 ) ) ;
#800 = CARTESIAN_POINT ( 'NONE',  ( 5.293014569260200289E-15, -1.499999999999999112, 205.0015975127436718 ) ) ;
#801 = B_SPLINE_CURVE_WITH_KNOTS ( 'NONE', 3,
 ( #29, #719, #629, #420 ),
 .UNSPECIFIED., .F., .F.,
 ( 4, 4 ),
 ( 0.004898174903071857676, 0.008114688984359170673 ),
 .UNSPECIFIED. ) ;
#802 = FACE_OUTER_BOUND ( 'NONE', #256, .T. ) ;
#803 = DIRECTION ( 'NONE',  ( 2.083179195828967414E-18, -0.000000000000000000, -1.000000000000000000 ) ) ;
#804 = CARTESIAN_POINT ( 'NONE',  ( 8.672797231913051519, -18.02172544941580767, 245.6681330320781456 ) ) ;
#805 = LINE ( 'NONE', #389, #830 ) ;
#806 = CARTESIAN_POINT ( 'NONE',  ( -19.94367067517913839, 1.499999999999930500, 208.1822196873589803 ) ) ;
#807 = ORIENTED_EDGE ( 'NONE', *, *, #62, .T. ) ;
#808 = CIRCLE ( 'NONE', #141, 20.00000000000000000 ) ;
#809 = DIRECTION ( 'NONE',  ( -2.083179195828967029E-18, 0.000000000000000000, 1.000000000000000000 ) ) ;
#810 = AXIS2_PLACEMENT_3D ( 'NONE', #309, #557, #351 ) ;
#811 = EDGE_CURVE ( 'NONE', #148, #568, #26, .T. ) ;
#812 = PLANE ( 'NONE',  #843 ) ;
#813 = CARTESIAN_POINT ( 'NONE',  ( -16.71887882168236317, 18.95794756474159826, 205.0015975127436718 ) ) ;
#814 = FACE_BOUND ( 'NONE', #532, .T. ) ;
#815 = ADVANCED_FACE ( 'NONE', ( #94 ), #571, .T. ) ;
#816 = AXIS2_PLACEMENT_3D ( 'NONE', #640, #491, #358 ) ;
#817 = CARTESIAN_POINT ( 'NONE',  ( -15.45232671143106273, -16.76421495935210260, 205.0015975127436718 ) ) ;
#818 = VECTOR ( 'NONE', #233, 1000.000000000000000 ) ;
#819 = ORIENTED_EDGE ( 'NONE', *, *, #223, .F. ) ;
#820 = CYLINDRICAL_SURFACE ( 'NONE', #92, 2.500000000000000000 ) ;
#821 = ADVANCED_FACE ( 'NONE', ( #41 ), #709, .T. ) ;
#822 = VERTEX_POINT ( 'NONE', #247 ) ;
#823 = DIRECTION ( 'NONE',  ( -2.083179195828967029E-18, 0.000000000000000000, 1.000000000000000000 ) ) ;
#824 = LINE ( 'NONE', #68, #65 ) ;
#825 = ORIENTED_EDGE ( 'NONE', *, *, #25, .F. ) ;
#826 = CARTESIAN_POINT ( 'NONE',  ( -4.270550630502509257E-16, 0.000000000000000000, 205.0015975127436718 ) ) ;
#827 = DIRECTION ( 'NONE',  ( 2.083179195828967029E-18, -0.000000000000000000, -1.000000000000000000 ) ) ;
#828 = EDGE_CURVE ( 'NONE', #129, #822, #227, .T. ) ;
#829 = ORIENTED_EDGE ( 'NONE', *, *, #494, .F. ) ;
#830 = VECTOR ( 'NONE', #662, 1000.000000000000000 ) ;
#831 = APPLICATION_PROTOCOL_DEFINITION ( 'draft international standard', 'automotive_design', 1998, #147 ) ;
#832 = ORIENTED_EDGE ( 'NONE', *, *, #875, .T. ) ;
#833 = DIRECTION ( 'NONE',  ( -2.083179195828967029E-18, 0.000000000000000000, 1.000000000000000000 ) ) ;
#834 = ORIENTED_EDGE ( 'NONE', *, *, #544, .F. ) ;
#835 = EDGE_CURVE ( 'NONE', #78, #612, #499, .T. ) ;
#836 = CARTESIAN_POINT ( 'NONE',  ( -4.270550630502509257E-16, 0.000000000000000000, 205.0015975127436718 ) ) ;
#837 = VECTOR ( 'NONE', #487, 1000.000000000000114 ) ;
#838 = CARTESIAN_POINT ( 'NONE',  ( -8.298210581429669830, -24.37292233894162408, 208.1822196873589803 ) ) ;
#839 = ORIENTED_EDGE ( 'NONE', *, *, #677, .T. ) ;
#840 = EDGE_CURVE ( 'NONE', #618, #294, #784, .T. ) ;
#841 = DIRECTION ( 'NONE',  ( 0.9892631376004858978, 0.000000000000000000, -0.1461452858796418453 ) ) ;
#842 = VERTEX_POINT ( 'NONE', #792 ) ;
#843 = AXIS2_PLACEMENT_3D ( 'NONE', #264, #458, #876 ) ;
#844 = DIRECTION ( 'NONE',  ( -1.000000000000000000, 0.000000000000000000, -2.083179195828967029E-18 ) ) ;
#845 = VERTEX_POINT ( 'NONE', #633 ) ;
#846 = LINE ( 'NONE', #453, #661 ) ;
#847 = VECTOR ( 'NONE', #513, 1000.000000000000114 ) ;
#848 = CARTESIAN_POINT ( 'NONE',  ( 22.09412594659871232, 5.000000000000000000, 203.9843907496689042 ) ) ;
#849 = EDGE_CURVE ( 'NONE', #630, #635, #563, .T. ) ;
#850 = CARTESIAN_POINT ( 'NONE',  ( -0.2990381056766384105, -2.482050807568879858, 208.1822196873589803 ) ) ;
#851 = CARTESIAN_POINT ( 'NONE',  ( -16.95846461927403226, -19.37292233894158500, 208.1822196873589803 ) ) ;
#852 = ORIENTED_EDGE ( 'NONE', *, *, #580, .T. ) ;
#853 = LINE ( 'NONE', #444, #300 ) ;
#854 = CARTESIAN_POINT ( 'NONE',  ( -15.45232671143083003, 16.76421495935231221, 205.0015975127436718 ) ) ;
#855 = CARTESIAN_POINT ( 'NONE',  ( 8.672797231913051519, -18.02172544941580767, 208.1822196873589803 ) ) ;
#856 = ORIENTED_EDGE ( 'NONE', *, *, #574, .F. ) ;
#857 = CYLINDRICAL_SURFACE ( 'NONE', #302, 20.00000000000000000 ) ;
#858 = FILL_AREA_STYLE ('',( #575 ) ) ;
#859 = ORIENTED_EDGE ( 'NONE', *, *, #469, .T. ) ;
#860 = CARTESIAN_POINT ( 'NONE',  ( -5.117707438105683415E-16, 0.000000000000000000, 245.6681330320781456 ) ) ;
#861 = DIRECTION ( 'NONE',  ( 2.083179195828967414E-18, -0.000000000000000000, -1.000000000000000000 ) ) ;
#862 = LINE ( 'NONE', #800, #747 ) ;
#863 = VERTEX_POINT ( 'NONE', #855 ) ;
#864 = ADVANCED_FACE ( 'NONE', ( #242 ), #180, .T. ) ;
#865 = LINE ( 'NONE', #31, #477 ) ;
#866 = DIRECTION ( 'NONE',  ( -2.083179195828967029E-18, 0.000000000000000000, 1.000000000000000000 ) ) ;
#867 = VECTOR ( 'NONE', #708, 1000.000000000000114 ) ;
#868 = DIRECTION ( 'NONE',  ( -3.124768793743458825E-18, -1.804086104223118536E-18, 1.000000000000000000 ) ) ;
#869 = ORIENTED_EDGE ( 'NONE', *, *, #588, .T. ) ;
#870 = CARTESIAN_POINT ( 'NONE',  ( 25.25667520070349781, 5.000000000000000000, 208.1822196873589803 ) ) ;
#871 = VERTEX_POINT ( 'NONE', #514 ) ;
#872 = LINE ( 'NONE', #119, #18 ) ;
#873 = DIRECTION ( 'NONE',  ( -0.8660254037844432595, -0.4999999999999918954, -1.765553631139798968E-18 ) ) ;
#874 = ORIENTED_EDGE ( 'NONE', *, *, #835, .F. ) ;
#875 = EDGE_CURVE ( 'NONE', #134, #245, #20, .T. ) ;
#876 = DIRECTION ( 'NONE',  ( -0.5000000000000067724, 0.8660254037844347108, 0.000000000000000000 ) ) ;
#877 = VECTOR ( 'NONE', #803, 1000.000000000000000 ) ;
#878 = DIRECTION ( 'NONE',  ( 0.4999999999999919509, -0.8660254037844432595, 1.041589597914466759E-18 ) ) ;
#879 = CARTESIAN_POINT ( 'NONE',  ( -0.2990381056766385215, -2.482050807568879858, 245.6681330320781456 ) ) ;
#880 = DIRECTION ( 'NONE',  ( -3.124768793743433788E-18, 1.804086104223132788E-18, 1.000000000000000000 ) ) ;
#881 = ADVANCED_FACE ( 'NONE', ( #224 ), #186, .F. ) ;
#882 = AXIS2_PLACEMENT_3D ( 'NONE', #267, #478, #603 ) ;
#883 = CARTESIAN_POINT ( 'NONE',  ( 11.27087344326635865, -16.52172544941578280, 208.1822196873589803 ) ) ;
ENDSEC;
END-ISO-10303-21;
