ISO-10303-21;
HEADER;
FILE_DESCRIPTION (( 'STEP AP214' ),
    '1' );
FILE_NAME ('Flare holder.STEP',
    '2026-06-19T13:25:24',
    ( '' ),
    ( '' ),
    'SwSTEP 2.0',
    'SolidWorks 2024',
    '' );
FILE_SCHEMA (( 'AUTOMOTIVE_DESIGN' ));
ENDSEC;

DATA;
#1 = SHAPE_DEFINITION_REPRESENTATION ( #157, #67 ) ;
#2 = EDGE_CURVE ( 'NONE', #313, #347, #170, .T. ) ;
#3 = AXIS2_PLACEMENT_3D ( 'NONE', #517, #228, #104 ) ;
#4 = CARTESIAN_POINT ( 'NONE',  ( -12.15070270386552131, 10.00000000000000000, 1.233774041503125751 ) ) ;
#5 = CIRCLE ( 'NONE', #273, 15.00000000000000000 ) ;
#6 = LINE ( 'NONE', #368, #56 ) ;
#7 = PLANE ( 'NONE',  #401 ) ;
#8 = VERTEX_POINT ( 'NONE', #241 ) ;
#9 = CARTESIAN_POINT ( 'NONE',  ( 14.74190722575784029, -0.0009999999999992653654, 2.745676156784798927 ) ) ;
#10 = DIRECTION ( 'NONE',  ( -0.8660254037844389297, 0.000000000000000000, 0.4999999999999995559 ) ) ;
#11 = CARTESIAN_POINT ( 'NONE',  ( 0.000000000000000000, 10.00000000000000000, 0.000000000000000000 ) ) ;
#12 = VECTOR ( 'NONE', #213, 1000.000000000000000 ) ;
#13 = LINE ( 'NONE', #265, #192 ) ;
#14 = ADVANCED_FACE ( 'NONE', ( #406, #488 ), #243, .T. ) ;
#15 = DIRECTION ( 'NONE',  ( -0.5000000000000003331, 0.000000000000000000, 0.8660254037844383745 ) ) ;
#16 = CARTESIAN_POINT ( 'NONE',  ( -4.993128310537463754, 10.00000000000000000, -14.13970423613200467 ) ) ;
#17 = ORIENTED_EDGE ( 'NONE', *, *, #284, .T. ) ;
#18 = DIRECTION ( 'NONE',  ( -0.000000000000000000, -1.000000000000000000, -0.000000000000000000 ) ) ;
#19 = DIRECTION ( 'NONE',  ( -7.231648012388898055E-16, -0.000000000000000000, 1.000000000000000000 ) ) ;
#20 = CARTESIAN_POINT ( 'NONE',  ( 0.000000000000000000, 5.000000000000000000, 0.000000000000000000 ) ) ;
#21 = EDGE_CURVE ( 'NONE', #338, #437, #6, .T. ) ;
#22 = VERTEX_POINT ( 'NONE', #294 ) ;
#23 = CARTESIAN_POINT ( 'NONE',  ( 9.797174393178825657E-16, 5.000000000000000000, -8.000000000000000000 ) ) ;
#24 = EDGE_LOOP ( 'NONE', ( #288, #304 ) ) ;
#25 = CARTESIAN_POINT ( 'NONE',  ( 14.74611525952903790, 0.000000000000000000, 2.748105666215357790 ) ) ;
#26 = ORIENTED_EDGE ( 'NONE', *, *, #2, .F. ) ;
#27 = AXIS2_PLACEMENT_3D ( 'NONE', #199, #366, #397 ) ;
#28 = ORIENTED_EDGE ( 'NONE', *, *, #489, .F. ) ;
#29 = AXIS2_PLACEMENT_3D ( 'NONE', #9, #458, #255 ) ;
#30 = CIRCLE ( 'NONE', #237, 15.00000000000000000 ) ;
#31 = ORIENTED_EDGE ( 'NONE', *, *, #364, .F. ) ;
#32 =( NAMED_UNIT ( * ) SI_UNIT ( $, .STERADIAN. ) SOLID_ANGLE_UNIT ( ) );
#33 = ORIENTED_EDGE ( 'NONE', *, *, #425, .F. ) ;
#34 = EDGE_CURVE ( 'NONE', #74, #114, #533, .T. ) ;
#35 = CARTESIAN_POINT ( 'NONE',  ( 0.000000000000000000, 10.00000000000000000, 0.000000000000000000 ) ) ;
#36 = VECTOR ( 'NONE', #115, 1000.000000000000000 ) ;
#37 = LINE ( 'NONE', #206, #334 ) ;
#38 = CARTESIAN_POINT ( 'NONE',  ( -16.82619556514920234, -0.0009999999999992653654, 3.933171103559432780 ) ) ;
#39 = DIRECTION ( 'NONE',  ( 0.000000000000000000, 1.000000000000000000, 0.000000000000000000 ) ) ;
#40 = PLANE ( 'NONE',  #495 ) ;
#41 = EDGE_CURVE ( 'NONE', #196, #155, #292, .T. ) ;
#42 = DIRECTION ( 'NONE',  ( 0.8660254037844381525, -0.000000000000000000, 0.5000000000000006661 ) ) ;
#43 = ORIENTED_EDGE ( 'NONE', *, *, #465, .F. ) ;
#44 = PRODUCT_CONTEXT ( 'NONE', #473, 'mechanical' ) ;
#45 = VECTOR ( 'NONE', #421, 1000.000000000000000 ) ;
#46 = CARTESIAN_POINT ( 'NONE',  ( 0.000000000000000000, 5.000000000000000000, 8.000000000000000000 ) ) ;
#47 = ORIENTED_EDGE ( 'NONE', *, *, #204, .T. ) ;
#48 = APPLICATION_PROTOCOL_DEFINITION ( 'draft international standard', 'automotive_design', 1998, #382 ) ;
#49 = DIRECTION ( 'NONE',  ( -0.000000000000000000, -1.000000000000000000, -0.000000000000000000 ) ) ;
#50 = LINE ( 'NONE', #93, #166 ) ;
#51 = DIRECTION ( 'NONE',  ( 0.000000000000000000, 0.000000000000000000, 1.000000000000000000 ) ) ;
#52 = ADVANCED_FACE ( 'NONE', ( #451 ), #246, .F. ) ;
#53 = DIRECTION ( 'NONE',  ( 0.000000000000000000, 1.000000000000000000, 0.000000000000000000 ) ) ;
#54 = DIRECTION ( 'NONE',  ( -0.000000000000000000, 1.000000000000000000, -0.000000000000000000 ) ) ;
#55 = VECTOR ( 'NONE', #92, 1000.000000000000000 ) ;
#56 = VECTOR ( 'NONE', #492, 1000.000000000000000 ) ;
#57 = CARTESIAN_POINT ( 'NONE',  ( 7.143831014404852908, 10.00000000000000000, 9.905930194628309593 ) ) ;
#58 = ORIENTED_EDGE ( 'NONE', *, *, #301, .F. ) ;
#59 = DIRECTION ( 'NONE',  ( 1.000000000000000000, -0.000000000000000000, 5.204170427930898544E-16 ) ) ;
#60 = DIRECTION ( 'NONE',  ( 0.000000000000000000, 0.000000000000000000, -1.000000000000000000 ) ) ;
#61 = EDGE_CURVE ( 'NONE', #283, #261, #367, .T. ) ;
#62 = CARTESIAN_POINT ( 'NONE',  ( 5.006871689461613428, 10.00000000000000000, -11.13970423613184835 ) ) ;
#63 = CYLINDRICAL_SURFACE ( 'NONE', #3, 8.000000000000000000 ) ;
#64 = AXIS2_PLACEMENT_3D ( 'NONE', #171, #497, #491 ) ;
#65 = VERTEX_POINT ( 'NONE', #336 ) ;
#66 = ORIENTED_EDGE ( 'NONE', *, *, #325, .F. ) ;
#67 = ADVANCED_BREP_SHAPE_REPRESENTATION ( 'Flare holder', ( #490, #27 ), #527 ) ;
#68 = PRODUCT_RELATED_PRODUCT_CATEGORY ( 'part', '', ( #282 ) ) ;
#69 = ORIENTED_EDGE ( 'NONE', *, *, #259, .T. ) ;
#70 = DIRECTION ( 'NONE',  ( 0.8660254037844387076, 0.000000000000000000, -0.5000000000000000000 ) ) ;
#71 = ORIENTED_EDGE ( 'NONE', *, *, #404, .T. ) ;
#72 = VECTOR ( 'NONE', #362, 1000.000000000000000 ) ;
#73 =( LENGTH_UNIT ( ) NAMED_UNIT ( * ) SI_UNIT ( .MILLI., .METRE. ) );
#74 = VERTEX_POINT ( 'NONE', #158 ) ;
#75 = ADVANCED_FACE ( 'NONE', ( #328 ), #40, .F. ) ;
#76 = CARTESIAN_POINT ( 'NONE',  ( 12.14383101440439816, 0.000000000000000000, 1.245676156784720101 ) ) ;
#77 = VERTEX_POINT ( 'NONE', #164 ) ;
#78 = FACE_OUTER_BOUND ( 'NONE', #385, .T. ) ;
#79 = VECTOR ( 'NONE', #296, 1000.000000000000114 ) ;
#80 = DIRECTION ( 'NONE',  ( 0.000000000000000000, 1.000000000000000000, 0.000000000000000000 ) ) ;
#81 = DIRECTION ( 'NONE',  ( 0.000000000000000000, 1.000000000000000000, 0.000000000000000000 ) ) ;
#82 = PLANE ( 'NONE',  #360 ) ;
#83 = EDGE_LOOP ( 'NONE', ( #376, #231, #31, #392 ) ) ;
#84 = LINE ( 'NONE', #122, #318 ) ;
#85 = DIRECTION ( 'NONE',  ( -0.8660254037844382635, -0.000000000000000000, -0.5000000000000005551 ) ) ;
#86 = CARTESIAN_POINT ( 'NONE',  ( 0.000000000000000000, 5.000000000000000000, 0.000000000000000000 ) ) ;
#87 = CYLINDRICAL_SURFACE ( 'NONE', #402, 15.00000000000000000 ) ;
#88 = ADVANCED_FACE ( 'NONE', ( #78 ), #409, .F. ) ;
#89 = FACE_OUTER_BOUND ( 'NONE', #483, .T. ) ;
#90 = DIRECTION ( 'NONE',  ( -5.204170427930898544E-16, 0.000000000000000000, 1.000000000000000000 ) ) ;
#91 = ORIENTED_EDGE ( 'NONE', *, *, #152, .T. ) ;
#92 = DIRECTION ( 'NONE',  ( -0.000000000000000000, 1.000000000000000000, -0.000000000000000000 ) ) ;
#93 = CARTESIAN_POINT ( 'NONE',  ( -9.748778915219427077, 0.000000000000000000, 11.39402807934678918 ) ) ;
#94 = ORIENTED_EDGE ( 'NONE', *, *, #440, .T. ) ;
#95 = DIRECTION ( 'NONE',  ( -1.000000000000000000, 0.000000000000000000, -7.231648012388898055E-16 ) ) ;
#96 = CIRCLE ( 'NONE', #165, 15.00000000000000000 ) ;
#97 = UNCERTAINTY_MEASURE_WITH_UNIT (LENGTH_MEASURE( 1.000000000000000082E-05 ), #73, 'distance_accuracy_value', 'NONE');
#98 = AXIS2_PLACEMENT_3D ( 'NONE', #379, #39, #461 ) ;
#99 = EDGE_CURVE ( 'NONE', #140, #198, #137, .T. ) ;
#100 = LINE ( 'NONE', #256, #429 ) ;
#101 = CARTESIAN_POINT ( 'NONE',  ( -14.74877891521883377, 10.00000000000000000, 2.733774041503124419 ) ) ;
#102 = CARTESIAN_POINT ( 'NONE',  ( -4.993128310537468195, -0.0009999999999992653654, -11.13970423613185368 ) ) ;
#103 = ORIENTED_EDGE ( 'NONE', *, *, #194, .T. ) ;
#104 = DIRECTION ( 'NONE',  ( 0.000000000000000000, 0.000000000000000000, 1.000000000000000000 ) ) ;
#105 = AXIS2_PLACEMENT_3D ( 'NONE', #20, #183, #312 ) ;
#106 = EDGE_LOOP ( 'NONE', ( #524, #365, #94, #121 ) ) ;
#107 = DIRECTION ( 'NONE',  ( 1.084747201857992096E-15, -0.000000000000000000, -1.000000000000000000 ) ) ;
#108 = EDGE_CURVE ( 'NONE', #514, #22, #30, .T. ) ;
#109 = VERTEX_POINT ( 'NONE', #469 ) ;
#110 = EDGE_LOOP ( 'NONE', ( #405, #69, #267, #123 ) ) ;
#111 = CARTESIAN_POINT ( 'NONE',  ( 0.000000000000000000, 0.000000000000000000, 0.000000000000000000 ) ) ;
#112 = EDGE_CURVE ( 'NONE', #182, #443, #13, .T. ) ;
#113 = ORIENTED_EDGE ( 'NONE', *, *, #249, .T. ) ;
#114 = VERTEX_POINT ( 'NONE', #130 ) ;
#115 = DIRECTION ( 'NONE',  ( 0.000000000000000000, 1.000000000000000000, 0.000000000000000000 ) ) ;
#116 = DIRECTION ( 'NONE',  ( -0.000000000000000000, 1.000000000000000000, -0.000000000000000000 ) ) ;
#117 = CARTESIAN_POINT ( 'NONE',  ( 14.74190722575784029, 10.00000000000000000, 2.745676156784798927 ) ) ;
#118 =( GEOMETRIC_REPRESENTATION_CONTEXT ( 3 ) GLOBAL_UNCERTAINTY_ASSIGNED_CONTEXT ( ( #306 ) ) GLOBAL_UNIT_ASSIGNED_CONTEXT ( ( #442, #435, #32 ) ) REPRESENTATION_CONTEXT ( 'NONE', 'WORKASPACE' ) );
#119 = VECTOR ( 'NONE', #120, 999.9999999999998863 ) ;
#120 = DIRECTION ( 'NONE',  ( 0.8660254037844383745, -0.000000000000000000, 0.5000000000000006661 ) ) ;
#121 = ORIENTED_EDGE ( 'NONE', *, *, #210, .F. ) ;
#122 = CARTESIAN_POINT ( 'NONE',  ( -9.748778915219427077, 10.00000000000000000, 11.39402807934678918 ) ) ;
#123 = ORIENTED_EDGE ( 'NONE', *, *, #404, .F. ) ;
#124 = PLANE ( 'NONE',  #98 ) ;
#125 = ORIENTED_EDGE ( 'NONE', *, *, #447, .F. ) ;
#126 = ADVANCED_FACE ( 'NONE', ( #307 ), #87, .T. ) ;
#127 = MECHANICAL_DESIGN_GEOMETRIC_PRESENTATION_REPRESENTATION (  '', ( #191 ), #118 ) ;
#128 = AXIS2_PLACEMENT_3D ( 'NONE', #38, #535, #214 ) ;
#129 = FACE_OUTER_BOUND ( 'NONE', #248, .T. ) ;
#130 = CARTESIAN_POINT ( 'NONE',  ( 12.14383101440439638, 10.00000000000000000, 1.245676156784720989 ) ) ;
#131 = EDGE_LOOP ( 'NONE', ( #113, #499, #184, #280 ) ) ;
#132 = LINE ( 'NONE', #314, #375 ) ;
#133 = CARTESIAN_POINT ( 'NONE',  ( 0.000000000000000000, 0.000000000000000000, 0.000000000000000000 ) ) ;
#134 = ORIENTED_EDGE ( 'NONE', *, *, #522, .F. ) ;
#135 = FACE_OUTER_BOUND ( 'NONE', #217, .T. ) ;
#136 = EDGE_CURVE ( 'NONE', #114, #180, #100, .T. ) ;
#137 = LINE ( 'NONE', #16, #174 ) ;
#138 = LINE ( 'NONE', #62, #407 ) ;
#139 = PRESENTATION_LAYER_ASSIGNMENT (  '', '', ( #191 ) ) ;
#140 = VERTEX_POINT ( 'NONE', #346 ) ;
#141 = CARTESIAN_POINT ( 'NONE',  ( -4.993128310537463754, -0.0009999999999992653654, -14.13970423613200467 ) ) ;
#142 = ORIENTED_EDGE ( 'NONE', *, *, #331, .T. ) ;
#143 = CARTESIAN_POINT ( 'NONE',  ( 0.000000000000000000, 10.00000000000000000, 0.000000000000000000 ) ) ;
#144 = ORIENTED_EDGE ( 'NONE', *, *, #418, .T. ) ;
#145 = EDGE_CURVE ( 'NONE', #77, #417, #391, .T. ) ;
#146 = DIRECTION ( 'NONE',  ( 0.000000000000000000, 1.000000000000000000, 0.000000000000000000 ) ) ;
#147 = AXIS2_PLACEMENT_3D ( 'NONE', #209, #205, #168 ) ;
#148 = ORIENTED_EDGE ( 'NONE', *, *, #242, .T. ) ;
#149 = PRESENTATION_STYLE_ASSIGNMENT (( #188 ) ) ;
#150 = EDGE_LOOP ( 'NONE', ( #361, #355 ) ) ;
#151 = CARTESIAN_POINT ( 'NONE',  ( 9.741907225757767463, 10.00000000000000000, 11.40593019462808222 ) ) ;
#152 = EDGE_CURVE ( 'NONE', #388, #196, #50, .T. ) ;
#153 = ORIENTED_EDGE ( 'NONE', *, *, #325, .T. ) ;
#154 = CARTESIAN_POINT ( 'NONE',  ( 0.000000000000000000, 10.00000000000000000, 8.000000000000000000 ) ) ;
#155 = VERTEX_POINT ( 'NONE', #172 ) ;
#156 = APPLICATION_PROTOCOL_DEFINITION ( 'draft international standard', 'automotive_design', 1998, #473 ) ;
#157 = PRODUCT_DEFINITION_SHAPE ( 'NONE', 'NONE',  #162 ) ;
#158 = CARTESIAN_POINT ( 'NONE',  ( 14.74611525952903435, 10.00000000000000000, 2.748105666215358678 ) ) ;
#159 = PRODUCT_DEFINITION_CONTEXT ( 'detailed design', #382, 'design' ) ;
#160 = CARTESIAN_POINT ( 'NONE',  ( 0.000000000000000000, 10.00000000000000000, 0.000000000000000000 ) ) ;
#161 = EDGE_LOOP ( 'NONE', ( #333, #400, #475, #233, #439, #153, #396, #236, #505, #399, #502, #43 ) ) ;
#162 = PRODUCT_DEFINITION ( 'UNKNOWN', '', #501, #159 ) ;
#163 = LINE ( 'NONE', #452, #12 ) ;
#164 = CARTESIAN_POINT ( 'NONE',  ( 5.006871689461613428, 0.000000000000000000, -11.13970423613184835 ) ) ;
#165 = AXIS2_PLACEMENT_3D ( 'NONE', #160, #449, #374 ) ;
#166 = VECTOR ( 'NONE', #10, 1000.000000000000114 ) ;
#167 = LINE ( 'NONE', #335, #200 ) ;
#168 = DIRECTION ( 'NONE',  ( 1.084747201857992096E-15, 0.000000000000000000, -1.000000000000000000 ) ) ;
#169 = DIRECTION ( 'NONE',  ( 0.000000000000000000, 1.000000000000000000, 0.000000000000000000 ) ) ;
#170 = LINE ( 'NONE', #207, #79 ) ;
#171 = CARTESIAN_POINT ( 'NONE',  ( 0.000000000000000000, 10.00000000000000000, 0.000000000000000000 ) ) ;
#172 = CARTESIAN_POINT ( 'NONE',  ( -9.752986948991164695, 10.00000000000000000, 11.39645758877766468 ) ) ;
#173 = COLOUR_RGB ( '',0.7921568627450980005, 0.8196078431372548767, 0.9333333333333333481 ) ;
#174 = VECTOR ( 'NONE', #19, 1000.000000000000000 ) ;
#175 = CARTESIAN_POINT ( 'NONE',  ( -12.15070270386552131, 10.00000000000000000, 1.233774041503125751 ) ) ;
#176 = LINE ( 'NONE', #507, #202 ) ;
#177 = EDGE_CURVE ( 'NONE', #283, #518, #224, .T. ) ;
#178 = CARTESIAN_POINT ( 'NONE',  ( 7.143831014404854685, 0.000000000000000000, 9.905930194628309593 ) ) ;
#179 = DIRECTION ( 'NONE',  ( 1.000000000000000000, 0.000000000000000000, 5.204170427930898544E-16 ) ) ;
#180 = VERTEX_POINT ( 'NONE', #57 ) ;
#181 = LINE ( 'NONE', #23, #352 ) ;
#182 = VERTEX_POINT ( 'NONE', #504 ) ;
#183 = DIRECTION ( 'NONE',  ( -0.000000000000000000, 1.000000000000000000, -0.000000000000000000 ) ) ;
#184 = ORIENTED_EDGE ( 'NONE', *, *, #465, .T. ) ;
#185 = DIRECTION ( 'NONE',  ( -0.8660254037844384856, 0.000000000000000000, -0.5000000000000004441 ) ) ;
#186 = ADVANCED_FACE ( 'NONE', ( #221 ), #387, .F. ) ;
#187 = EDGE_LOOP ( 'NONE', ( #319, #508, #529, #270 ) ) ;
#188 = SURFACE_STYLE_USAGE ( .BOTH. , #523 ) ;
#189 = AXIS2_PLACEMENT_3D ( 'NONE', #111, #146, #487 ) ;
#190 = VERTEX_POINT ( 'NONE', #422 ) ;
#191 = STYLED_ITEM ( 'NONE', ( #149 ), #490 ) ;
#192 = VECTOR ( 'NONE', #260, 1000.000000000000114 ) ;
#193 = ORIENTED_EDGE ( 'NONE', *, *, #284, .F. ) ;
#194 = EDGE_CURVE ( 'NONE', #65, #313, #263, .T. ) ;
#195 = SURFACE_STYLE_FILL_AREA ( #480 ) ;
#196 = VERTEX_POINT ( 'NONE', #384 ) ;
#197 = DIRECTION ( 'NONE',  ( 0.000000000000000000, 1.000000000000000000, 0.000000000000000000 ) ) ;
#198 = VERTEX_POINT ( 'NONE', #511 ) ;
#199 = CARTESIAN_POINT ( 'NONE',  ( 0.000000000000000000, 0.000000000000000000, 0.000000000000000000 ) ) ;
#200 = VECTOR ( 'NONE', #500, 1000.000000000000000 ) ;
#201 = DIRECTION ( 'NONE',  ( 0.000000000000000000, -0.000000000000000000, 1.000000000000000000 ) ) ;
#202 = VECTOR ( 'NONE', #49, 1000.000000000000000 ) ;
#203 = DIRECTION ( 'NONE',  ( 0.000000000000000000, 1.000000000000000000, 0.000000000000000000 ) ) ;
#204 = EDGE_CURVE ( 'NONE', #437, #313, #176, .T. ) ;
#205 = DIRECTION ( 'NONE',  ( 1.000000000000000000, 0.000000000000000000, 1.084747201857992096E-15 ) ) ;
#206 = CARTESIAN_POINT ( 'NONE',  ( -12.15070270386552131, -0.0009999999999992653654, 1.233774041503125751 ) ) ;
#207 = CARTESIAN_POINT ( 'NONE',  ( -16.82619556514920234, 0.000000000000000000, 3.933171103559432780 ) ) ;
#208 = CARTESIAN_POINT ( 'NONE',  ( -4.993128310537467307, 0.000000000000000000, -11.13970423613185368 ) ) ;
#209 = CARTESIAN_POINT ( 'NONE',  ( 5.006871689461616981, -0.0009999999999992653654, -16.53849836024446418 ) ) ;
#210 = EDGE_CURVE ( 'NONE', #347, #338, #37, .T. ) ;
#211 = CARTESIAN_POINT ( 'NONE',  ( 14.74190722575784029, 0.000000000000000000, 2.745676156784798927 ) ) ;
#212 = EDGE_LOOP ( 'NONE', ( #512, #486, #257, #125, #323, #193, #33, #456, #134, #445, #403, #26 ) ) ;
#213 = DIRECTION ( 'NONE',  ( -0.000000000000000000, 1.000000000000000000, -0.000000000000000000 ) ) ;
#214 = DIRECTION ( 'NONE',  ( -0.8660254037844387076, 0.000000000000000000, 0.4999999999999997780 ) ) ;
#215 = LINE ( 'NONE', #223, #485 ) ;
#216 = DIRECTION ( 'NONE',  ( 0.000000000000000000, 0.000000000000000000, 1.000000000000000000 ) ) ;
#217 = EDGE_LOOP ( 'NONE', ( #378, #28, #103, #460 ) ) ;
#218 = CIRCLE ( 'NONE', #427, 8.000000000000000000 ) ;
#219 = VECTOR ( 'NONE', #85, 1000.000000000000227 ) ;
#220 = DIRECTION ( 'NONE',  ( 0.000000000000000000, 0.000000000000000000, -1.000000000000000000 ) ) ;
#221 = FACE_OUTER_BOUND ( 'NONE', #131, .T. ) ;
#222 = ORIENTED_EDGE ( 'NONE', *, *, #34, .T. ) ;
#223 = CARTESIAN_POINT ( 'NONE',  ( 7.143831014404852908, 0.000000000000000000, 9.905930194628309593 ) ) ;
#224 = LINE ( 'NONE', #340, #479 ) ;
#225 = ORIENTED_EDGE ( 'NONE', *, *, #21, .T. ) ;
#226 = FACE_OUTER_BOUND ( 'NONE', #463, .T. ) ;
#227 = ORIENTED_EDGE ( 'NONE', *, *, #2, .T. ) ;
#228 = DIRECTION ( 'NONE',  ( -0.000000000000000000, 1.000000000000000000, -0.000000000000000000 ) ) ;
#229 = ADVANCED_FACE ( 'NONE', ( #332 ), #124, .F. ) ;
#230 = VECTOR ( 'NONE', #345, 1000.000000000000114 ) ;
#231 = ORIENTED_EDGE ( 'NONE', *, *, #99, .T. ) ;
#232 = CARTESIAN_POINT ( 'NONE',  ( 5.006871689461616981, 10.00000000000000000, -16.53849836024446418 ) ) ;
#233 = ORIENTED_EDGE ( 'NONE', *, *, #440, .F. ) ;
#234 =( NAMED_UNIT ( * ) PLANE_ANGLE_UNIT ( ) SI_UNIT ( $, .RADIAN. ) );
#235 = EDGE_CURVE ( 'NONE', #74, #526, #5, .T. ) ;
#236 = ORIENTED_EDGE ( 'NONE', *, *, #136, .F. ) ;
#237 = AXIS2_PLACEMENT_3D ( 'NONE', #133, #303, #466 ) ;
#238 = VERTEX_POINT ( 'NONE', #208 ) ;
#239 = ORIENTED_EDGE ( 'NONE', *, *, #61, .F. ) ;
#240 = CARTESIAN_POINT ( 'NONE',  ( 5.006871689461614316, 10.00000000000000000, -14.13970423613124439 ) ) ;
#241 = CARTESIAN_POINT ( 'NONE',  ( 9.741907225757769240, 10.00000000000000000, 11.40593019462808044 ) ) ;
#242 = EDGE_CURVE ( 'NONE', #514, #74, #253, .T. ) ;
#243 = PLANE ( 'NONE',  #471 ) ;
#244 = VECTOR ( 'NONE', #454, 1000.000000000000000 ) ;
#245 = DIRECTION ( 'NONE',  ( 0.8660254037844389297, -0.000000000000000000, -0.4999999999999995559 ) ) ;
#246 = PLANE ( 'NONE',  #147 ) ;
#247 = DIRECTION ( 'NONE',  ( 0.000000000000000000, -0.000000000000000000, 1.000000000000000000 ) ) ;
#248 = EDGE_LOOP ( 'NONE', ( #484, #144, #363, #315 ) ) ;
#249 = EDGE_CURVE ( 'NONE', #77, #238, #293, .T. ) ;
#250 = AXIS2_PLACEMENT_3D ( 'NONE', #324, #279, #438 ) ;
#251 = CARTESIAN_POINT ( 'NONE',  ( 11.81932387568853571, -0.0009999999999992653654, 12.60532725668462284 ) ) ;
#252 = ORIENTED_EDGE ( 'NONE', *, *, #268, .T. ) ;
#253 = LINE ( 'NONE', #372, #289 ) ;
#254 = DIRECTION ( 'NONE',  ( -0.5000000000000003331, -0.000000000000000000, 0.8660254037844383745 ) ) ;
#255 = DIRECTION ( 'NONE',  ( -0.8660254037844382635, 0.000000000000000000, -0.5000000000000005551 ) ) ;
#256 = CARTESIAN_POINT ( 'NONE',  ( 7.143831014404852908, 10.00000000000000000, 9.905930194628309593 ) ) ;
#257 = ORIENTED_EDGE ( 'NONE', *, *, #249, .F. ) ;
#258 = DIRECTION ( 'NONE',  ( 0.000000000000000000, 0.000000000000000000, -1.000000000000000000 ) ) ;
#259 = EDGE_CURVE ( 'NONE', #520, #114, #163, .T. ) ;
#260 = DIRECTION ( 'NONE',  ( -0.8660254037844381525, 0.000000000000000000, -0.5000000000000007772 ) ) ;
#261 = VERTEX_POINT ( 'NONE', #410 ) ;
#262 = CIRCLE ( 'NONE', #189, 15.00000000000000000 ) ;
#263 = CIRCLE ( 'NONE', #521, 15.00000000000000000 ) ;
#264 = FACE_OUTER_BOUND ( 'NONE', #83, .T. ) ;
#265 = CARTESIAN_POINT ( 'NONE',  ( 11.81932387568853571, 0.000000000000000000, 12.60532725668462284 ) ) ;
#266 = DIRECTION ( 'NONE',  ( -0.000000000000000000, 1.000000000000000000, -0.000000000000000000 ) ) ;
#267 = ORIENTED_EDGE ( 'NONE', *, *, #136, .T. ) ;
#268 = EDGE_CURVE ( 'NONE', #155, #190, #84, .T. ) ;
#269 = FACE_OUTER_BOUND ( 'NONE', #110, .T. ) ;
#270 = ORIENTED_EDGE ( 'NONE', *, *, #242, .F. ) ;
#271 = CARTESIAN_POINT ( 'NONE',  ( -4.993128310537463754, 10.00000000000000000, -14.14456325499339151 ) ) ;
#272 = VECTOR ( 'NONE', #305, 1000.000000000000000 ) ;
#273 = AXIS2_PLACEMENT_3D ( 'NONE', #295, #203, #339 ) ;
#274 = EDGE_LOOP ( 'NONE', ( #321, #278, #66, #277 ) ) ;
#275 = CARTESIAN_POINT ( 'NONE',  ( 0.000000000000000000, 5.000000000000000000, 0.000000000000000000 ) ) ;
#276 = ADVANCED_FACE ( 'NONE', ( #89 ), #82, .F. ) ;
#277 = ORIENTED_EDGE ( 'NONE', *, *, #41, .F. ) ;
#278 = ORIENTED_EDGE ( 'NONE', *, *, #482, .F. ) ;
#279 = DIRECTION ( 'NONE',  ( 0.000000000000000000, 1.000000000000000000, 0.000000000000000000 ) ) ;
#280 = ORIENTED_EDGE ( 'NONE', *, *, #145, .F. ) ;
#281 = FACE_OUTER_BOUND ( 'NONE', #106, .T. ) ;
#282 = PRODUCT ( 'Flare holder', 'Flare holder', '', ( #44 ) ) ;
#283 = VERTEX_POINT ( 'NONE', #46 ) ;
#284 = EDGE_CURVE ( 'NONE', #520, #514, #419, .T. ) ;
#285 = DIRECTION ( 'NONE',  ( 0.000000000000000000, 1.000000000000000000, 0.000000000000000000 ) ) ;
#286 = DIRECTION ( 'NONE',  ( -0.000000000000000000, 1.000000000000000000, -0.000000000000000000 ) ) ;
#287 = VECTOR ( 'NONE', #116, 1000.000000000000000 ) ;
#288 = ORIENTED_EDGE ( 'NONE', *, *, #61, .T. ) ;
#289 = VECTOR ( 'NONE', #80, 1000.000000000000000 ) ;
#290 = LINE ( 'NONE', #534, #287 ) ;
#291 = ADVANCED_FACE ( 'NONE', ( #413 ), #369, .F. ) ;
#292 = LINE ( 'NONE', #414, #36 ) ;
#293 = LINE ( 'NONE', #536, #244 ) ;
#294 = CARTESIAN_POINT ( 'NONE',  ( 5.006871689461614316, 0.000000000000000000, -14.13970423613124261 ) ) ;
#295 = CARTESIAN_POINT ( 'NONE',  ( 0.000000000000000000, 10.00000000000000000, 0.000000000000000000 ) ) ;
#296 = DIRECTION ( 'NONE',  ( 0.8660254037844387076, 0.000000000000000000, -0.4999999999999997780 ) ) ;
#297 = AXIS2_PLACEMENT_3D ( 'NONE', #141, #95, #430 ) ;
#298 = CARTESIAN_POINT ( 'NONE',  ( -14.74877891521883733, 0.000000000000000000, 2.733774041503126195 ) ) ;
#299 = CARTESIAN_POINT ( 'NONE',  ( 5.006871689461613428, -0.0009999999999992653654, -11.13970423613184835 ) ) ;
#300 = ORIENTED_EDGE ( 'NONE', *, *, #418, .F. ) ;
#301 = EDGE_CURVE ( 'NONE', #388, #190, #290, .T. ) ;
#302 = LINE ( 'NONE', #354, #45 ) ;
#303 = DIRECTION ( 'NONE',  ( 0.000000000000000000, 1.000000000000000000, 0.000000000000000000 ) ) ;
#304 = ORIENTED_EDGE ( 'NONE', *, *, #509, .T. ) ;
#305 = DIRECTION ( 'NONE',  ( -1.084747201857992096E-15, 0.000000000000000000, 1.000000000000000000 ) ) ;
#306 = UNCERTAINTY_MEASURE_WITH_UNIT (LENGTH_MEASURE( 1.000000000000000082E-05 ), #442, 'distance_accuracy_value', 'NONE');
#307 = FACE_OUTER_BOUND ( 'NONE', #274, .T. ) ;
#308 = AXIS2_PLACEMENT_3D ( 'NONE', #433, #424, #51 ) ;
#309 = LINE ( 'NONE', #102, #342 ) ;
#310 = EDGE_CURVE ( 'NONE', #140, #437, #470, .T. ) ;
#311 = ORIENTED_EDGE ( 'NONE', *, *, #41, .T. ) ;
#312 = DIRECTION ( 'NONE',  ( 0.000000000000000000, 0.000000000000000000, 1.000000000000000000 ) ) ;
#313 = VERTEX_POINT ( 'NONE', #298 ) ;
#314 = CARTESIAN_POINT ( 'NONE',  ( -12.15070270386552131, 0.000000000000000000, 1.233774041503125751 ) ) ;
#315 = ORIENTED_EDGE ( 'NONE', *, *, #177, .F. ) ;
#316 = LINE ( 'NONE', #271, #416 ) ;
#317 = AXIS2_PLACEMENT_3D ( 'NONE', #11, #18, #220 ) ;
#318 = VECTOR ( 'NONE', #245, 1000.000000000000000 ) ;
#319 = ORIENTED_EDGE ( 'NONE', *, *, #108, .T. ) ;
#320 = ADVANCED_FACE ( 'NONE', ( #377 ), #7, .T. ) ;
#321 = ORIENTED_EDGE ( 'NONE', *, *, #522, .T. ) ;
#322 = PLANE ( 'NONE',  #493 ) ;
#323 = ORIENTED_EDGE ( 'NONE', *, *, #108, .F. ) ;
#324 = CARTESIAN_POINT ( 'NONE',  ( 0.000000000000000000, 10.00000000000000000, 0.000000000000000000 ) ) ;
#325 = EDGE_CURVE ( 'NONE', #155, #8, #96, .T. ) ;
#326 = ORIENTED_EDGE ( 'NONE', *, *, #259, .F. ) ;
#327 = LINE ( 'NONE', #232, #448 ) ;
#328 = FACE_OUTER_BOUND ( 'NONE', #496, .T. ) ;
#329 = CARTESIAN_POINT ( 'NONE',  ( 11.81932387568853571, 10.00000000000000000, 12.60532725668462284 ) ) ;
#330 = ORIENTED_EDGE ( 'NONE', *, *, #411, .T. ) ;
#331 = EDGE_CURVE ( 'NONE', #180, #8, #337, .T. ) ;
#332 = FACE_OUTER_BOUND ( 'NONE', #212, .T. ) ;
#333 = ORIENTED_EDGE ( 'NONE', *, *, #99, .F. ) ;
#334 = VECTOR ( 'NONE', #286, 1000.000000000000000 ) ;
#335 = CARTESIAN_POINT ( 'NONE',  ( -4.993128310537463754, 0.000000000000000000, -14.13970423613200467 ) ) ;
#336 = CARTESIAN_POINT ( 'NONE',  ( -4.993128310537463754, 0.000000000000000000, -14.14456325499339151 ) ) ;
#337 = LINE ( 'NONE', #329, #394 ) ;
#338 = VERTEX_POINT ( 'NONE', #4 ) ;
#339 = DIRECTION ( 'NONE',  ( 0.000000000000000000, 0.000000000000000000, 1.000000000000000000 ) ) ;
#340 = CARTESIAN_POINT ( 'NONE',  ( 0.000000000000000000, 5.000000000000000000, 8.000000000000000000 ) ) ;
#341 = EDGE_CURVE ( 'NONE', #238, #65, #167, .T. ) ;
#342 = VECTOR ( 'NONE', #266, 1000.000000000000000 ) ;
#343 = ORIENTED_EDGE ( 'NONE', *, *, #498, .T. ) ;
#344 = VECTOR ( 'NONE', #420, 1000.000000000000000 ) ;
#345 = DIRECTION ( 'NONE',  ( -0.5000000000000001110, -0.000000000000000000, -0.8660254037844385966 ) ) ;
#346 = CARTESIAN_POINT ( 'NONE',  ( -4.993128310537463754, 10.00000000000000000, -14.14456325499339151 ) ) ;
#347 = VERTEX_POINT ( 'NONE', #503 ) ;
#348 = LINE ( 'NONE', #513, #272 ) ;
#349 = CARTESIAN_POINT ( 'NONE',  ( 0.000000000000000000, 0.000000000000000000, 0.000000000000000000 ) ) ;
#350 = FACE_OUTER_BOUND ( 'NONE', #187, .T. ) ;
#351 = ORIENTED_EDGE ( 'NONE', *, *, #112, .T. ) ;
#352 = VECTOR ( 'NONE', #54, 1000.000000000000000 ) ;
#353 = CYLINDRICAL_SURFACE ( 'NONE', #459, 15.00000000000000000 ) ;
#354 = CARTESIAN_POINT ( 'NONE',  ( 5.006871689461614316, 10.00000000000000000, -14.13970423613124261 ) ) ;
#355 = ORIENTED_EDGE ( 'NONE', *, *, #532, .F. ) ;
#356 = DIRECTION ( 'NONE',  ( 0.000000000000000000, 0.000000000000000000, 1.000000000000000000 ) ) ;
#357 = EDGE_LOOP ( 'NONE', ( #148, #222, #326, #17 ) ) ;
#358 = ADVANCED_FACE ( 'NONE', ( #129 ), #63, .F. ) ;
#359 = CIRCLE ( 'NONE', #308, 8.000000000000000000 ) ;
#360 = AXIS2_PLACEMENT_3D ( 'NONE', #251, #494, #415 ) ;
#361 = ORIENTED_EDGE ( 'NONE', *, *, #411, .F. ) ;
#362 = DIRECTION ( 'NONE',  ( -0.000000000000000000, -1.000000000000000000, -0.000000000000000000 ) ) ;
#363 = ORIENTED_EDGE ( 'NONE', *, *, #532, .T. ) ;
#364 = EDGE_CURVE ( 'NONE', #238, #198, #309, .T. ) ;
#365 = ORIENTED_EDGE ( 'NONE', *, *, #301, .T. ) ;
#366 = DIRECTION ( 'NONE',  ( 0.000000000000000000, 0.000000000000000000, 1.000000000000000000 ) ) ;
#367 = CIRCLE ( 'NONE', #408, 8.000000000000000000 ) ;
#368 = CARTESIAN_POINT ( 'NONE',  ( -16.82619556514920234, 10.00000000000000000, 3.933171103559432780 ) ) ;
#369 = PLANE ( 'NONE',  #29 ) ;
#370 = DIRECTION ( 'NONE',  ( 0.4999999999999995559, 0.000000000000000000, 0.8660254037844389297 ) ) ;
#371 = ADVANCED_FACE ( 'NONE', ( #269 ), #506, .F. ) ;
#372 = CARTESIAN_POINT ( 'NONE',  ( 14.74611525952903435, 10.00000000000000000, 2.748105666215358678 ) ) ;
#373 = DIRECTION ( 'NONE',  ( 0.8660254037844389297, 0.000000000000000000, -0.4999999999999995559 ) ) ;
#374 = DIRECTION ( 'NONE',  ( 0.000000000000000000, 0.000000000000000000, 1.000000000000000000 ) ) ;
#375 = VECTOR ( 'NONE', #432, 1000.000000000000114 ) ;
#376 = ORIENTED_EDGE ( 'NONE', *, *, #489, .T. ) ;
#377 = FACE_OUTER_BOUND ( 'NONE', #24, .T. ) ;
#378 = ORIENTED_EDGE ( 'NONE', *, *, #310, .F. ) ;
#379 = CARTESIAN_POINT ( 'NONE',  ( 0.000000000000000000, 0.000000000000000000, 0.000000000000000000 ) ) ;
#380 = EDGE_CURVE ( 'NONE', #347, #388, #132, .T. ) ;
#381 = DIRECTION ( 'NONE',  ( -0.000000000000000000, -1.000000000000000000, -0.000000000000000000 ) ) ;
#382 = APPLICATION_CONTEXT ( 'automotive_design' ) ;
#383 = DIRECTION ( 'NONE',  ( 0.5000000000000003331, 0.000000000000000000, -0.8660254037844383745 ) ) ;
#384 = CARTESIAN_POINT ( 'NONE',  ( -9.752986948991168248, 0.000000000000000000, 11.39645758877766468 ) ) ;
#385 = EDGE_LOOP ( 'NONE', ( #47, #227, #441, #225 ) ) ;
#386 = LINE ( 'NONE', #175, #230 ) ;
#387 = PLANE ( 'NONE',  #450 ) ;
#388 = VERTEX_POINT ( 'NONE', #395 ) ;
#389 = EDGE_CURVE ( 'NONE', #526, #22, #302, .T. ) ;
#390 = CYLINDRICAL_SURFACE ( 'NONE', #317, 15.00000000000000000 ) ;
#391 = LINE ( 'NONE', #462, #344 ) ;
#392 = ORIENTED_EDGE ( 'NONE', *, *, #341, .T. ) ;
#393 = CYLINDRICAL_SURFACE ( 'NONE', #105, 8.000000000000000000 ) ;
#394 = VECTOR ( 'NONE', #42, 1000.000000000000227 ) ;
#395 = CARTESIAN_POINT ( 'NONE',  ( -7.150702703865981391, 0.000000000000000000, 9.894028079346716353 ) ) ;
#396 = ORIENTED_EDGE ( 'NONE', *, *, #331, .F. ) ;
#397 = DIRECTION ( 'NONE',  ( 1.000000000000000000, 0.000000000000000000, 0.000000000000000000 ) ) ;
#398 = ADVANCED_FACE ( 'NONE', ( #135 ), #353, .T. ) ;
#399 = ORIENTED_EDGE ( 'NONE', *, *, #235, .T. ) ;
#400 = ORIENTED_EDGE ( 'NONE', *, *, #310, .T. ) ;
#401 = AXIS2_PLACEMENT_3D ( 'NONE', #86, #169, #247 ) ;
#402 = AXIS2_PLACEMENT_3D ( 'NONE', #431, #381, #60 ) ;
#403 = ORIENTED_EDGE ( 'NONE', *, *, #380, .F. ) ;
#404 = EDGE_CURVE ( 'NONE', #443, #180, #464, .T. ) ;
#405 = ORIENTED_EDGE ( 'NONE', *, *, #425, .T. ) ;
#406 = FACE_OUTER_BOUND ( 'NONE', #161, .T. ) ;
#407 = VECTOR ( 'NONE', #59, 1000.000000000000000 ) ;
#408 = AXIS2_PLACEMENT_3D ( 'NONE', #537, #285, #412 ) ;
#409 = PLANE ( 'NONE',  #128 ) ;
#410 = CARTESIAN_POINT ( 'NONE',  ( 9.797174393178825657E-16, 5.000000000000000000, -8.000000000000000000 ) ) ;
#411 = EDGE_CURVE ( 'NONE', #518, #109, #359, .T. ) ;
#412 = DIRECTION ( 'NONE',  ( 0.000000000000000000, 0.000000000000000000, 1.000000000000000000 ) ) ;
#413 = FACE_OUTER_BOUND ( 'NONE', #357, .T. ) ;
#414 = CARTESIAN_POINT ( 'NONE',  ( -9.752986948991168248, 10.00000000000000000, 11.39645758877766468 ) ) ;
#415 = DIRECTION ( 'NONE',  ( 0.8660254037844381525, 0.000000000000000000, 0.5000000000000007772 ) ) ;
#416 = VECTOR ( 'NONE', #525, 1000.000000000000000 ) ;
#417 = VERTEX_POINT ( 'NONE', #468 ) ;
#418 = EDGE_CURVE ( 'NONE', #261, #109, #181, .T. ) ;
#419 = LINE ( 'NONE', #211, #119 ) ;
#420 = DIRECTION ( 'NONE',  ( -0.000000000000000000, 1.000000000000000000, -0.000000000000000000 ) ) ;
#421 = DIRECTION ( 'NONE',  ( -0.000000000000000000, -1.000000000000000000, -0.000000000000000000 ) ) ;
#422 = CARTESIAN_POINT ( 'NONE',  ( -7.150702703865979615, 10.00000000000000000, 9.894028079346716353 ) ) ;
#423 = ORIENTED_EDGE ( 'NONE', *, *, #447, .T. ) ;
#424 = DIRECTION ( 'NONE',  ( 0.000000000000000000, 1.000000000000000000, 0.000000000000000000 ) ) ;
#425 = EDGE_CURVE ( 'NONE', #443, #520, #215, .T. ) ;
#426 = DIRECTION ( 'NONE',  ( -0.000000000000000000, 1.000000000000000000, -0.000000000000000000 ) ) ;
#427 = AXIS2_PLACEMENT_3D ( 'NONE', #275, #197, #356 ) ;
#428 = ORIENTED_EDGE ( 'NONE', *, *, #177, .T. ) ;
#429 = VECTOR ( 'NONE', #254, 1000.000000000000114 ) ;
#430 = DIRECTION ( 'NONE',  ( -7.231648012388898055E-16, 0.000000000000000000, 1.000000000000000000 ) ) ;
#431 = CARTESIAN_POINT ( 'NONE',  ( 0.000000000000000000, 10.00000000000000000, 0.000000000000000000 ) ) ;
#432 = DIRECTION ( 'NONE',  ( 0.4999999999999999445, -0.000000000000000000, 0.8660254037844385966 ) ) ;
#433 = CARTESIAN_POINT ( 'NONE',  ( 0.000000000000000000, 10.00000000000000000, 0.000000000000000000 ) ) ;
#434 = CLOSED_SHELL ( 'NONE', ( #358, #398, #436, #126, #14, #229, #476, #320, #75, #88, #516, #291, #276, #371, #457, #52, #186 ) ) ;
#435 =( NAMED_UNIT ( * ) PLANE_ANGLE_UNIT ( ) SI_UNIT ( $, .RADIAN. ) );
#436 = ADVANCED_FACE ( 'NONE', ( #350 ), #390, .T. ) ;
#437 = VERTEX_POINT ( 'NONE', #101 ) ;
#438 = DIRECTION ( 'NONE',  ( 0.000000000000000000, 0.000000000000000000, 1.000000000000000000 ) ) ;
#439 = ORIENTED_EDGE ( 'NONE', *, *, #268, .F. ) ;
#440 = EDGE_CURVE ( 'NONE', #190, #338, #386, .T. ) ;
#441 = ORIENTED_EDGE ( 'NONE', *, *, #210, .T. ) ;
#442 =( LENGTH_UNIT ( ) NAMED_UNIT ( * ) SI_UNIT ( .MILLI., .METRE. ) );
#443 = VERTEX_POINT ( 'NONE', #178 ) ;
#444 = FILL_AREA_STYLE_COLOUR ( '', #173 ) ;
#445 = ORIENTED_EDGE ( 'NONE', *, *, #152, .F. ) ;
#446 = CARTESIAN_POINT ( 'NONE',  ( -9.748778915219427077, -0.0009999999999992653654, 11.39402807934678918 ) ) ;
#447 = EDGE_CURVE ( 'NONE', #22, #77, #348, .T. ) ;
#448 = VECTOR ( 'NONE', #107, 1000.000000000000000 ) ;
#449 = DIRECTION ( 'NONE',  ( 0.000000000000000000, 1.000000000000000000, 0.000000000000000000 ) ) ;
#450 = AXIS2_PLACEMENT_3D ( 'NONE', #299, #90, #179 ) ;
#451 = FACE_OUTER_BOUND ( 'NONE', #453, .T. ) ;
#452 = CARTESIAN_POINT ( 'NONE',  ( 12.14383101440439638, -0.0009999999999992653654, 1.245676156784720989 ) ) ;
#453 = EDGE_LOOP ( 'NONE', ( #478, #423, #481, #343 ) ) ;
#454 = DIRECTION ( 'NONE',  ( -1.000000000000000000, 0.000000000000000000, -5.204170427930898544E-16 ) ) ;
#455 = CIRCLE ( 'NONE', #250, 8.000000000000000000 ) ;
#456 = ORIENTED_EDGE ( 'NONE', *, *, #112, .F. ) ;
#457 = ADVANCED_FACE ( 'NONE', ( #264 ), #515, .F. ) ;
#458 = DIRECTION ( 'NONE',  ( 0.5000000000000006661, 0.000000000000000000, -0.8660254037844383745 ) ) ;
#459 = AXIS2_PLACEMENT_3D ( 'NONE', #143, #472, #258 ) ;
#460 = ORIENTED_EDGE ( 'NONE', *, *, #204, .F. ) ;
#461 = DIRECTION ( 'NONE',  ( 0.000000000000000000, -0.000000000000000000, 1.000000000000000000 ) ) ;
#462 = CARTESIAN_POINT ( 'NONE',  ( 5.006871689461613428, -0.0009999999999992653654, -11.13970423613184835 ) ) ;
#463 = EDGE_LOOP ( 'NONE', ( #300, #239, #428, #330 ) ) ;
#464 = LINE ( 'NONE', #477, #55 ) ;
#465 = EDGE_CURVE ( 'NONE', #198, #417, #138, .T. ) ;
#466 = DIRECTION ( 'NONE',  ( 0.000000000000000000, 0.000000000000000000, 1.000000000000000000 ) ) ;
#467 = ORIENTED_EDGE ( 'NONE', *, *, #482, .T. ) ;
#468 = CARTESIAN_POINT ( 'NONE',  ( 5.006871689461613428, 10.00000000000000000, -11.13970423613184835 ) ) ;
#469 = CARTESIAN_POINT ( 'NONE',  ( 9.797174393178825657E-16, 10.00000000000000000, -8.000000000000000000 ) ) ;
#470 = CIRCLE ( 'NONE', #64, 15.00000000000000000 ) ;
#471 = AXIS2_PLACEMENT_3D ( 'NONE', #35, #81, #201 ) ;
#472 = DIRECTION ( 'NONE',  ( -0.000000000000000000, -1.000000000000000000, -0.000000000000000000 ) ) ;
#473 = APPLICATION_CONTEXT ( 'automotive_design' ) ;
#474 = LINE ( 'NONE', #151, #72 ) ;
#475 = ORIENTED_EDGE ( 'NONE', *, *, #21, .F. ) ;
#476 = ADVANCED_FACE ( 'NONE', ( #226 ), #393, .F. ) ;
#477 = CARTESIAN_POINT ( 'NONE',  ( 7.143831014404852908, -0.0009999999999992653654, 9.905930194628309593 ) ) ;
#478 = ORIENTED_EDGE ( 'NONE', *, *, #389, .T. ) ;
#479 = VECTOR ( 'NONE', #426, 1000.000000000000000 ) ;
#480 = FILL_AREA_STYLE ('',( #444 ) ) ;
#481 = ORIENTED_EDGE ( 'NONE', *, *, #145, .T. ) ;
#482 = EDGE_CURVE ( 'NONE', #8, #182, #474, .T. ) ;
#483 = EDGE_LOOP ( 'NONE', ( #467, #351, #71, #142 ) ) ;
#484 = ORIENTED_EDGE ( 'NONE', *, *, #509, .F. ) ;
#485 = VECTOR ( 'NONE', #383, 1000.000000000000114 ) ;
#486 = ORIENTED_EDGE ( 'NONE', *, *, #341, .F. ) ;
#487 = DIRECTION ( 'NONE',  ( 0.000000000000000000, 0.000000000000000000, 1.000000000000000000 ) ) ;
#488 = FACE_BOUND ( 'NONE', #150, .T. ) ;
#489 = EDGE_CURVE ( 'NONE', #65, #140, #316, .T. ) ;
#490 = MANIFOLD_SOLID_BREP ( 'Cut-Extrude2', #434 ) ;
#491 = DIRECTION ( 'NONE',  ( 0.000000000000000000, 0.000000000000000000, 1.000000000000000000 ) ) ;
#492 = DIRECTION ( 'NONE',  ( -0.8660254037844387076, -0.000000000000000000, 0.4999999999999998335 ) ) ;
#493 = AXIS2_PLACEMENT_3D ( 'NONE', #519, #70, #528 ) ;
#494 = DIRECTION ( 'NONE',  ( -0.5000000000000008882, 0.000000000000000000, 0.8660254037844382635 ) ) ;
#495 = AXIS2_PLACEMENT_3D ( 'NONE', #446, #370, #373 ) ;
#496 = EDGE_LOOP ( 'NONE', ( #311, #252, #58, #91 ) ) ;
#497 = DIRECTION ( 'NONE',  ( 0.000000000000000000, 1.000000000000000000, 0.000000000000000000 ) ) ;
#498 = EDGE_CURVE ( 'NONE', #417, #526, #327, .T. ) ;
#499 = ORIENTED_EDGE ( 'NONE', *, *, #364, .T. ) ;
#500 = DIRECTION ( 'NONE',  ( 7.231648012388898055E-16, 0.000000000000000000, -1.000000000000000000 ) ) ;
#501 = PRODUCT_DEFINITION_FORMATION_WITH_SPECIFIED_SOURCE ( 'ANY', '', #282, .NOT_KNOWN. ) ;
#502 = ORIENTED_EDGE ( 'NONE', *, *, #498, .F. ) ;
#503 = CARTESIAN_POINT ( 'NONE',  ( -12.15070270386552131, 0.000000000000000000, 1.233774041503126417 ) ) ;
#504 = CARTESIAN_POINT ( 'NONE',  ( 9.741907225757767463, 0.000000000000000000, 11.40593019462808222 ) ) ;
#505 = ORIENTED_EDGE ( 'NONE', *, *, #34, .F. ) ;
#506 = PLANE ( 'NONE',  #531 ) ;
#507 = CARTESIAN_POINT ( 'NONE',  ( -14.74877891521883733, 10.00000000000000000, 2.733774041503126195 ) ) ;
#508 = ORIENTED_EDGE ( 'NONE', *, *, #389, .F. ) ;
#509 = EDGE_CURVE ( 'NONE', #261, #283, #218, .T. ) ;
#510 = CARTESIAN_POINT ( 'NONE',  ( 7.143831014404852908, -0.0009999999999992653654, 9.905930194628309593 ) ) ;
#511 = CARTESIAN_POINT ( 'NONE',  ( -4.993128310537468195, 10.00000000000000000, -11.13970423613185368 ) ) ;
#512 = ORIENTED_EDGE ( 'NONE', *, *, #194, .F. ) ;
#513 = CARTESIAN_POINT ( 'NONE',  ( 5.006871689461616981, 0.000000000000000000, -16.53849836024446418 ) ) ;
#514 = VERTEX_POINT ( 'NONE', #25 ) ;
#515 = PLANE ( 'NONE',  #297 ) ;
#516 = ADVANCED_FACE ( 'NONE', ( #281 ), #322, .F. ) ;
#517 = CARTESIAN_POINT ( 'NONE',  ( 0.000000000000000000, 5.000000000000000000, 0.000000000000000000 ) ) ;
#518 = VERTEX_POINT ( 'NONE', #154 ) ;
#519 = CARTESIAN_POINT ( 'NONE',  ( -12.15070270386552131, -0.0009999999999992653654, 1.233774041503125751 ) ) ;
#520 = VERTEX_POINT ( 'NONE', #76 ) ;
#521 = AXIS2_PLACEMENT_3D ( 'NONE', #349, #53, #216 ) ;
#522 = EDGE_CURVE ( 'NONE', #196, #182, #262, .T. ) ;
#523 = SURFACE_SIDE_STYLE ('',( #195 ) ) ;
#524 = ORIENTED_EDGE ( 'NONE', *, *, #380, .T. ) ;
#525 = DIRECTION ( 'NONE',  ( 0.000000000000000000, 1.000000000000000000, 0.000000000000000000 ) ) ;
#526 = VERTEX_POINT ( 'NONE', #240 ) ;
#527 =( GEOMETRIC_REPRESENTATION_CONTEXT ( 3 ) GLOBAL_UNCERTAINTY_ASSIGNED_CONTEXT ( ( #97 ) ) GLOBAL_UNIT_ASSIGNED_CONTEXT ( ( #73, #234, #530 ) ) REPRESENTATION_CONTEXT ( 'NONE', 'WORKASPACE' ) );
#528 = DIRECTION ( 'NONE',  ( -0.4999999999999999445, 0.000000000000000000, -0.8660254037844385966 ) ) ;
#529 = ORIENTED_EDGE ( 'NONE', *, *, #235, .F. ) ;
#530 =( NAMED_UNIT ( * ) SI_UNIT ( $, .STERADIAN. ) SOLID_ANGLE_UNIT ( ) );
#531 = AXIS2_PLACEMENT_3D ( 'NONE', #510, #185, #15 ) ;
#532 = EDGE_CURVE ( 'NONE', #109, #518, #455, .T. ) ;
#533 = LINE ( 'NONE', #117, #219 ) ;
#534 = CARTESIAN_POINT ( 'NONE',  ( -7.150702703865979615, -0.0009999999999992653654, 9.894028079346716353 ) ) ;
#535 = DIRECTION ( 'NONE',  ( -0.4999999999999998335, 0.000000000000000000, -0.8660254037844388186 ) ) ;
#536 = CARTESIAN_POINT ( 'NONE',  ( 5.006871689461613428, 0.000000000000000000, -11.13970423613184835 ) ) ;
#537 = CARTESIAN_POINT ( 'NONE',  ( 0.000000000000000000, 5.000000000000000000, 0.000000000000000000 ) ) ;
ENDSEC;
END-ISO-10303-21;
