ISO-10303-21;
HEADER;
FILE_DESCRIPTION (( 'STEP AP214' ),
    '1' );
FILE_NAME ('Part3.STEP',
    '2026-06-18T22:53:25',
    ( '' ),
    ( '' ),
    'SwSTEP 2.0',
    'SolidWorks 2024',
    '' );
FILE_SCHEMA (( 'AUTOMOTIVE_DESIGN' ));
ENDSEC;

DATA;
#1 = AXIS2_PLACEMENT_3D ( 'NONE', #427, #495, #753 ) ;
#2 = CARTESIAN_POINT ( 'NONE',  ( 62.62996145210227183, -4.900000000000000355, 289.7731158528332571 ) ) ;
#3 = ORIENTED_EDGE ( 'NONE', *, *, #157, .F. ) ;
#4 = CARTESIAN_POINT ( 'NONE',  ( 133.5230226586241429, -4.900000000000000355, 35.61244994884994952 ) ) ;
#5 = EDGE_CURVE ( 'NONE', #642, #336, #736, .T. ) ;
#6 = DIRECTION ( 'NONE',  ( 0.8574929257125809556, 0.000000000000000000, -0.5144957554274652844 ) ) ;
#7 = ORIENTED_EDGE ( 'NONE', *, *, #190, .T. ) ;
#8 = DIRECTION ( 'NONE',  ( 0.000000000000000000, 1.000000000000000000, 0.000000000000000000 ) ) ;
#9 = FACE_OUTER_BOUND ( 'NONE', #684, .T. ) ;
#10 = CARTESIAN_POINT ( 'NONE',  ( 136.6464164222430213, -4.900000000000000355, 227.7440273704418416 ) ) ;
#11 = ORIENTED_EDGE ( 'NONE', *, *, #152, .F. ) ;
#12 = CARTESIAN_POINT ( 'NONE',  ( 40.71872623526564894, -4.900000000000000355, 289.0000000000000568 ) ) ;
#13 = DIRECTION ( 'NONE',  ( 0.8574929257125809556, 0.000000000000000000, -0.5144957554274653955 ) ) ;
#14 = PRODUCT_DEFINITION_FORMATION_WITH_SPECIFIED_SOURCE ( 'ANY', '', #564, .NOT_KNOWN. ) ;
#15 = FACE_OUTER_BOUND ( 'NONE', #648, .T. ) ;
#16 = ADVANCED_FACE ( 'NONE', ( #794 ), #673, .F. ) ;
#17 = AXIS2_PLACEMENT_3D ( 'NONE', #4, #326, #82 ) ;
#18 = ORIENTED_EDGE ( 'NONE', *, *, #665, .T. ) ;
#19 = DIRECTION ( 'NONE',  ( 1.387778780781521406E-14, 0.000000000000000000, 1.000000000000000000 ) ) ;
#20 = DIRECTION ( 'NONE',  ( 1.387778780781521406E-14, 0.000000000000000000, 1.000000000000000000 ) ) ;
#21 = VERTEX_POINT ( 'NONE', #460 ) ;
#22 = CARTESIAN_POINT ( 'NONE',  ( 66.31186993339362346, 4.900000000000000355, 273.3649865593858408 ) ) ;
#23 = CARTESIAN_POINT ( 'NONE',  ( 66.74715485200513854, -4.900000000000000355, 274.3363764986254409 ) ) ;
#24 = VERTEX_POINT ( 'NONE', #195 ) ;
#25 = LINE ( 'NONE', #298, #831 ) ;
#26 = ADVANCED_FACE ( 'NONE', ( #267 ), #540, .F. ) ;
#27 = DIRECTION ( 'NONE',  ( 0.000000000000000000, 1.000000000000000000, 0.000000000000000000 ) ) ;
#28 = VECTOR ( 'NONE', #795, 1000.000000000000114 ) ;
#29 = ORIENTED_EDGE ( 'NONE', *, *, #407, .F. ) ;
#30 = VECTOR ( 'NONE', #182, 1000.000000000000000 ) ;
#31 = AXIS2_PLACEMENT_3D ( 'NONE', #714, #649, #387 ) ;
#32 = CARTESIAN_POINT ( 'NONE',  ( 69.42094084484564576, -4.900000000000000355, 272.9759102313150834 ) ) ;
#33 = EDGE_CURVE ( 'NONE', #21, #385, #94, .T. ) ;
#34 = PRODUCT_DEFINITION_SHAPE ( 'NONE', 'NONE',  #748 ) ;
#35 = ADVANCED_FACE ( 'NONE', ( #662 ), #343, .F. ) ;
#36 = VERTEX_POINT ( 'NONE', #401 ) ;
#37 = DIRECTION ( 'NONE',  ( -0.000000000000000000, 0.000000000000000000, 1.000000000000000000 ) ) ;
#38 = CARTESIAN_POINT ( 'NONE',  ( 133.5230226586241429, -4.900000000000000355, 35.61244994884994952 ) ) ;
#39 = ORIENTED_EDGE ( 'NONE', *, *, #717, .F. ) ;
#40 = CARTESIAN_POINT ( 'NONE',  ( -4.901257467238443688, -4.900000000000000355, 0.7240699127400085366 ) ) ;
#41 = VERTEX_POINT ( 'NONE', #666 ) ;
#42 = EDGE_CURVE ( 'NONE', #189, #322, #65, .T. ) ;
#43 = COLOUR_RGB ( '',0.7921568627450980005, 0.8196078431372548767, 0.9333333333333333481 ) ;
#44 =( NAMED_UNIT ( * ) PLANE_ANGLE_UNIT ( ) SI_UNIT ( $, .RADIAN. ) );
#45 = AXIS2_PLACEMENT_3D ( 'NONE', #348, #548, #205 ) ;
#46 = AXIS2_PLACEMENT_3D ( 'NONE', #23, #629, #814 ) ;
#47 = CARTESIAN_POINT ( 'NONE',  ( 67.99846618472480486, -4.900000000000000355, 270.1802563347129649 ) ) ;
#48 = AXIS2_PLACEMENT_3D ( 'NONE', #500, #482, #759 ) ;
#49 = VERTEX_POINT ( 'NONE', #2 ) ;
#50 = DIRECTION ( 'NONE',  ( 0.000000000000000000, 0.000000000000000000, 1.000000000000000000 ) ) ;
#51 = DIRECTION ( 'NONE',  ( -0.4089262467471937446, 0.000000000000000000, -0.9125674357116043689 ) ) ;
#52 = VERTEX_POINT ( 'NONE', #732 ) ;
#53 = DIRECTION ( 'NONE',  ( 0.000000000000000000, 0.000000000000000000, 1.000000000000000000 ) ) ;
#54 = EDGE_CURVE ( 'NONE', #310, #594, #602, .T. ) ;
#55 = ORIENTED_EDGE ( 'NONE', *, *, #283, .F. ) ;
#56 = DIRECTION ( 'NONE',  ( 0.000000000000000000, 0.000000000000000000, 1.000000000000000000 ) ) ;
#57 = ORIENTED_EDGE ( 'NONE', *, *, #192, .T. ) ;
#58 = DIRECTION ( 'NONE',  ( 0.000000000000000000, 1.000000000000000000, -0.000000000000000000 ) ) ;
#59 = AXIS2_PLACEMENT_3D ( 'NONE', #547, #538, #123 ) ;
#60 = DIRECTION ( 'NONE',  ( 0.000000000000000000, 1.000000000000000000, 0.000000000000000000 ) ) ;
#61 = EDGE_CURVE ( 'NONE', #100, #744, #72, .T. ) ;
#62 = DIRECTION ( 'NONE',  ( 0.000000000000000000, 0.000000000000000000, 1.000000000000000000 ) ) ;
#63 = VERTEX_POINT ( 'NONE', #735 ) ;
#64 = PLANE ( 'NONE',  #399 ) ;
#65 = LINE ( 'NONE', #853, #453 ) ;
#66 = EDGE_CURVE ( 'NONE', #858, #36, #828, .T. ) ;
#67 = SHAPE_DEFINITION_REPRESENTATION ( #34, #537 ) ;
#68 = VERTEX_POINT ( 'NONE', #233 ) ;
#69 = CARTESIAN_POINT ( 'NONE',  ( 69.42094084484564576, -4.900000000000000355, 272.9759102313150834 ) ) ;
#70 = CARTESIAN_POINT ( 'NONE',  ( 0.000000000000000000, -4.900000000000000355, 54.99999999999999289 ) ) ;
#71 = APPLICATION_CONTEXT ( 'automotive_design' ) ;
#72 = LINE ( 'NONE', #544, #527 ) ;
#73 = EDGE_LOOP ( 'NONE', ( #811, #240, #541, #18 ) ) ;
#74 = EDGE_CURVE ( 'NONE', #323, #739, #223, .T. ) ;
#75 = FACE_OUTER_BOUND ( 'NONE', #752, .T. ) ;
#76 = VECTOR ( 'NONE', #13, 1000.000000000000000 ) ;
#77 = AXIS2_PLACEMENT_3D ( 'NONE', #843, #700, #849 ) ;
#78 = ORIENTED_EDGE ( 'NONE', *, *, #361, .F. ) ;
#79 = LINE ( 'NONE', #337, #741 ) ;
#80 = ORIENTED_EDGE ( 'NONE', *, *, #74, .F. ) ;
#81 = AXIS2_PLACEMENT_3D ( 'NONE', #559, #824, #742 ) ;
#82 = DIRECTION ( 'NONE',  ( -0.2577052842777613484, 0.000000000000000000, 0.9662235696024590315 ) ) ;
#83 = CARTESIAN_POINT ( 'NONE',  ( 66.27821336559702559, 4.900000000000000355, 271.1311395833916436 ) ) ;
#84 = ORIENTED_EDGE ( 'NONE', *, *, #450, .T. ) ;
#85 = LINE ( 'NONE', #375, #607 ) ;
#86 = ADVANCED_FACE ( 'NONE', ( #150 ), #615, .T. ) ;
#87 = CARTESIAN_POINT ( 'NONE',  ( 130.6243519498166279, 4.900000000000000355, 34.83933409601657161 ) ) ;
#88 = ORIENTED_EDGE ( 'NONE', *, *, #441, .F. ) ;
#89 = DIRECTION ( 'NONE',  ( 0.000000000000000000, 1.000000000000000000, 0.000000000000000000 ) ) ;
#90 = LINE ( 'NONE', #751, #583 ) ;
#91 = VECTOR ( 'NONE', #687, 1000.000000000000000 ) ;
#92 = ORIENTED_EDGE ( 'NONE', *, *, #712, .T. ) ;
#93 = PLANE ( 'NONE',  #773 ) ;
#94 = CIRCLE ( 'NONE', #789, 2.999999999999947153 ) ;
#95 = DIRECTION ( 'NONE',  ( 0.000000000000000000, 1.000000000000000000, 0.000000000000000000 ) ) ;
#96 = ORIENTED_EDGE ( 'NONE', *, *, #461, .T. ) ;
#97 = ADVANCED_FACE ( 'NONE', ( #549 ), #433, .F. ) ;
#98 = DIRECTION ( 'NONE',  ( 0.000000000000000000, 1.000000000000000000, 0.000000000000000000 ) ) ;
#99 = CARTESIAN_POINT ( 'NONE',  ( 59.73129074329483501, -4.900000000000000355, 292.0000000000000568 ) ) ;
#100 = VERTEX_POINT ( 'NONE', #350 ) ;
#101 = EDGE_CURVE ( 'NONE', #744, #560, #458, .T. ) ;
#102 = CARTESIAN_POINT ( 'NONE',  ( 67.99846618472480486, 4.900000000000000355, 270.1802563347129649 ) ) ;
#103 = EDGE_CURVE ( 'NONE', #621, #279, #164, .T. ) ;
#104 = ORIENTED_EDGE ( 'NONE', *, *, #803, .F. ) ;
#105 = VECTOR ( 'NONE', #708, 1000.000000000000000 ) ;
#106 = CARTESIAN_POINT ( 'NONE',  ( 43.30809204199562146, 4.900000000000000355, 292.0000000000000568 ) ) ;
#107 = CARTESIAN_POINT ( 'NONE',  ( 0.000000000000000000, -4.900000000000000355, 292.0000000000000568 ) ) ;
#108 = EDGE_LOOP ( 'NONE', ( #230, #723, #584, #451 ) ) ;
#109 = FACE_OUTER_BOUND ( 'NONE', #216, .T. ) ;
#110 = ADVANCED_FACE ( 'NONE', ( #15 ), #220, .F. ) ;
#111 = ORIENTED_EDGE ( 'NONE', *, *, #369, .T. ) ;
#112 =( LENGTH_UNIT ( ) NAMED_UNIT ( * ) SI_UNIT ( .MILLI., .METRE. ) );
#113 = LINE ( 'NONE', #38, #569 ) ;
#114 = ORIENTED_EDGE ( 'NONE', *, *, #504, .T. ) ;
#115 = CARTESIAN_POINT ( 'NONE',  ( 0.000000000000000000, 4.900000000000000355, 292.0000000000000568 ) ) ;
#116 = AXIS2_PLACEMENT_3D ( 'NONE', #823, #27, #497 ) ;
#117 = DIRECTION ( 'NONE',  ( 0.000000000000000000, 1.000000000000000000, 0.000000000000000000 ) ) ;
#118 = ORIENTED_EDGE ( 'NONE', *, *, #461, .F. ) ;
#119 = PLANE ( 'NONE',  #787 ) ;
#120 = ADVANCED_FACE ( 'NONE', ( #611 ), #277, .F. ) ;
#121 = ORIENTED_EDGE ( 'NONE', *, *, #522, .F. ) ;
#122 = ORIENTED_EDGE ( 'NONE', *, *, #294, .T. ) ;
#123 = DIRECTION ( 'NONE',  ( -0.5144957554275237932, 0.000000000000000000, -0.8574929257125457616 ) ) ;
#124 = DIRECTION ( 'NONE',  ( 0.000000000000000000, 1.000000000000000000, -0.000000000000000000 ) ) ;
#125 = VERTEX_POINT ( 'NONE', #553 ) ;
#126 =( GEOMETRIC_REPRESENTATION_CONTEXT ( 3 ) GLOBAL_UNCERTAINTY_ASSIGNED_CONTEXT ( ( #194 ) ) GLOBAL_UNIT_ASSIGNED_CONTEXT ( ( #112, #44, #845 ) ) REPRESENTATION_CONTEXT ( 'NONE', 'WORKASPACE' ) );
#127 = CARTESIAN_POINT ( 'NONE',  ( -4.901257467238443688, 4.900000000000000355, 0.7240699127400085366 ) ) ;
#128 = AXIS2_PLACEMENT_3D ( 'NONE', #360, #624, #20 ) ;
#129 = CARTESIAN_POINT ( 'NONE',  ( 0.000000000000000000, -4.900000000000000355, 295.0000000000000568 ) ) ;
#130 = DIRECTION ( 'NONE',  ( 0.000000000000000000, 1.000000000000000000, 0.000000000000000000 ) ) ;
#131 = VERTEX_POINT ( 'NONE', #809 ) ;
#132 = CARTESIAN_POINT ( 'NONE',  ( 62.62996145210227183, 4.900000000000000355, 289.7731158528332571 ) ) ;
#133 = CARTESIAN_POINT ( 'NONE',  ( 69.64582556081251141, -4.900000000000000355, 275.1094923514588118 ) ) ;
#134 = EDGE_CURVE ( 'NONE', #642, #608, #146, .T. ) ;
#135 = CARTESIAN_POINT ( 'NONE',  ( 17.36076295598575925, -4.900000000000000355, 151.4165540435108426 ) ) ;
#136 = ORIENTED_EDGE ( 'NONE', *, *, #395, .T. ) ;
#137 = DIRECTION ( 'NONE',  ( 0.000000000000000000, 0.000000000000000000, 1.000000000000000000 ) ) ;
#138 = DIRECTION ( 'NONE',  ( 0.000000000000000000, 1.000000000000000000, 0.000000000000000000 ) ) ;
#139 = ORIENTED_EDGE ( 'NONE', *, *, #74, .T. ) ;
#140 = CARTESIAN_POINT ( 'NONE',  ( 43.30809204199562146, -4.900000000000000355, 292.0000000000000568 ) ) ;
#141 = ORIENTED_EDGE ( 'NONE', *, *, #588, .T. ) ;
#142 = LINE ( 'NONE', #198, #442 ) ;
#143 = VECTOR ( 'NONE', #670, 1000.000000000000000 ) ;
#144 = VECTOR ( 'NONE', #60, 1000.000000000000000 ) ;
#145 = VECTOR ( 'NONE', #374, 1000.000000000000114 ) ;
#146 = LINE ( 'NONE', #87, #851 ) ;
#147 = ORIENTED_EDGE ( 'NONE', *, *, #769, .T. ) ;
#148 = EDGE_CURVE ( 'NONE', #264, #663, #314, .T. ) ;
#149 = CARTESIAN_POINT ( 'NONE',  ( 40.71872623526568447, -4.900000000000000355, 295.0000000000000568 ) ) ;
#150 = FACE_OUTER_BOUND ( 'NONE', #73, .T. ) ;
#151 = EDGE_LOOP ( 'NONE', ( #447, #114, #201, #139, #844, #720, #842, #479, #528, #290, #768, #733, #829, #373, #638, #273, #329, #796, #104, #92, #244, #800, #338, #780 ) ) ;
#152 = EDGE_CURVE ( 'NONE', #744, #323, #418, .T. ) ;
#153 = CYLINDRICAL_SURFACE ( 'NONE', #116, 1.000000000000000888 ) ;
#154 = LINE ( 'NONE', #425, #91 ) ;
#155 = ORIENTED_EDGE ( 'NONE', *, *, #42, .T. ) ;
#156 = DIRECTION ( 'NONE',  ( 0.000000000000000000, 1.000000000000000000, -0.000000000000000000 ) ) ;
#157 = EDGE_CURVE ( 'NONE', #560, #248, #90, .T. ) ;
#158 = DIRECTION ( 'NONE',  ( 0.000000000000000000, 0.000000000000000000, 1.000000000000000000 ) ) ;
#159 = AXIS2_PLACEMENT_3D ( 'NONE', #628, #156, #561 ) ;
#160 = AXIS2_PLACEMENT_3D ( 'NONE', #167, #506, #685 ) ;
#161 = VERTEX_POINT ( 'NONE', #354 ) ;
#162 = CARTESIAN_POINT ( 'NONE',  ( 37.37251321639265456, 4.900000000000000355, 286.8768717152777867 ) ) ;
#163 = DIRECTION ( 'NONE',  ( 0.000000000000000000, 1.000000000000000000, 0.000000000000000000 ) ) ;
#164 = LINE ( 'NONE', #99, #324 ) ;
#165 = EDGE_CURVE ( 'NONE', #322, #625, #869, .T. ) ;
#166 = EDGE_LOOP ( 'NONE', ( #297, #302, #88, #546 ) ) ;
#167 = CARTESIAN_POINT ( 'NONE',  ( 43.30809204199557882, -4.900000000000000355, 286.0000000000000568 ) ) ;
#168 = LINE ( 'NONE', #224, #715 ) ;
#169 = EDGE_LOOP ( 'NONE', ( #825, #155, #355, #422 ) ) ;
#170 = DIRECTION ( 'NONE',  ( 0.000000000000000000, 1.000000000000000000, -0.000000000000000000 ) ) ;
#171 = LINE ( 'NONE', #32, #761 ) ;
#172 = VERTEX_POINT ( 'NONE', #755 ) ;
#173 = VECTOR ( 'NONE', #217, 1000.000000000000000 ) ;
#174 = CARTESIAN_POINT ( 'NONE',  ( 0.000000000000000000, -4.900000000000000355, 54.99999999999999289 ) ) ;
#175 = EDGE_CURVE ( 'NONE', #378, #197, #154, .T. ) ;
#176 = DIRECTION ( 'NONE',  ( 0.000000000000000000, 0.000000000000000000, 1.000000000000000000 ) ) ;
#177 = ORIENTED_EDGE ( 'NONE', *, *, #377, .F. ) ;
#178 = LINE ( 'NONE', #115, #637 ) ;
#179 = PLANE ( 'NONE',  #218 ) ;
#180 = ORIENTED_EDGE ( 'NONE', *, *, #693, .T. ) ;
#181 = CARTESIAN_POINT ( 'NONE',  ( 11.13970423613136873, 4.900000000000000355, 0.000000000000000000 ) ) ;
#182 = DIRECTION ( 'NONE',  ( 1.000000000000000000, -0.000000000000000000, 0.000000000000000000 ) ) ;
#183 = EDGE_CURVE ( 'NONE', #197, #63, #542, .T. ) ;
#184 = ORIENTED_EDGE ( 'NONE', *, *, #328, .F. ) ;
#185 = CYLINDRICAL_SURFACE ( 'NONE', #77, 0.9999999999999453770 ) ;
#186 = AXIS2_PLACEMENT_3D ( 'NONE', #129, #477, #481 ) ;
#187 = AXIS2_PLACEMENT_3D ( 'NONE', #747, #595, #865 ) ;
#188 = CARTESIAN_POINT ( 'NONE',  ( -46.78921673784292068, 4.900000000000000355, 20.96649303941821074 ) ) ;
#189 = VERTEX_POINT ( 'NONE', #292 ) ;
#190 = EDGE_CURVE ( 'NONE', #36, #24, #229, .T. ) ;
#191 = CARTESIAN_POINT ( 'NONE',  ( 63.23295970617768802, 4.900000000000000355, 273.8303193441531675 ) ) ;
#192 = EDGE_CURVE ( 'NONE', #161, #621, #364, .T. ) ;
#193 = CARTESIAN_POINT ( 'NONE',  ( 130.6243519498166279, -4.900000000000000355, 34.83933409601657161 ) ) ;
#194 = UNCERTAINTY_MEASURE_WITH_UNIT (LENGTH_MEASURE( 1.000000000000000082E-05 ), #112, 'distance_accuracy_value', 'NONE');
#195 = CARTESIAN_POINT ( 'NONE',  ( 65.97066201331253410, 4.900000000000000355, 272.6035406039116538 ) ) ;
#196 =( LENGTH_UNIT ( ) NAMED_UNIT ( * ) SI_UNIT ( .MILLI., .METRE. ) );
#197 = VERTEX_POINT ( 'NONE', #383 ) ;
#198 = CARTESIAN_POINT ( 'NONE',  ( 11.13970423613136873, -4.900000000000000355, 54.99999999999999289 ) ) ;
#199 = VERTEX_POINT ( 'NONE', #503 ) ;
#200 = CARTESIAN_POINT ( 'NONE',  ( 66.31186993339362346, -4.900000000000000355, 273.3649865593858408 ) ) ;
#201 = ORIENTED_EDGE ( 'NONE', *, *, #822, .T. ) ;
#202 = CARTESIAN_POINT ( 'NONE',  ( 0.000000000000000000, 4.900000000000000355, 0.000000000000000000 ) ) ;
#203 = EDGE_CURVE ( 'NONE', #197, #68, #574, .T. ) ;
#204 = VECTOR ( 'NONE', #601, 1000.000000000000000 ) ;
#205 = DIRECTION ( 'NONE',  ( 2.775557561562888827E-14, 0.000000000000000000, 1.000000000000000000 ) ) ;
#206 = DIRECTION ( 'NONE',  ( 0.000000000000000000, 1.000000000000000000, -0.000000000000000000 ) ) ;
#207 = DIRECTION ( 'NONE',  ( 0.000000000000000000, 1.000000000000000000, 0.000000000000000000 ) ) ;
#208 = ORIENTED_EDGE ( 'NONE', *, *, #283, .T. ) ;
#209 = DIRECTION ( 'NONE',  ( 0.000000000000000000, 1.000000000000000000, 0.000000000000000000 ) ) ;
#210 = CARTESIAN_POINT ( 'NONE',  ( 66.74715485200513854, 4.900000000000000355, 274.3363764986254409 ) ) ;
#211 = EDGE_LOOP ( 'NONE', ( #467, #345, #184, #804 ) ) ;
#212 = DIRECTION ( 'NONE',  ( 0.000000000000000000, 0.000000000000000000, 1.000000000000000000 ) ) ;
#213 = CARTESIAN_POINT ( 'NONE',  ( 0.000000000000000000, 4.900000000000000355, 54.99999999999999289 ) ) ;
#214 = DIRECTION ( 'NONE',  ( 0.000000000000000000, 0.000000000000000000, 1.000000000000000000 ) ) ;
#215 = ADVANCED_FACE ( 'NONE', ( #376 ), #641, .T. ) ;
#216 = EDGE_LOOP ( 'NONE', ( #141, #284, #397, #362 ) ) ;
#217 = DIRECTION ( 'NONE',  ( 0.000000000000000000, 1.000000000000000000, 0.000000000000000000 ) ) ;
#218 = AXIS2_PLACEMENT_3D ( 'NONE', #250, #711, #518 ) ;
#219 = AXIS2_PLACEMENT_3D ( 'NONE', #668, #859, #331 ) ;
#220 = CYLINDRICAL_SURFACE ( 'NONE', #390, 3.000000000000002665 ) ;
#221 = ORIENTED_EDGE ( 'NONE', *, *, #101, .T. ) ;
#222 = CARTESIAN_POINT ( 'NONE',  ( 59.73129074329485633, -4.900000000000000355, 289.0000000000000568 ) ) ;
#223 = CIRCLE ( 'NONE', #691, 6.000000000000005329 ) ;
#224 = CARTESIAN_POINT ( 'NONE',  ( 62.62996145210227183, -4.900000000000000355, 289.7731158528332571 ) ) ;
#225 = DIRECTION ( 'NONE',  ( -0.000000000000000000, -1.000000000000000000, 0.000000000000000000 ) ) ;
#226 = EDGE_LOOP ( 'NONE', ( #122, #80, #11, #221 ) ) ;
#227 = CARTESIAN_POINT ( 'NONE',  ( 34.78314740966270335, -4.900000000000000355, 289.8768717152777867 ) ) ;
#228 = DIRECTION ( 'NONE',  ( 0.000000000000000000, 0.000000000000000000, 1.000000000000000000 ) ) ;
#229 = LINE ( 'NONE', #692, #854 ) ;
#230 = ORIENTED_EDGE ( 'NONE', *, *, #152, .T. ) ;
#231 = DIRECTION ( 'NONE',  ( 0.000000000000000000, 1.000000000000000000, -0.000000000000000000 ) ) ;
#232 = DIRECTION ( 'NONE',  ( 0.000000000000000000, 1.000000000000000000, 0.000000000000000000 ) ) ;
#233 = CARTESIAN_POINT ( 'NONE',  ( 66.59270843168380338, 4.900000000000000355, 269.7762521647705967 ) ) ;
#234 = VECTOR ( 'NONE', #449, 1000.000000000000000 ) ;
#235 = CIRCLE ( 'NONE', #31, 300.0000000000000568 ) ;
#236 = ORIENTED_EDGE ( 'NONE', *, *, #5, .T. ) ;
#237 = FACE_OUTER_BOUND ( 'NONE', #393, .T. ) ;
#238 = ORIENTED_EDGE ( 'NONE', *, *, #265, .T. ) ;
#239 = CARTESIAN_POINT ( 'NONE',  ( 65.76371761016953599, -4.900000000000000355, 270.2736466576790804 ) ) ;
#240 = ORIENTED_EDGE ( 'NONE', *, *, #134, .F. ) ;
#241 = EDGE_CURVE ( 'NONE', #199, #378, #384, .T. ) ;
#242 = DIRECTION ( 'NONE',  ( 1.000000000000000000, 0.000000000000000000, 0.000000000000000000 ) ) ;
#243 = AXIS2_PLACEMENT_3D ( 'NONE', #191, #729, #474 ) ;
#244 = ORIENTED_EDGE ( 'NONE', *, *, #604, .F. ) ;
#245 = VECTOR ( 'NONE', #306, 1000.000000000000000 ) ;
#246 = LINE ( 'NONE', #181, #525 ) ;
#247 = EDGE_CURVE ( 'NONE', #860, #172, #807, .T. ) ;
#248 = VERTEX_POINT ( 'NONE', #471 ) ;
#249 = LINE ( 'NONE', #438, #416 ) ;
#250 = CARTESIAN_POINT ( 'NONE',  ( -7.869046880039910263, -4.900000000000000355, 1.162505770378935432 ) ) ;
#251 = ADVANCED_FACE ( 'NONE', ( #9 ), #272, .T. ) ;
#252 = EDGE_LOOP ( 'NONE', ( #7, #575, #268, #572 ) ) ;
#253 = FACE_OUTER_BOUND ( 'NONE', #836, .T. ) ;
#254 = CLOSED_SHELL ( 'NONE', ( #215, #833, #97, #35, #745, #26, #16, #626, #86, #110, #347, #514, #590, #435, #120, #779, #614, #632, #619, #349, #251, #737, #554, #682, #654, #650 ) ) ;
#255 = CARTESIAN_POINT ( 'NONE',  ( 40.71872623526568447, -4.900000000000000355, 295.0000000000000568 ) ) ;
#256 = EDGE_LOOP ( 'NONE', ( #208, #136, #816, #389 ) ) ;
#257 = AXIS2_PLACEMENT_3D ( 'NONE', #363, #89, #366 ) ;
#258 = CIRCLE ( 'NONE', #746, 3.000000000000002665 ) ;
#259 = CARTESIAN_POINT ( 'NONE',  ( 0.000000000000000000, -4.900000000000000355, 292.0000000000000568 ) ) ;
#260 = DIRECTION ( 'NONE',  ( 0.1461452858796416787, 0.000000000000000000, 0.9892631376004857868 ) ) ;
#261 = ORIENTED_EDGE ( 'NONE', *, *, #588, .F. ) ;
#262 = DIRECTION ( 'NONE',  ( 0.000000000000000000, 1.000000000000000000, -0.000000000000000000 ) ) ;
#263 = DIRECTION ( 'NONE',  ( 0.000000000000000000, 0.000000000000000000, 1.000000000000000000 ) ) ;
#264 = VERTEX_POINT ( 'NONE', #133 ) ;
#265 = EDGE_CURVE ( 'NONE', #199, #322, #405, .T. ) ;
#266 = CARTESIAN_POINT ( 'NONE',  ( 64.93469114119788799, -4.900000000000000355, 292.7731158528332571 ) ) ;
#267 = FACE_OUTER_BOUND ( 'NONE', #413, .T. ) ;
#268 = ORIENTED_EDGE ( 'NONE', *, *, #499, .F. ) ;
#269 = CARTESIAN_POINT ( 'NONE',  ( 14.13970423613136873, 4.900000000000000355, 4.665606239185097795E-16 ) ) ;
#270 = CIRCLE ( 'NONE', #159, 3.000000000000002665 ) ;
#271 = VECTOR ( 'NONE', #672, 1000.000000000000114 ) ;
#272 = PLANE ( 'NONE',  #186 ) ;
#273 = ORIENTED_EDGE ( 'NONE', *, *, #5, .F. ) ;
#274 = EDGE_LOOP ( 'NONE', ( #307, #659, #464, #630 ) ) ;
#275 = FACE_OUTER_BOUND ( 'NONE', #211, .T. ) ;
#276 = EDGE_CURVE ( 'NONE', #716, #783, #534, .T. ) ;
#277 = PLANE ( 'NONE',  #627 ) ;
#278 = DIRECTION ( 'NONE',  ( 1.000000000000000000, 0.000000000000000000, 0.000000000000000000 ) ) ;
#279 = VERTEX_POINT ( 'NONE', #552 ) ;
#280 = LINE ( 'NONE', #193, #593 ) ;
#281 = UNCERTAINTY_MEASURE_WITH_UNIT (LENGTH_MEASURE( 1.000000000000000082E-05 ), #196, 'distance_accuracy_value', 'NONE');
#282 = CARTESIAN_POINT ( 'NONE',  ( 130.6243519498166279, -4.900000000000000355, 34.83933409601657161 ) ) ;
#283 = EDGE_CURVE ( 'NONE', #756, #131, #802, .T. ) ;
#284 = ORIENTED_EDGE ( 'NONE', *, *, #247, .T. ) ;
#285 = DIRECTION ( 'NONE',  ( 0.000000000000000000, 0.000000000000000000, 1.000000000000000000 ) ) ;
#286 = MECHANICAL_DESIGN_GEOMETRIC_PRESENTATION_REPRESENTATION (  '', ( #396 ), #126 ) ;
#287 = CARTESIAN_POINT ( 'NONE',  ( 314.1397042361314220, -4.900000000000000355, 107.5729682796174274 ) ) ;
#288 = CIRCLE ( 'NONE', #702, 3.000000000000002665 ) ;
#289 = CARTESIAN_POINT ( 'NONE',  ( 40.71872623526564894, 4.900000000000000355, 289.0000000000000568 ) ) ;
#290 = ORIENTED_EDGE ( 'NONE', *, *, #369, .F. ) ;
#291 = CARTESIAN_POINT ( 'NONE',  ( 64.93469114119788799, -4.900000000000000355, 292.7731158528332571 ) ) ;
#292 = CARTESIAN_POINT ( 'NONE',  ( 65.80543848331535628, 4.900000000000000355, 272.2868320778705993 ) ) ;
#293 = ORIENTED_EDGE ( 'NONE', *, *, #101, .F. ) ;
#294 = EDGE_CURVE ( 'NONE', #560, #739, #749, .T. ) ;
#295 = DIRECTION ( 'NONE',  ( 0.000000000000000000, 0.000000000000000000, 1.000000000000000000 ) ) ;
#296 = DIRECTION ( 'NONE',  ( 1.000000000000000000, -0.000000000000000000, 0.000000000000000000 ) ) ;
#297 = ORIENTED_EDGE ( 'NONE', *, *, #54, .T. ) ;
#298 = CARTESIAN_POINT ( 'NONE',  ( 66.31186993339362346, -4.900000000000000355, 273.3649865593858408 ) ) ;
#299 = CARTESIAN_POINT ( 'NONE',  ( 136.6464164222430213, 4.900000000000000355, 227.7440273704418416 ) ) ;
#300 = CIRCLE ( 'NONE', #786, 303.0000000000000568 ) ;
#301 = AXIS2_PLACEMENT_3D ( 'NONE', #12, #556, #817 ) ;
#302 = ORIENTED_EDGE ( 'NONE', *, *, #604, .T. ) ;
#303 = LINE ( 'NONE', #754, #454 ) ;
#304 = AXIS2_PLACEMENT_3D ( 'NONE', #799, #722, #406 ) ;
#305 = EDGE_CURVE ( 'NONE', #248, #419, #327, .T. ) ;
#306 = DIRECTION ( 'NONE',  ( 1.000000000000000000, -0.000000000000000000, 0.000000000000000000 ) ) ;
#307 = ORIENTED_EDGE ( 'NONE', *, *, #529, .T. ) ;
#308 = SURFACE_STYLE_FILL_AREA ( #315 ) ;
#309 = EDGE_CURVE ( 'NONE', #52, #858, #830, .T. ) ;
#310 = VERTEX_POINT ( 'NONE', #573 ) ;
#311 = DIRECTION ( 'NONE',  ( 0.000000000000000000, 0.000000000000000000, 1.000000000000000000 ) ) ;
#312 = DIRECTION ( 'NONE',  ( 0.000000000000000000, 1.000000000000000000, -0.000000000000000000 ) ) ;
#313 = ORIENTED_EDGE ( 'NONE', *, *, #837, .F. ) ;
#314 = CIRCLE ( 'NONE', #46, 2.999999999999947153 ) ;
#315 = FILL_AREA_STYLE ('',( #320 ) ) ;
#316 = EDGE_CURVE ( 'NONE', #491, #100, #689, .T. ) ;
#317 = ORIENTED_EDGE ( 'NONE', *, *, #640, .T. ) ;
#318 = CARTESIAN_POINT ( 'NONE',  ( -7.869046880039910263, 4.900000000000000355, 1.162505770378935432 ) ) ;
#319 = ORIENTED_EDGE ( 'NONE', *, *, #424, .T. ) ;
#320 = FILL_AREA_STYLE_COLOUR ( '', #43 ) ;
#321 = LINE ( 'NONE', #269, #325 ) ;
#322 = VERTEX_POINT ( 'NONE', #432 ) ;
#323 = VERTEX_POINT ( 'NONE', #558 ) ;
#324 = VECTOR ( 'NONE', #696, 1000.000000000000000 ) ;
#325 = VECTOR ( 'NONE', #793, 1000.000000000000000 ) ;
#326 = DIRECTION ( 'NONE',  ( -0.9662235696024591425, 0.000000000000000000, -0.2577052842777614039 ) ) ;
#327 = LINE ( 'NONE', #597, #646 ) ;
#328 = EDGE_CURVE ( 'NONE', #49, #608, #168, .T. ) ;
#329 = ORIENTED_EDGE ( 'NONE', *, *, #134, .T. ) ;
#330 = ORIENTED_EDGE ( 'NONE', *, *, #66, .F. ) ;
#331 = DIRECTION ( 'NONE',  ( 0.000000000000000000, 0.000000000000000000, 1.000000000000000000 ) ) ;
#332 = ORIENTED_EDGE ( 'NONE', *, *, #203, .T. ) ;
#333 = VERTEX_POINT ( 'NONE', #436 ) ;
#334 = DIRECTION ( 'NONE',  ( -0.2577052842777609043, 0.000000000000000000, 0.9662235696024591425 ) ) ;
#335 = DIRECTION ( 'NONE',  ( 1.000000000000000000, -0.000000000000000000, 0.000000000000000000 ) ) ;
#336 = VERTEX_POINT ( 'NONE', #22 ) ;
#337 = CARTESIAN_POINT ( 'NONE',  ( -4.901257467238443688, -4.900000000000000355, 0.7240699127400085366 ) ) ;
#338 = ORIENTED_EDGE ( 'NONE', *, *, #580, .F. ) ;
#339 = CYLINDRICAL_SURFACE ( 'NONE', #187, 303.0000000000000568 ) ;
#340 = EDGE_CURVE ( 'NONE', #625, #68, #623, .T. ) ;
#341 = VECTOR ( 'NONE', #335, 1000.000000000000000 ) ;
#342 = AXIS2_PLACEMENT_3D ( 'NONE', #346, #262, #404 ) ;
#343 = CYLINDRICAL_SURFACE ( 'NONE', #414, 300.0000000000000568 ) ;
#344 = CARTESIAN_POINT ( 'NONE',  ( 11.13970423613136873, 4.900000000000000355, 54.99999999999999289 ) ) ;
#345 = ORIENTED_EDGE ( 'NONE', *, *, #565, .T. ) ;
#346 = CARTESIAN_POINT ( 'NONE',  ( 0.000000000000000000, -4.900000000000000355, 0.000000000000000000 ) ) ;
#347 = ADVANCED_FACE ( 'NONE', ( #502 ), #93, .F. ) ;
#348 = CARTESIAN_POINT ( 'NONE',  ( 66.27821336559702559, -4.900000000000000355, 271.1311395833916436 ) ) ;
#349 = ADVANCED_FACE ( 'NONE', ( #237 ), #767, .T. ) ;
#350 = CARTESIAN_POINT ( 'NONE',  ( 14.39297354318430600, -4.900000000000000355, 151.8549899011498212 ) ) ;
#351 = ORIENTED_EDGE ( 'NONE', *, *, #441, .T. ) ;
#352 = FACE_OUTER_BOUND ( 'NONE', #226, .T. ) ;
#353 = DIRECTION ( 'NONE',  ( 0.9125674357116043689, 0.000000000000000000, -0.4089262467471937446 ) ) ;
#354 = CARTESIAN_POINT ( 'NONE',  ( 43.30809204199562146, -4.900000000000000355, 292.0000000000000568 ) ) ;
#355 = ORIENTED_EDGE ( 'NONE', *, *, #265, .F. ) ;
#356 = CARTESIAN_POINT ( 'NONE',  ( 40.71872623526568447, 4.900000000000000355, 295.0000000000000568 ) ) ;
#357 = CARTESIAN_POINT ( 'NONE',  ( 63.57416762625883422, -4.900000000000000355, 274.5917652996274683 ) ) ;
#358 = AXIS2_PLACEMENT_3D ( 'NONE', #83, #225, #490 ) ;
#359 = VECTOR ( 'NONE', #445, 1000.000000000000000 ) ;
#360 = CARTESIAN_POINT ( 'NONE',  ( 67.10720418711127877, -4.900000000000000355, 270.6337450904831030 ) ) ;
#361 = EDGE_CURVE ( 'NONE', #419, #41, #270, .T. ) ;
#362 = ORIENTED_EDGE ( 'NONE', *, *, #276, .F. ) ;
#363 = CARTESIAN_POINT ( 'NONE',  ( 62.03602043239045827, -4.900000000000000355, 292.0000000000000568 ) ) ;
#364 = LINE ( 'NONE', #107, #245 ) ;
#365 = ORIENTED_EDGE ( 'NONE', *, *, #810, .T. ) ;
#366 = DIRECTION ( 'NONE',  ( 0.000000000000000000, 0.000000000000000000, 1.000000000000000000 ) ) ;
#367 = AXIS2_PLACEMENT_3D ( 'NONE', #473, #206, #263 ) ;
#368 = ORIENTED_EDGE ( 'NONE', *, *, #175, .F. ) ;
#369 = EDGE_CURVE ( 'NONE', #68, #398, #727, .T. ) ;
#370 = CARTESIAN_POINT ( 'NONE',  ( 62.03602043239044406, 4.900000000000000355, 295.0000000000000568 ) ) ;
#371 = AXIS2_PLACEMENT_3D ( 'NONE', #382, #585, #176 ) ;
#372 = VECTOR ( 'NONE', #653, 1000.000000000000227 ) ;
#373 = ORIENTED_EDGE ( 'NONE', *, *, #861, .F. ) ;
#374 = DIRECTION ( 'NONE',  ( -0.5144957554275237932, 0.000000000000000000, -0.8574929257125457616 ) ) ;
#375 = CARTESIAN_POINT ( 'NONE',  ( 14.39297354318430600, -4.900000000000000355, 151.8549899011498212 ) ) ;
#376 = FACE_OUTER_BOUND ( 'NONE', #391, .T. ) ;
#377 = EDGE_CURVE ( 'NONE', #783, #756, #303, .T. ) ;
#378 = VERTEX_POINT ( 'NONE', #695 ) ;
#379 = SURFACE_SIDE_STYLE ('',( #308 ) ) ;
#380 = ORIENTED_EDGE ( 'NONE', *, *, #183, .F. ) ;
#381 = CARTESIAN_POINT ( 'NONE',  ( 14.13970423613136518, -4.900000000000000355, 107.5729682796162621 ) ) ;
#382 = CARTESIAN_POINT ( 'NONE',  ( 63.23295970617768802, -4.900000000000000355, 273.8303193441531675 ) ) ;
#383 = CARTESIAN_POINT ( 'NONE',  ( 66.59270843168380338, -4.900000000000000355, 269.7762521647705967 ) ) ;
#384 = CIRCLE ( 'NONE', #45, 1.000000000000000888 ) ;
#385 = VERTEX_POINT ( 'NONE', #636 ) ;
#386 = AXIS2_PLACEMENT_3D ( 'NONE', #826, #231, #423 ) ;
#387 = DIRECTION ( 'NONE',  ( 0.000000000000000000, 0.000000000000000000, 1.000000000000000000 ) ) ;
#388 = CARTESIAN_POINT ( 'NONE',  ( 14.13970423613136695, -4.900000000000000355, 54.99999999999999289 ) ) ;
#389 = ORIENTED_EDGE ( 'NONE', *, *, #782, .F. ) ;
#390 = AXIS2_PLACEMENT_3D ( 'NONE', #493, #683, #158 ) ;
#391 = EDGE_LOOP ( 'NONE', ( #730, #589, #261, #508 ) ) ;
#392 = PRODUCT_CONTEXT ( 'NONE', #71, 'mechanical' ) ;
#393 = EDGE_LOOP ( 'NONE', ( #317, #78, #599, #365 ) ) ;
#394 = PLANE ( 'NONE',  #17 ) ;
#395 = EDGE_CURVE ( 'NONE', #131, #594, #674, .T. ) ;
#396 = STYLED_ITEM ( 'NONE', ( #718 ), #840 ) ;
#397 = ORIENTED_EDGE ( 'NONE', *, *, #489, .F. ) ;
#398 = VERTEX_POINT ( 'NONE', #102 ) ;
#399 = AXIS2_PLACEMENT_3D ( 'NONE', #415, #480, #400 ) ;
#400 = DIRECTION ( 'NONE',  ( 0.4534887557701110516, 0.000000000000000000, 0.8912619976135393030 ) ) ;
#401 = CARTESIAN_POINT ( 'NONE',  ( 65.97066201331253410, -4.900000000000000355, 272.6035406039116538 ) ) ;
#402 = APPLICATION_PROTOCOL_DEFINITION ( 'draft international standard', 'automotive_design', 1998, #71 ) ;
#403 = ORIENTED_EDGE ( 'NONE', *, *, #701, .T. ) ;
#404 = DIRECTION ( 'NONE',  ( 0.000000000000000000, 0.000000000000000000, 1.000000000000000000 ) ) ;
#405 = LINE ( 'NONE', #669, #622 ) ;
#406 = DIRECTION ( 'NONE',  ( 0.000000000000000000, 0.000000000000000000, 1.000000000000000000 ) ) ;
#407 = EDGE_CURVE ( 'NONE', #378, #625, #770, .T. ) ;
#408 = LINE ( 'NONE', #140, #469 ) ;
#409 = ORIENTED_EDGE ( 'NONE', *, *, #66, .T. ) ;
#410 = CARTESIAN_POINT ( 'NONE',  ( 66.47283833506619999, 4.900000000000000355, 275.3648811524607822 ) ) ;
#411 = ORIENTED_EDGE ( 'NONE', *, *, #580, .T. ) ;
#412 =( NAMED_UNIT ( * ) SI_UNIT ( $, .STERADIAN. ) SOLID_ANGLE_UNIT ( ) );
#413 = EDGE_LOOP ( 'NONE', ( #351, #555, #519, #657 ) ) ;
#414 = AXIS2_PLACEMENT_3D ( 'NONE', #728, #130, #62 ) ;
#415 = CARTESIAN_POINT ( 'NONE',  ( -55.18628288814380767, -4.900000000000000355, 28.07968793635628657 ) ) ;
#416 = VECTOR ( 'NONE', #517, 1000.000000000000114 ) ;
#417 = APPLICATION_CONTEXT ( 'automotive_design' ) ;
#418 = LINE ( 'NONE', #487, #523 ) ;
#419 = VERTEX_POINT ( 'NONE', #370 ) ;
#420 = DIRECTION ( 'NONE',  ( -1.000000000000000000, 0.000000000000000000, 0.000000000000000000 ) ) ;
#421 = DIRECTION ( 'NONE',  ( -0.2577052842777609043, 0.000000000000000000, 0.9662235696024591425 ) ) ;
#422 = ORIENTED_EDGE ( 'NONE', *, *, #808, .F. ) ;
#423 = DIRECTION ( 'NONE',  ( 0.000000000000000000, 0.000000000000000000, 1.000000000000000000 ) ) ;
#424 = EDGE_CURVE ( 'NONE', #663, #385, #171, .T. ) ;
#425 = CARTESIAN_POINT ( 'NONE',  ( 136.6464164222430213, -4.900000000000000355, 227.7440273704418416 ) ) ;
#426 = VERTEX_POINT ( 'NONE', #291 ) ;
#427 = CARTESIAN_POINT ( 'NONE',  ( 43.30809204199557882, 4.900000000000000355, 286.0000000000000568 ) ) ;
#428 = DIRECTION ( 'NONE',  ( 0.000000000000000000, 1.000000000000000000, 0.000000000000000000 ) ) ;
#429 = AXIS2_PLACEMENT_3D ( 'NONE', #357, #690, #228 ) ;
#430 = DIRECTION ( 'NONE',  ( 0.5144957554274652844, -0.000000000000000000, 0.8574929257125809556 ) ) ;
#431 = EDGE_LOOP ( 'NONE', ( #238, #434, #29, #505 ) ) ;
#432 = CARTESIAN_POINT ( 'NONE',  ( 65.42072043988450503, 4.900000000000000355, 271.6456353388191474 ) ) ;
#433 = PLANE ( 'NONE',  #48 ) ;
#434 = ORIENTED_EDGE ( 'NONE', *, *, #165, .T. ) ;
#435 = ADVANCED_FACE ( 'NONE', ( #566 ), #153, .T. ) ;
#436 = CARTESIAN_POINT ( 'NONE',  ( 37.37251321639265456, -4.900000000000000355, 286.8768717152777867 ) ) ;
#437 = ORIENTED_EDGE ( 'NONE', *, *, #183, .T. ) ;
#438 = CARTESIAN_POINT ( 'NONE',  ( -55.18628288814380767, 4.900000000000000355, 28.07968793635628657 ) ) ;
#439 = PRESENTATION_LAYER_ASSIGNMENT (  '', '', ( #396 ) ) ;
#440 = DIRECTION ( 'NONE',  ( -0.2577052842777613484, 0.000000000000000000, 0.9662235696024590315 ) ) ;
#441 = EDGE_CURVE ( 'NONE', #333, #706, #827, .T. ) ;
#442 = VECTOR ( 'NONE', #209, 1000.000000000000000 ) ;
#443 = CIRCLE ( 'NONE', #386, 3.000000000000002665 ) ;
#444 = VERTEX_POINT ( 'NONE', #570 ) ;
#445 = DIRECTION ( 'NONE',  ( 0.000000000000000000, 0.000000000000000000, 1.000000000000000000 ) ) ;
#446 = LINE ( 'NONE', #515, #30 ) ;
#447 = ORIENTED_EDGE ( 'NONE', *, *, #792, .T. ) ;
#448 = CARTESIAN_POINT ( 'NONE',  ( -71.74019173779866776, -4.900000000000000355, 43.04411504267888944 ) ) ;
#449 = DIRECTION ( 'NONE',  ( 0.000000000000000000, 1.000000000000000000, 0.000000000000000000 ) ) ;
#450 = EDGE_CURVE ( 'NONE', #100, #444, #85, .T. ) ;
#451 = ORIENTED_EDGE ( 'NONE', *, *, #61, .T. ) ;
#452 = CARTESIAN_POINT ( 'NONE',  ( 62.03602043239045827, -4.900000000000000355, 292.0000000000000568 ) ) ;
#453 = VECTOR ( 'NONE', #524, 1000.000000000000114 ) ;
#454 = VECTOR ( 'NONE', #633, 1000.000000000000000 ) ;
#455 = ORIENTED_EDGE ( 'NONE', *, *, #175, .T. ) ;
#456 = VECTOR ( 'NONE', #781, 1000.000000000000000 ) ;
#457 = LINE ( 'NONE', #777, #359 ) ;
#458 = CIRCLE ( 'NONE', #81, 6.000000000000005329 ) ;
#459 = DIRECTION ( 'NONE',  ( 0.000000000000000000, 0.000000000000000000, 1.000000000000000000 ) ) ;
#460 = CARTESIAN_POINT ( 'NONE',  ( 69.64582556081251141, 4.900000000000000355, 275.1094923514588118 ) ) ;
#461 = EDGE_CURVE ( 'NONE', #264, #426, #113, .T. ) ;
#462 = LINE ( 'NONE', #127, #557 ) ;
#463 = DIRECTION ( 'NONE',  ( -0.000000000000000000, 0.000000000000000000, 1.000000000000000000 ) ) ;
#464 = ORIENTED_EDGE ( 'NONE', *, *, #424, .F. ) ;
#465 = FACE_OUTER_BOUND ( 'NONE', #274, .T. ) ;
#466 = DIRECTION ( 'NONE',  ( 0.000000000000000000, 0.000000000000000000, 1.000000000000000000 ) ) ;
#467 = ORIENTED_EDGE ( 'NONE', *, *, #103, .T. ) ;
#468 = VECTOR ( 'NONE', #51, 1000.000000000000114 ) ;
#469 = VECTOR ( 'NONE', #207, 1000.000000000000000 ) ;
#470 = CARTESIAN_POINT ( 'NONE',  ( 66.74715485200513854, -4.900000000000000355, 274.3363764986254409 ) ) ;
#471 = CARTESIAN_POINT ( 'NONE',  ( 62.03602043239044406, -4.900000000000000355, 295.0000000000000568 ) ) ;
#472 = EDGE_CURVE ( 'NONE', #336, #24, #778, .T. ) ;
#473 = CARTESIAN_POINT ( 'NONE',  ( 63.57416762625883422, 4.900000000000000355, 274.5917652996274683 ) ) ;
#474 = DIRECTION ( 'NONE',  ( 0.000000000000000000, 0.000000000000000000, 1.000000000000000000 ) ) ;
#475 = ORIENTED_EDGE ( 'NONE', *, *, #678, .T. ) ;
#476 = DIRECTION ( 'NONE',  ( 0.1461452858796416787, 0.000000000000000000, 0.9892631376004857868 ) ) ;
#477 = DIRECTION ( 'NONE',  ( -0.000000000000000000, 0.000000000000000000, 1.000000000000000000 ) ) ;
#478 = DIRECTION ( 'NONE',  ( 0.1461452858796417342, 0.000000000000000000, 0.9892631376004857868 ) ) ;
#479 = ORIENTED_EDGE ( 'NONE', *, *, #33, .T. ) ;
#480 = DIRECTION ( 'NONE',  ( -0.8912619976135394140, 0.000000000000000000, 0.4534887557701111072 ) ) ;
#481 = DIRECTION ( 'NONE',  ( 1.000000000000000000, 0.000000000000000000, 0.000000000000000000 ) ) ;
#482 = DIRECTION ( 'NONE',  ( -1.000000000000000000, 0.000000000000000000, -3.299649102463554501E-17 ) ) ;
#483 = ORIENTED_EDGE ( 'NONE', *, *, #309, .F. ) ;
#484 = AXIS2_PLACEMENT_3D ( 'NONE', #287, #832, #763 ) ;
#485 = AXIS2_PLACEMENT_3D ( 'NONE', #202, #58, #212 ) ;
#486 = CARTESIAN_POINT ( 'NONE',  ( 14.13970423613136518, -4.900000000000000355, 107.5729682796162621 ) ) ;
#487 = CARTESIAN_POINT ( 'NONE',  ( 34.78314740966270335, -4.900000000000000355, 289.8768717152777867 ) ) ;
#488 = ORIENTED_EDGE ( 'NONE', *, *, #241, .T. ) ;
#489 = EDGE_CURVE ( 'NONE', #783, #172, #577, .T. ) ;
#490 = DIRECTION ( 'NONE',  ( 2.775557561562888827E-14, 0.000000000000000000, 1.000000000000000000 ) ) ;
#491 = VERTEX_POINT ( 'NONE', #587 ) ;
#492 = FACE_OUTER_BOUND ( 'NONE', #166, .T. ) ;
#493 = CARTESIAN_POINT ( 'NONE',  ( 63.57416762625883422, -4.900000000000000355, 274.5917652996274683 ) ) ;
#494 = EDGE_LOOP ( 'NONE', ( #319, #516, #550, #864 ) ) ;
#495 = DIRECTION ( 'NONE',  ( -0.000000000000000000, -1.000000000000000000, 0.000000000000000000 ) ) ;
#496 = AXIS2_PLACEMENT_3D ( 'NONE', #618, #818, #19 ) ;
#497 = DIRECTION ( 'NONE',  ( 0.000000000000000000, 0.000000000000000000, 1.000000000000000000 ) ) ;
#498 = CIRCLE ( 'NONE', #160, 6.000000000000005329 ) ;
#499 = EDGE_CURVE ( 'NONE', #125, #189, #839, .T. ) ;
#500 = CARTESIAN_POINT ( 'NONE',  ( 14.13970423613136873, -4.900000000000000355, 4.665606239185097795E-16 ) ) ;
#501 = ORIENTED_EDGE ( 'NONE', *, *, #316, .T. ) ;
#502 = FACE_OUTER_BOUND ( 'NONE', #616, .T. ) ;
#503 = CARTESIAN_POINT ( 'NONE',  ( 65.42072043988450503, -4.900000000000000355, 271.6456353388191474 ) ) ;
#504 = EDGE_CURVE ( 'NONE', #606, #444, #300, .T. ) ;
#505 = ORIENTED_EDGE ( 'NONE', *, *, #241, .F. ) ;
#506 = DIRECTION ( 'NONE',  ( -0.000000000000000000, -1.000000000000000000, 0.000000000000000000 ) ) ;
#507 = DIRECTION ( 'NONE',  ( 0.000000000000000000, 1.000000000000000000, 0.000000000000000000 ) ) ;
#508 = ORIENTED_EDGE ( 'NONE', *, *, #837, .T. ) ;
#509 = SURFACE_STYLE_USAGE ( .BOTH. , #379 ) ;
#510 = DIRECTION ( 'NONE',  ( 0.000000000000000000, 1.000000000000000000, 0.000000000000000000 ) ) ;
#511 = VECTOR ( 'NONE', #232, 1000.000000000000000 ) ;
#512 = ORIENTED_EDGE ( 'NONE', *, *, #810, .F. ) ;
#513 = CARTESIAN_POINT ( 'NONE',  ( 14.13970423613136695, -4.900000000000000355, 54.99999999999999289 ) ) ;
#514 = ADVANCED_FACE ( 'NONE', ( #703 ), #774, .F. ) ;
#515 = CARTESIAN_POINT ( 'NONE',  ( 0.000000000000000000, 4.900000000000000355, 295.0000000000000568 ) ) ;
#516 = ORIENTED_EDGE ( 'NONE', *, *, #33, .F. ) ;
#517 = DIRECTION ( 'NONE',  ( 0.4534887557701110516, 0.000000000000000000, 0.8912619976135393030 ) ) ;
#518 = DIRECTION ( 'NONE',  ( 0.1461452858796417065, 0.000000000000000000, 0.9892631376004857868 ) ) ;
#519 = ORIENTED_EDGE ( 'NONE', *, *, #856, .F. ) ;
#520 = LINE ( 'NONE', #318, #372 ) ;
#521 = CARTESIAN_POINT ( 'NONE',  ( 59.73129074329485633, 4.900000000000000355, 289.0000000000000568 ) ) ;
#522 = EDGE_CURVE ( 'NONE', #739, #419, #446, .T. ) ;
#523 = VECTOR ( 'NONE', #679, 1000.000000000000000 ) ;
#524 = DIRECTION ( 'NONE',  ( -0.5144957554275237932, 0.000000000000000000, -0.8574929257125457616 ) ) ;
#525 = VECTOR ( 'NONE', #311, 1000.000000000000000 ) ;
#526 = LINE ( 'NONE', #707, #28 ) ;
#527 = VECTOR ( 'NONE', #478, 1000.000000000000227 ) ;
#528 = ORIENTED_EDGE ( 'NONE', *, *, #758, .F. ) ;
#529 = EDGE_CURVE ( 'NONE', #63, #398, #850, .T. ) ;
#530 = APPLICATION_PROTOCOL_DEFINITION ( 'draft international standard', 'automotive_design', 1998, #417 ) ;
#531 = ORIENTED_EDGE ( 'NONE', *, *, #640, .F. ) ;
#532 = EDGE_CURVE ( 'NONE', #52, #642, #847, .T. ) ;
#533 = LINE ( 'NONE', #866, #271 ) ;
#534 = LINE ( 'NONE', #70, #341 ) ;
#535 = ORIENTED_EDGE ( 'NONE', *, *, #103, .F. ) ;
#536 = EDGE_LOOP ( 'NONE', ( #147, #475, #531, #118 ) ) ;
#537 = ADVANCED_BREP_SHAPE_REPRESENTATION ( 'Part3', ( #840, #868 ), #726 ) ;
#538 = DIRECTION ( 'NONE',  ( 0.8574929257125457616, 0.000000000000000000, -0.5144957554275237932 ) ) ;
#539 = DIRECTION ( 'NONE',  ( 0.000000000000000000, 0.000000000000000000, 1.000000000000000000 ) ) ;
#540 = CYLINDRICAL_SURFACE ( 'NONE', #304, 6.000000000000005329 ) ;
#541 = ORIENTED_EDGE ( 'NONE', *, *, #532, .F. ) ;
#542 = CIRCLE ( 'NONE', #128, 0.9999999999999453770 ) ;
#543 = DIRECTION ( 'NONE',  ( 0.000000000000000000, 1.000000000000000000, 0.000000000000000000 ) ) ;
#544 = CARTESIAN_POINT ( 'NONE',  ( -7.869046880039910263, -4.900000000000000355, 1.162505770378935432 ) ) ;
#545 = AXIS2_PLACEMENT_3D ( 'NONE', #282, #620, #421 ) ;
#546 = ORIENTED_EDGE ( 'NONE', *, *, #867, .F. ) ;
#547 = CARTESIAN_POINT ( 'NONE',  ( -71.74019173779866776, -4.900000000000000355, 43.04411504267888944 ) ) ;
#548 = DIRECTION ( 'NONE',  ( -0.000000000000000000, -1.000000000000000000, 0.000000000000000000 ) ) ;
#549 = FACE_OUTER_BOUND ( 'NONE', #652, .T. ) ;
#550 = ORIENTED_EDGE ( 'NONE', *, *, #769, .F. ) ;
#551 = CARTESIAN_POINT ( 'NONE',  ( 11.13970423613136873, -4.900000000000000355, 107.5729682796162763 ) ) ;
#552 = CARTESIAN_POINT ( 'NONE',  ( 59.73129074329483501, 4.900000000000000355, 292.0000000000000568 ) ) ;
#553 = CARTESIAN_POINT ( 'NONE',  ( 65.80543848331535628, -4.900000000000000355, 272.2868320778705993 ) ) ;
#554 = ADVANCED_FACE ( 'NONE', ( #655 ), #179, .T. ) ;
#555 = ORIENTED_EDGE ( 'NONE', *, *, #712, .F. ) ;
#556 = DIRECTION ( 'NONE',  ( 0.000000000000000000, 1.000000000000000000, 0.000000000000000000 ) ) ;
#557 = VECTOR ( 'NONE', #476, 1000.000000000000227 ) ;
#558 = CARTESIAN_POINT ( 'NONE',  ( 34.78314740966270335, 4.900000000000000355, 289.8768717152777867 ) ) ;
#559 = CARTESIAN_POINT ( 'NONE',  ( 40.71872623526564894, -4.900000000000000355, 289.0000000000000568 ) ) ;
#560 = VERTEX_POINT ( 'NONE', #255 ) ;
#561 = DIRECTION ( 'NONE',  ( 0.000000000000000000, 0.000000000000000000, 1.000000000000000000 ) ) ;
#562 = DIRECTION ( 'NONE',  ( 0.000000000000000000, 1.000000000000000000, -0.000000000000000000 ) ) ;
#563 = ORIENTED_EDGE ( 'NONE', *, *, #203, .F. ) ;
#564 = PRODUCT ( 'Part3', 'Part3', '', ( #392 ) ) ;
#565 = EDGE_CURVE ( 'NONE', #279, #608, #288, .T. ) ;
#566 = FACE_OUTER_BOUND ( 'NONE', #431, .T. ) ;
#567 = CARTESIAN_POINT ( 'NONE',  ( -46.78921673784292068, -4.900000000000000355, 20.96649303941821074 ) ) ;
#568 = ORIENTED_EDGE ( 'NONE', *, *, #276, .T. ) ;
#569 = VECTOR ( 'NONE', #440, 1000.000000000000114 ) ;
#570 = CARTESIAN_POINT ( 'NONE',  ( 14.39297354318430600, 4.900000000000000355, 151.8549899011498212 ) ) ;
#571 = AXIS2_PLACEMENT_3D ( 'NONE', #470, #863, #137 ) ;
#572 = ORIENTED_EDGE ( 'NONE', *, *, #701, .F. ) ;
#573 = CARTESIAN_POINT ( 'NONE',  ( 17.36076295598575925, -4.900000000000000355, 151.4165540435108426 ) ) ;
#574 = LINE ( 'NONE', #705, #815 ) ;
#575 = ORIENTED_EDGE ( 'NONE', *, *, #861, .T. ) ;
#576 = PLANE ( 'NONE',  #855 ) ;
#577 = LINE ( 'NONE', #388, #234 ) ;
#578 = DIRECTION ( 'NONE',  ( 0.000000000000000000, 1.000000000000000000, 0.000000000000000000 ) ) ;
#579 = ORIENTED_EDGE ( 'NONE', *, *, #529, .F. ) ;
#580 = EDGE_CURVE ( 'NONE', #172, #131, #321, .T. ) ;
#581 = CARTESIAN_POINT ( 'NONE',  ( 69.64582556081251141, -4.900000000000000355, 275.1094923514588118 ) ) ;
#582 = DIRECTION ( 'NONE',  ( 0.000000000000000000, 1.000000000000000000, 0.000000000000000000 ) ) ;
#583 = VECTOR ( 'NONE', #296, 1000.000000000000000 ) ;
#584 = ORIENTED_EDGE ( 'NONE', *, *, #450, .F. ) ;
#585 = DIRECTION ( 'NONE',  ( 0.000000000000000000, 1.000000000000000000, 0.000000000000000000 ) ) ;
#586 = ORIENTED_EDGE ( 'NONE', *, *, #305, .T. ) ;
#587 = CARTESIAN_POINT ( 'NONE',  ( 11.13970423613136873, -4.900000000000000355, 107.5729682796162763 ) ) ;
#588 = EDGE_CURVE ( 'NONE', #716, #860, #142, .T. ) ;
#589 = ORIENTED_EDGE ( 'NONE', *, *, #792, .F. ) ;
#590 = ADVANCED_FACE ( 'NONE', ( #600 ), #801, .F. ) ;
#591 = VECTOR ( 'NONE', #582, 1000.000000000000000 ) ;
#592 = ORIENTED_EDGE ( 'NONE', *, *, #316, .F. ) ;
#593 = VECTOR ( 'NONE', #334, 1000.000000000000114 ) ;
#594 = VERTEX_POINT ( 'NONE', #677 ) ;
#595 = DIRECTION ( 'NONE',  ( 0.000000000000000000, 1.000000000000000000, 0.000000000000000000 ) ) ;
#596 = CARTESIAN_POINT ( 'NONE',  ( 59.73129074329483501, -4.900000000000000355, 292.0000000000000568 ) ) ;
#597 = CARTESIAN_POINT ( 'NONE',  ( 62.03602043239044406, -4.900000000000000355, 295.0000000000000568 ) ) ;
#598 = ORIENTED_EDGE ( 'NONE', *, *, #192, .F. ) ;
#599 = ORIENTED_EDGE ( 'NONE', *, *, #305, .F. ) ;
#600 = FACE_OUTER_BOUND ( 'NONE', #169, .T. ) ;
#601 = DIRECTION ( 'NONE',  ( 1.000000000000000000, -0.000000000000000000, 0.000000000000000000 ) ) ;
#602 = LINE ( 'NONE', #135, #143 ) ;
#603 = ORIENTED_EDGE ( 'NONE', *, *, #489, .T. ) ;
#604 = EDGE_CURVE ( 'NONE', #594, #706, #462, .T. ) ;
#605 = FACE_OUTER_BOUND ( 'NONE', #494, .T. ) ;
#606 = VERTEX_POINT ( 'NONE', #721 ) ;
#607 = VECTOR ( 'NONE', #117, 1000.000000000000000 ) ;
#608 = VERTEX_POINT ( 'NONE', #132 ) ;
#609 = AXIS2_PLACEMENT_3D ( 'NONE', #222, #821, #285 ) ;
#610 = CYLINDRICAL_SURFACE ( 'NONE', #571, 2.999999999999947153 ) ;
#611 = FACE_OUTER_BOUND ( 'NONE', #719, .T. ) ;
#612 = ORIENTED_EDGE ( 'NONE', *, *, #656, .F. ) ;
#613 = LINE ( 'NONE', #551, #704 ) ;
#614 = ADVANCED_FACE ( 'NONE', ( #465 ), #64, .F. ) ;
#615 = PLANE ( 'NONE',  #545 ) ;
#616 = EDGE_LOOP ( 'NONE', ( #848, #834, #713, #330 ) ) ;
#617 = CYLINDRICAL_SURFACE ( 'NONE', #301, 6.000000000000005329 ) ;
#618 = CARTESIAN_POINT ( 'NONE',  ( 67.10720418711127877, 4.900000000000000355, 270.6337450904831030 ) ) ;
#619 = ADVANCED_FACE ( 'NONE', ( #734 ), #394, .F. ) ;
#620 = DIRECTION ( 'NONE',  ( -0.9662235696024593645, 0.000000000000000000, -0.2577052842777609598 ) ) ;
#621 = VERTEX_POINT ( 'NONE', #596 ) ;
#622 = VECTOR ( 'NONE', #138, 1000.000000000000000 ) ;
#623 = LINE ( 'NONE', #299, #76 ) ;
#624 = DIRECTION ( 'NONE',  ( -0.000000000000000000, -1.000000000000000000, 0.000000000000000000 ) ) ;
#625 = VERTEX_POINT ( 'NONE', #724 ) ;
#626 = ADVANCED_FACE ( 'NONE', ( #275 ), #664, .F. ) ;
#627 = AXIS2_PLACEMENT_3D ( 'NONE', #10, #430, #6 ) ;
#628 = CARTESIAN_POINT ( 'NONE',  ( 62.03602043239045827, 4.900000000000000355, 292.0000000000000568 ) ) ;
#629 = DIRECTION ( 'NONE',  ( 0.000000000000000000, 1.000000000000000000, -0.000000000000000000 ) ) ;
#630 = ORIENTED_EDGE ( 'NONE', *, *, #846, .F. ) ;
#631 = CARTESIAN_POINT ( 'NONE',  ( 11.13970423613136873, -4.900000000000000355, 54.99999999999999289 ) ) ;
#632 = ADVANCED_FACE ( 'NONE', ( #605 ), #610, .T. ) ;
#633 = DIRECTION ( 'NONE',  ( -3.299649102463553885E-17, 0.000000000000000000, 1.000000000000000000 ) ) ;
#634 = ORIENTED_EDGE ( 'NONE', *, *, #846, .T. ) ;
#635 = AXIS2_PLACEMENT_3D ( 'NONE', #835, #698, #295 ) ;
#636 = CARTESIAN_POINT ( 'NONE',  ( 69.42094084484564576, 4.900000000000000355, 272.9759102313150834 ) ) ;
#637 = VECTOR ( 'NONE', #838, 1000.000000000000000 ) ;
#638 = ORIENTED_EDGE ( 'NONE', *, *, #472, .F. ) ;
#639 = LINE ( 'NONE', #581, #456 ) ;
#640 = EDGE_CURVE ( 'NONE', #426, #41, #660, .T. ) ;
#641 = PLANE ( 'NONE',  #798 ) ;
#642 = VERTEX_POINT ( 'NONE', #410 ) ;
#643 = CARTESIAN_POINT ( 'NONE',  ( 66.47283833506619999, -4.900000000000000355, 275.3648811524607822 ) ) ;
#644 = ORIENTED_EDGE ( 'NONE', *, *, #803, .T. ) ;
#645 = CARTESIAN_POINT ( 'NONE',  ( 314.1397042361314220, 4.900000000000000355, 107.5729682796174274 ) ) ;
#646 = VECTOR ( 'NONE', #98, 1000.000000000000000 ) ;
#647 = CIRCLE ( 'NONE', #609, 3.000000000000002665 ) ;
#648 = EDGE_LOOP ( 'NONE', ( #788, #236, #39, #483 ) ) ;
#649 = DIRECTION ( 'NONE',  ( 0.000000000000000000, 1.000000000000000000, -0.000000000000000000 ) ) ;
#650 = ADVANCED_FACE ( 'NONE', ( #797 ), #806, .T. ) ;
#651 = CARTESIAN_POINT ( 'NONE',  ( 65.80543848331535628, -4.900000000000000355, 272.2868320778705993 ) ) ;
#652 = EDGE_LOOP ( 'NONE', ( #603, #411, #55, #177 ) ) ;
#653 = DIRECTION ( 'NONE',  ( 0.1461452858796417342, 0.000000000000000000, 0.9892631376004857868 ) ) ;
#654 = ADVANCED_FACE ( 'NONE', ( #740 ), #731, .F. ) ;
#655 = FACE_OUTER_BOUND ( 'NONE', #108, .T. ) ;
#656 = EDGE_CURVE ( 'NONE', #491, #606, #613, .T. ) ;
#657 = ORIENTED_EDGE ( 'NONE', *, *, #725, .T. ) ;
#658 = CARTESIAN_POINT ( 'NONE',  ( 0.000000000000000000, 0.000000000000000000, 0.000000000000000000 ) ) ;
#659 = ORIENTED_EDGE ( 'NONE', *, *, #758, .T. ) ;
#660 = LINE ( 'NONE', #266, #762 ) ;
#661 = VECTOR ( 'NONE', #510, 1000.000000000000000 ) ;
#662 = FACE_OUTER_BOUND ( 'NONE', #256, .T. ) ;
#663 = VERTEX_POINT ( 'NONE', #69 ) ;
#664 = CYLINDRICAL_SURFACE ( 'NONE', #219, 3.000000000000002665 ) ;
#665 = EDGE_CURVE ( 'NONE', #52, #49, #280, .T. ) ;
#666 = CARTESIAN_POINT ( 'NONE',  ( 64.93469114119788799, 4.900000000000000355, 292.7731158528332571 ) ) ;
#667 = ORIENTED_EDGE ( 'NONE', *, *, #377, .T. ) ;
#668 = CARTESIAN_POINT ( 'NONE',  ( 59.73129074329485633, -4.900000000000000355, 289.0000000000000568 ) ) ;
#669 = CARTESIAN_POINT ( 'NONE',  ( 65.42072043988450503, -4.900000000000000355, 271.6456353388191474 ) ) ;
#670 = DIRECTION ( 'NONE',  ( 0.000000000000000000, 1.000000000000000000, 0.000000000000000000 ) ) ;
#671 = ORIENTED_EDGE ( 'NONE', *, *, #504, .F. ) ;
#672 = DIRECTION ( 'NONE',  ( -0.2577052842777613484, 0.000000000000000000, 0.9662235696024590315 ) ) ;
#673 = PLANE ( 'NONE',  #852 ) ;
#674 = CIRCLE ( 'NONE', #635, 300.0000000000000568 ) ;
#675 = ORIENTED_EDGE ( 'NONE', *, *, #665, .F. ) ;
#676 = CIRCLE ( 'NONE', #1, 6.000000000000005329 ) ;
#677 = CARTESIAN_POINT ( 'NONE',  ( 17.36076295598575925, 4.900000000000000355, 151.4165540435108426 ) ) ;
#678 = EDGE_CURVE ( 'NONE', #21, #41, #533, .T. ) ;
#679 = DIRECTION ( 'NONE',  ( 0.000000000000000000, 1.000000000000000000, 0.000000000000000000 ) ) ;
#680 = ORIENTED_EDGE ( 'NONE', *, *, #148, .F. ) ;
#681 = CARTESIAN_POINT ( 'NONE',  ( 37.37251321639265456, -4.900000000000000355, 286.8768717152777867 ) ) ;
#682 = ADVANCED_FACE ( 'NONE', ( #75 ), #339, .T. ) ;
#683 = DIRECTION ( 'NONE',  ( 0.000000000000000000, 1.000000000000000000, 0.000000000000000000 ) ) ;
#684 = EDGE_LOOP ( 'NONE', ( #586, #121, #699, #771 ) ) ;
#685 = DIRECTION ( 'NONE',  ( 0.000000000000000000, 0.000000000000000000, 1.000000000000000000 ) ) ;
#686 = DIRECTION ( 'NONE',  ( -0.4089262467471937446, 0.000000000000000000, -0.9125674357116043689 ) ) ;
#687 = DIRECTION ( 'NONE',  ( 0.8574929257125809556, 0.000000000000000000, -0.5144957554274653955 ) ) ;
#688 = ORIENTED_EDGE ( 'NONE', *, *, #725, .F. ) ;
#689 = CIRCLE ( 'NONE', #484, 303.0000000000000568 ) ;
#690 = DIRECTION ( 'NONE',  ( 0.000000000000000000, 1.000000000000000000, -0.000000000000000000 ) ) ;
#691 = AXIS2_PLACEMENT_3D ( 'NONE', #289, #562, #214 ) ;
#692 = CARTESIAN_POINT ( 'NONE',  ( 65.97066201331253410, -4.900000000000000355, 272.6035406039116538 ) ) ;
#693 = EDGE_CURVE ( 'NONE', #621, #49, #647, .T. ) ;
#694 = ORIENTED_EDGE ( 'NONE', *, *, #808, .T. ) ;
#695 = CARTESIAN_POINT ( 'NONE',  ( 65.76371761016953599, -4.900000000000000355, 270.2736466576790804 ) ) ;
#696 = DIRECTION ( 'NONE',  ( 0.000000000000000000, 1.000000000000000000, 0.000000000000000000 ) ) ;
#697 = ORIENTED_EDGE ( 'NONE', *, *, #340, .T. ) ;
#698 = DIRECTION ( 'NONE',  ( 0.000000000000000000, 1.000000000000000000, -0.000000000000000000 ) ) ;
#699 = ORIENTED_EDGE ( 'NONE', *, *, #294, .F. ) ;
#700 = DIRECTION ( 'NONE',  ( 0.000000000000000000, 1.000000000000000000, 0.000000000000000000 ) ) ;
#701 = EDGE_CURVE ( 'NONE', #36, #125, #443, .T. ) ;
#702 = AXIS2_PLACEMENT_3D ( 'NONE', #521, #785, #459 ) ;
#703 = FACE_OUTER_BOUND ( 'NONE', #252, .T. ) ;
#704 = VECTOR ( 'NONE', #8, 1000.000000000000000 ) ;
#705 = CARTESIAN_POINT ( 'NONE',  ( 66.59270843168380338, -4.900000000000000355, 269.7762521647705967 ) ) ;
#706 = VERTEX_POINT ( 'NONE', #162 ) ;
#707 = CARTESIAN_POINT ( 'NONE',  ( -55.18628288814380767, -4.900000000000000355, 28.07968793635628657 ) ) ;
#708 = DIRECTION ( 'NONE',  ( 0.000000000000000000, 1.000000000000000000, 0.000000000000000000 ) ) ;
#709 = ORIENTED_EDGE ( 'NONE', *, *, #61, .F. ) ;
#710 = DIRECTION ( 'NONE',  ( -0.9892631376004858978, 0.000000000000000000, 0.1461452858796416787 ) ) ;
#711 = DIRECTION ( 'NONE',  ( -0.9892631376004858978, 0.000000000000000000, 0.1461452858796417342 ) ) ;
#712 = EDGE_CURVE ( 'NONE', #791, #706, #676, .T. ) ;
#713 = ORIENTED_EDGE ( 'NONE', *, *, #190, .F. ) ;
#714 = CARTESIAN_POINT ( 'NONE',  ( 314.1397042361314220, -4.900000000000000355, 107.5729682796171858 ) ) ;
#715 = VECTOR ( 'NONE', #507, 1000.000000000000000 ) ;
#716 = VERTEX_POINT ( 'NONE', #631 ) ;
#717 = EDGE_CURVE ( 'NONE', #858, #336, #25, .T. ) ;
#718 = PRESENTATION_STYLE_ASSIGNMENT (( #509 ) ) ;
#719 = EDGE_LOOP ( 'NONE', ( #862, #697, #563, #368 ) ) ;
#720 = ORIENTED_EDGE ( 'NONE', *, *, #361, .T. ) ;
#721 = CARTESIAN_POINT ( 'NONE',  ( 11.13970423613136873, 4.900000000000000355, 107.5729682796162763 ) ) ;
#722 = DIRECTION ( 'NONE',  ( 0.000000000000000000, 1.000000000000000000, 0.000000000000000000 ) ) ;
#723 = ORIENTED_EDGE ( 'NONE', *, *, #822, .F. ) ;
#724 = CARTESIAN_POINT ( 'NONE',  ( 65.76371761016953599, 4.900000000000000355, 270.2736466576790804 ) ) ;
#725 = EDGE_CURVE ( 'NONE', #161, #333, #498, .T. ) ;
#726 =( GEOMETRIC_REPRESENTATION_CONTEXT ( 3 ) GLOBAL_UNCERTAINTY_ASSIGNED_CONTEXT ( ( #281 ) ) GLOBAL_UNIT_ASSIGNED_CONTEXT ( ( #196, #738, #412 ) ) REPRESENTATION_CONTEXT ( 'NONE', 'WORKASPACE' ) );
#727 = CIRCLE ( 'NONE', #496, 0.9999999999999453770 ) ;
#728 = CARTESIAN_POINT ( 'NONE',  ( 314.1397042361314220, -4.900000000000000355, 107.5729682796171858 ) ) ;
#729 = DIRECTION ( 'NONE',  ( 0.000000000000000000, 1.000000000000000000, -0.000000000000000000 ) ) ;
#730 = ORIENTED_EDGE ( 'NONE', *, *, #656, .T. ) ;
#731 = PLANE ( 'NONE',  #342 ) ;
#732 = CARTESIAN_POINT ( 'NONE',  ( 66.47283833506619999, -4.900000000000000355, 275.3648811524607822 ) ) ;
#733 = ORIENTED_EDGE ( 'NONE', *, *, #165, .F. ) ;
#734 = FACE_OUTER_BOUND ( 'NONE', #536, .T. ) ;
#735 = CARTESIAN_POINT ( 'NONE',  ( 67.99846618472480486, -4.900000000000000355, 270.1802563347129649 ) ) ;
#736 = CIRCLE ( 'NONE', #367, 3.000000000000002665 ) ;
#737 = ADVANCED_FACE ( 'NONE', ( #352 ), #617, .T. ) ;
#738 =( NAMED_UNIT ( * ) PLANE_ANGLE_UNIT ( ) SI_UNIT ( $, .RADIAN. ) );
#739 = VERTEX_POINT ( 'NONE', #356 ) ;
#740 = FACE_OUTER_BOUND ( 'NONE', #820, .T. ) ;
#741 = VECTOR ( 'NONE', #260, 1000.000000000000227 ) ;
#742 = DIRECTION ( 'NONE',  ( 0.000000000000000000, 0.000000000000000000, 1.000000000000000000 ) ) ;
#743 = VECTOR ( 'NONE', #163, 1000.000000000000000 ) ;
#744 = VERTEX_POINT ( 'NONE', #227 ) ;
#745 = ADVANCED_FACE ( 'NONE', ( #492 ), #119, .F. ) ;
#746 = AXIS2_PLACEMENT_3D ( 'NONE', #452, #170, #50 ) ;
#747 = CARTESIAN_POINT ( 'NONE',  ( 314.1397042361314220, -4.900000000000000355, 107.5729682796174274 ) ) ;
#748 = PRODUCT_DEFINITION ( 'UNKNOWN', '', #14, #812 ) ;
#749 = LINE ( 'NONE', #149, #144 ) ;
#750 = VECTOR ( 'NONE', #764, 1000.000000000000114 ) ;
#751 = CARTESIAN_POINT ( 'NONE',  ( 0.000000000000000000, -4.900000000000000355, 295.0000000000000568 ) ) ;
#752 = EDGE_LOOP ( 'NONE', ( #84, #671, #612, #501 ) ) ;
#753 = DIRECTION ( 'NONE',  ( 0.000000000000000000, 0.000000000000000000, 1.000000000000000000 ) ) ;
#754 = CARTESIAN_POINT ( 'NONE',  ( 14.13970423613136873, -4.900000000000000355, 4.665606239185097795E-16 ) ) ;
#755 = CARTESIAN_POINT ( 'NONE',  ( 14.13970423613136695, 4.900000000000000355, 54.99999999999999289 ) ) ;
#756 = VERTEX_POINT ( 'NONE', #381 ) ;
#757 = CARTESIAN_POINT ( 'NONE',  ( -46.78921673784292068, -4.900000000000000355, 20.96649303941821074 ) ) ;
#758 = EDGE_CURVE ( 'NONE', #398, #385, #249, .T. ) ;
#759 = DIRECTION ( 'NONE',  ( -3.299649102463554501E-17, 0.000000000000000000, 1.000000000000000000 ) ) ;
#760 = ORIENTED_EDGE ( 'NONE', *, *, #856, .T. ) ;
#761 = VECTOR ( 'NONE', #428, 1000.000000000000000 ) ;
#762 = VECTOR ( 'NONE', #543, 1000.000000000000000 ) ;
#763 = DIRECTION ( 'NONE',  ( 0.000000000000000000, 0.000000000000000000, 1.000000000000000000 ) ) ;
#764 = DIRECTION ( 'NONE',  ( -0.4089262467471937446, 0.000000000000000000, -0.9125674357116043689 ) ) ;
#765 = EDGE_LOOP ( 'NONE', ( #760, #644, #535, #598 ) ) ;
#766 = DIRECTION ( 'NONE',  ( 0.000000000000000000, 1.000000000000000000, 0.000000000000000000 ) ) ;
#767 = CYLINDRICAL_SURFACE ( 'NONE', #257, 3.000000000000002665 ) ;
#768 = ORIENTED_EDGE ( 'NONE', *, *, #340, .F. ) ;
#769 = EDGE_CURVE ( 'NONE', #264, #21, #639, .T. ) ;
#770 = LINE ( 'NONE', #239, #743 ) ;
#771 = ORIENTED_EDGE ( 'NONE', *, *, #157, .T. ) ;
#772 = LINE ( 'NONE', #448, #145 ) ;
#773 = AXIS2_PLACEMENT_3D ( 'NONE', #757, #353, #686 ) ;
#774 = CYLINDRICAL_SURFACE ( 'NONE', #371, 3.000000000000002665 ) ;
#775 = PRODUCT_RELATED_PRODUCT_CATEGORY ( 'part', '', ( #564 ) ) ;
#776 = ORIENTED_EDGE ( 'NONE', *, *, #782, .T. ) ;
#777 = CARTESIAN_POINT ( 'NONE',  ( 11.13970423613136873, -4.900000000000000355, -0.000000000000000000 ) ) ;
#778 = LINE ( 'NONE', #188, #468 ) ;
#779 = ADVANCED_FACE ( 'NONE', ( #253 ), #185, .T. ) ;
#780 = ORIENTED_EDGE ( 'NONE', *, *, #247, .F. ) ;
#781 = DIRECTION ( 'NONE',  ( 0.000000000000000000, 1.000000000000000000, 0.000000000000000000 ) ) ;
#782 = EDGE_CURVE ( 'NONE', #756, #310, #235, .T. ) ;
#783 = VERTEX_POINT ( 'NONE', #513 ) ;
#784 = DIRECTION ( 'NONE',  ( 0.1461452858796416510, 0.000000000000000000, 0.9892631376004857868 ) ) ;
#785 = DIRECTION ( 'NONE',  ( 0.000000000000000000, 1.000000000000000000, -0.000000000000000000 ) ) ;
#786 = AXIS2_PLACEMENT_3D ( 'NONE', #645, #312, #53 ) ;
#787 = AXIS2_PLACEMENT_3D ( 'NONE', #40, #710, #784 ) ;
#788 = ORIENTED_EDGE ( 'NONE', *, *, #532, .T. ) ;
#789 = AXIS2_PLACEMENT_3D ( 'NONE', #210, #124, #466 ) ;
#790 = DIRECTION ( 'NONE',  ( 1.000000000000000000, 0.000000000000000000, 0.000000000000000000 ) ) ;
#791 = VERTEX_POINT ( 'NONE', #106 ) ;
#792 = EDGE_CURVE ( 'NONE', #860, #606, #246, .T. ) ;
#793 = DIRECTION ( 'NONE',  ( -3.299649102463553885E-17, 0.000000000000000000, 1.000000000000000000 ) ) ;
#794 = FACE_OUTER_BOUND ( 'NONE', #765, .T. ) ;
#795 = DIRECTION ( 'NONE',  ( 0.4534887557701110516, 0.000000000000000000, 0.8912619976135393030 ) ) ;
#796 = ORIENTED_EDGE ( 'NONE', *, *, #565, .F. ) ;
#797 = FACE_OUTER_BOUND ( 'NONE', #151, .T. ) ;
#798 = AXIS2_PLACEMENT_3D ( 'NONE', #841, #420, #539 ) ;
#799 = CARTESIAN_POINT ( 'NONE',  ( 43.30809204199557882, -4.900000000000000355, 286.0000000000000568 ) ) ;
#800 = ORIENTED_EDGE ( 'NONE', *, *, #395, .F. ) ;
#801 = PLANE ( 'NONE',  #59 ) ;
#802 = LINE ( 'NONE', #486, #173 ) ;
#803 = EDGE_CURVE ( 'NONE', #791, #279, #178, .T. ) ;
#804 = ORIENTED_EDGE ( 'NONE', *, *, #693, .F. ) ;
#805 = ORIENTED_EDGE ( 'NONE', *, *, #309, .T. ) ;
#806 = PLANE ( 'NONE',  #485 ) ;
#807 = LINE ( 'NONE', #213, #204 ) ;
#808 = EDGE_CURVE ( 'NONE', #125, #199, #772, .T. ) ;
#809 = CARTESIAN_POINT ( 'NONE',  ( 14.13970423613136518, 4.900000000000000355, 107.5729682796162621 ) ) ;
#810 = EDGE_CURVE ( 'NONE', #248, #426, #258, .T. ) ;
#811 = ORIENTED_EDGE ( 'NONE', *, *, #328, .T. ) ;
#812 = PRODUCT_DEFINITION_CONTEXT ( 'detailed design', #417, 'design' ) ;
#813 = CIRCLE ( 'NONE', #243, 3.000000000000002665 ) ;
#814 = DIRECTION ( 'NONE',  ( 0.000000000000000000, 0.000000000000000000, 1.000000000000000000 ) ) ;
#815 = VECTOR ( 'NONE', #578, 1000.000000000000000 ) ;
#816 = ORIENTED_EDGE ( 'NONE', *, *, #54, .F. ) ;
#817 = DIRECTION ( 'NONE',  ( 0.000000000000000000, 0.000000000000000000, 1.000000000000000000 ) ) ;
#818 = DIRECTION ( 'NONE',  ( -0.000000000000000000, -1.000000000000000000, 0.000000000000000000 ) ) ;
#819 = DIRECTION ( 'NONE',  ( -0.2577052842777609043, 0.000000000000000000, 0.9662235696024591425 ) ) ;
#820 = EDGE_LOOP ( 'NONE', ( #313, #568, #667, #776, #857, #688, #57, #180, #675, #805, #409, #403, #694, #488, #455, #437, #634, #680, #96, #512, #3, #293, #709, #592 ) ) ;
#821 = DIRECTION ( 'NONE',  ( 0.000000000000000000, 1.000000000000000000, -0.000000000000000000 ) ) ;
#822 = EDGE_CURVE ( 'NONE', #444, #323, #520, .T. ) ;
#823 = CARTESIAN_POINT ( 'NONE',  ( 66.27821336559702559, -4.900000000000000355, 271.1311395833916436 ) ) ;
#824 = DIRECTION ( 'NONE',  ( 0.000000000000000000, 1.000000000000000000, -0.000000000000000000 ) ) ;
#825 = ORIENTED_EDGE ( 'NONE', *, *, #499, .T. ) ;
#826 = CARTESIAN_POINT ( 'NONE',  ( 63.23295970617768802, -4.900000000000000355, 273.8303193441531675 ) ) ;
#827 = LINE ( 'NONE', #681, #511 ) ;
#828 = LINE ( 'NONE', #567, #750 ) ;
#829 = ORIENTED_EDGE ( 'NONE', *, *, #42, .F. ) ;
#830 = CIRCLE ( 'NONE', #429, 3.000000000000002665 ) ;
#831 = VECTOR ( 'NONE', #766, 1000.000000000000000 ) ;
#832 = DIRECTION ( 'NONE',  ( 0.000000000000000000, 1.000000000000000000, -0.000000000000000000 ) ) ;
#833 = ADVANCED_FACE ( 'NONE', ( #109 ), #576, .F. ) ;
#834 = ORIENTED_EDGE ( 'NONE', *, *, #472, .T. ) ;
#835 = CARTESIAN_POINT ( 'NONE',  ( 314.1397042361314220, 4.900000000000000355, 107.5729682796171858 ) ) ;
#836 = EDGE_LOOP ( 'NONE', ( #332, #111, #579, #380 ) ) ;
#837 = EDGE_CURVE ( 'NONE', #716, #491, #457, .T. ) ;
#838 = DIRECTION ( 'NONE',  ( 1.000000000000000000, -0.000000000000000000, 0.000000000000000000 ) ) ;
#839 = LINE ( 'NONE', #651, #661 ) ;
#840 = MANIFOLD_SOLID_BREP ( 'Boss-Extrude1', #254 ) ;
#841 = CARTESIAN_POINT ( 'NONE',  ( 11.13970423613136873, -4.900000000000000355, 0.000000000000000000 ) ) ;
#842 = ORIENTED_EDGE ( 'NONE', *, *, #678, .F. ) ;
#843 = CARTESIAN_POINT ( 'NONE',  ( 67.10720418711127877, -4.900000000000000355, 270.6337450904831030 ) ) ;
#844 = ORIENTED_EDGE ( 'NONE', *, *, #522, .T. ) ;
#845 =( NAMED_UNIT ( * ) SI_UNIT ( $, .STERADIAN. ) SOLID_ANGLE_UNIT ( ) );
#846 = EDGE_CURVE ( 'NONE', #63, #663, #526, .T. ) ;
#847 = LINE ( 'NONE', #643, #591 ) ;
#848 = ORIENTED_EDGE ( 'NONE', *, *, #717, .T. ) ;
#849 = DIRECTION ( 'NONE',  ( 0.000000000000000000, 0.000000000000000000, 1.000000000000000000 ) ) ;
#850 = LINE ( 'NONE', #47, #105 ) ;
#851 = VECTOR ( 'NONE', #819, 1000.000000000000114 ) ;
#852 = AXIS2_PLACEMENT_3D ( 'NONE', #259, #463, #790 ) ;
#853 = CARTESIAN_POINT ( 'NONE',  ( -71.74019173779866776, 4.900000000000000355, 43.04411504267888944 ) ) ;
#854 = VECTOR ( 'NONE', #95, 1000.000000000000000 ) ;
#855 = AXIS2_PLACEMENT_3D ( 'NONE', #174, #37, #242 ) ;
#856 = EDGE_CURVE ( 'NONE', #161, #791, #408, .T. ) ;
#857 = ORIENTED_EDGE ( 'NONE', *, *, #867, .T. ) ;
#858 = VERTEX_POINT ( 'NONE', #200 ) ;
#859 = DIRECTION ( 'NONE',  ( 0.000000000000000000, 1.000000000000000000, 0.000000000000000000 ) ) ;
#860 = VERTEX_POINT ( 'NONE', #344 ) ;
#861 = EDGE_CURVE ( 'NONE', #24, #189, #813, .T. ) ;
#862 = ORIENTED_EDGE ( 'NONE', *, *, #407, .T. ) ;
#863 = DIRECTION ( 'NONE',  ( 0.000000000000000000, 1.000000000000000000, 0.000000000000000000 ) ) ;
#864 = ORIENTED_EDGE ( 'NONE', *, *, #148, .T. ) ;
#865 = DIRECTION ( 'NONE',  ( 0.000000000000000000, 0.000000000000000000, 1.000000000000000000 ) ) ;
#866 = CARTESIAN_POINT ( 'NONE',  ( 133.5230226586241429, 4.900000000000000355, 35.61244994884994952 ) ) ;
#867 = EDGE_CURVE ( 'NONE', #310, #333, #79, .T. ) ;
#868 = AXIS2_PLACEMENT_3D ( 'NONE', #658, #56, #278 ) ;
#869 = CIRCLE ( 'NONE', #358, 1.000000000000000888 ) ;
ENDSEC;
END-ISO-10303-21;
